<?xml version="1.0" encoding="UTF-8" standalone="no"?>
<!DOCTYPE svg PUBLIC "-//W3C//DTD SVG 1.1//EN" "http://www.w3.org/Graphics/SVG/1.1/DTD/svg11.dtd">
<svg width="100%" height="100%" viewBox="0 0 560 706" version="1.1" xmlns="http://www.w3.org/2000/svg" xmlns:xlink="http://www.w3.org/1999/xlink" xml:space="preserve" xmlns:serif="http://www.serif.com/" style="fill-rule:evenodd;clip-rule:evenodd;stroke-linecap:round;stroke-linejoin:round;stroke-miterlimit:1.5;">
    <g transform="matrix(0.48,0,0,0.48,-150.166,-67.2821)">
        <g transform="matrix(1,0,0,1,-250,-880)">
            <g transform="matrix(1,0,0,1,91.6905,877.293)">
                <path d="M1394,1470C1379.43,1456.28 1350.28,1428.83 1341,1411C1333.6,1396.79 1336.74,1374.26 1338.31,1363" style="fill:none;stroke:rgb(64,64,64);stroke-width:4.17px;"/>
            </g>
            <g transform="matrix(1,0,0,1,91.6905,877.293)">
                <path d="M1234,1428C1238.38,1415.61 1247.14,1390.84 1262.63,1381C1279.67,1370.17 1317.42,1365.39 1336.29,1363" style="fill:none;stroke:rgb(64,64,64);stroke-width:4.17px;"/>
            </g>
            <g transform="matrix(1,0,0,1,91.6905,877.293)">
                <path d="M1376,1245C1382.76,1262.11 1396.28,1296.33 1390,1316C1383.72,1335.67 1353.45,1353.89 1338.31,1363" style="fill:none;stroke:rgb(64,64,64);stroke-width:4.17px;"/>
            </g>
            <path d="M1557,2396L1562,2248" style="fill:none;stroke:rgb(64,64,64);stroke-width:4.17px;"/>
            <path d="M1557,2396L1602,2322" style="fill:none;stroke:rgb(64,64,64);stroke-width:4.17px;"/>
            <path d="M1630,2373L1557,2396" style="fill:none;stroke:rgb(64,64,64);stroke-width:4.17px;"/>
            <path d="M1580,2470L1557,2396" style="fill:none;stroke:rgb(64,64,64);stroke-width:4.17px;"/>
            <path d="M1514,2460L1557,2396" style="fill:none;stroke:rgb(64,64,64);stroke-width:4.17px;"/>
            <path d="M1194,2373L1156.16,2443" style="fill:none;stroke:rgb(64,64,64);stroke-width:4.17px;"/>
            <path d="M1218,2014L1236,2086" style="fill:none;stroke:rgb(64,64,64);stroke-width:4.17px;"/>
            <path d="M1236,2086L1162,2077" style="fill:none;stroke:rgb(64,64,64);stroke-width:4.17px;"/>
            <path d="M1235,2084C1255.7,2090.02 1297.11,2102.07 1328,2097C1360.5,2091.67 1406.83,2065.22 1430,2052" style="fill:none;stroke:rgb(64,64,64);stroke-width:4.17px;"/>
            <path d="M1249,2308C1254.78,2280.72 1266.33,2226.17 1264,2189C1261.75,2153.08 1243.91,2107.69 1235,2085" style="fill:none;stroke:rgb(64,64,64);stroke-width:4.17px;"/>
            <path d="M1199,2232L1249,2307" style="fill:none;stroke:rgb(64,64,64);stroke-width:4.17px;"/>
            <g transform="matrix(0.668928,-0.00022842,0.00022842,0.668928,340.46,424.361)">
                <g>
                    <path d="M1355.25,2815.57L1448.59,2899.36" style="fill:none;stroke:rgb(64,64,64);stroke-width:6.23px;"/>
                    <path d="M1355.25,2815.57L1390.56,3007.3" style="fill:none;stroke:rgb(64,64,64);stroke-width:6.23px;"/>
                    <g transform="matrix(1,0,0,1,-158.257,-44.5)">
                        <path d="M1975.38,2991.39L2079.33,3050.71" style="fill:none;stroke:rgb(64,64,64);stroke-width:6.23px;"/>
                    </g>
                    <g transform="matrix(1,0,0,1,-158.257,-44.5)">
                        <path d="M1975.38,2991.39L1869.45,2921.06" style="fill:none;stroke:rgb(64,64,64);stroke-width:6.23px;"/>
                    </g>
                    <g transform="matrix(1,0,0,1,-54.3065,1.88936)">
                        <path d="M1921.07,2537.87L1681.7,2432.39" style="fill:none;stroke:rgb(64,64,64);stroke-width:6.23px;"/>
                    </g>
                    <g transform="matrix(1,0,0,1,-54.3065,1.88936)">
                        <path d="M1940.07,2345.9L1809.18,2397.22" style="fill:none;stroke:rgb(64,64,64);stroke-width:6.23px;"/>
                    </g>
                    <g transform="matrix(1,0,0,1,-54.3065,1.88936)">
                        <path d="M1809.18,2397.22L1681.7,2432.39" style="fill:none;stroke:rgb(64,64,64);stroke-width:6.23px;"/>
                    </g>
                    <g transform="matrix(1,0,0,1,-54.3065,1.88936)">
                        <path d="M1694.43,2326.9L1681.7,2432.39" style="fill:none;stroke:rgb(64,64,64);stroke-width:6.23px;"/>
                    </g>
                    <g transform="matrix(1,0,0,1,-54.3065,1.88936)">
                        <path d="M1681.7,2432.39L1738.57,2537.87" style="fill:none;stroke:rgb(64,64,64);stroke-width:6.23px;"/>
                    </g>
                    <g transform="matrix(1,0,0,1,-54.3065,1.88936)">
                        <path d="M1681.7,2432.39L1623.82,2537.87" style="fill:none;stroke:rgb(64,64,64);stroke-width:6.23px;"/>
                    </g>
                    <g transform="matrix(1,0,0,1,-54.3065,1.88936)">
                        <path d="M1593.18,2381.06L1681.7,2432.39" style="fill:none;stroke:rgb(64,64,64);stroke-width:6.23px;"/>
                    </g>
                    <path d="M1355.25,2815.57L1436,2715.57" style="fill:none;stroke:rgb(64,64,64);stroke-width:6.23px;"/>
                    <path d="M1355.25,2815.57L1471.31,2812.82" style="fill:none;stroke:rgb(64,64,64);stroke-width:6.23px;"/>
                    <path d="M1355.25,2815.57L1275.47,2912.82" style="fill:none;stroke:rgb(64,64,64);stroke-width:6.23px;"/>
                    <path d="M1355.25,2815.57L1225.08,2821.06" style="fill:none;stroke:rgb(64,64,64);stroke-width:6.23px;"/>
                    <g transform="matrix(1,0,0,1,-158.257,-44.5)">
                        <path d="M1975.38,2991.39L1780.75,3077.63" style="fill:none;stroke:rgb(64,64,64);stroke-width:6.23px;"/>
                    </g>
                    <path d="M1392,3005C1413.98,3019.86 1457.93,3049.57 1496,3054C1534.67,3058.5 1594.22,3040.83 1624,3032" style="fill:none;stroke:rgb(64,64,64);stroke-width:6.23px;"/>
                    <path d="M1867,2538C1882.64,2558.19 1913.94,2598.56 1907,2630C1900.06,2661.44 1850.28,2704.89 1825.38,2726.62" style="fill:none;stroke:rgb(64,64,64);stroke-width:6.23px;"/>
                </g>
                <g transform="matrix(0.325432,0,0,0.324077,1499.01,2774.64)">
                    <circle cx="977.5" cy="531.5" r="108.5" style="fill:rgb(51,186,242);"/>
                </g>
                <g transform="matrix(0.325432,1.76417e-20,-1.75683e-20,0.324077,1607.26,2740.79)">
                    <circle cx="977.5" cy="531.5" r="108.5" style="fill:rgb(204,230,79);"/>
                </g>
                <g transform="matrix(0.325432,0,0,0.324077,1602.96,2833.96)">
                    <circle cx="977.5" cy="531.5" r="108.5" style="fill:rgb(204,230,79);"/>
                </g>
                <g transform="matrix(0.325432,3.52835e-20,-3.51365e-20,0.324077,1532.1,2881.82)">
                    <circle cx="977.5" cy="531.5" r="108.5" style="fill:rgb(204,230,79);"/>
                </g>
                <g transform="matrix(0.325432,0,0,0.324077,1304.38,2860.88)">
                    <circle cx="977.5" cy="531.5" r="108.5" style="fill:rgb(148,180,71);"/>
                </g>
                <g transform="matrix(0.325432,1.76417e-20,-1.75683e-20,0.324077,1507.27,2554.37)">
                    <circle cx="977.5" cy="531.5" r="108.5" style="fill:rgb(148,180,71);"/>
                </g>
                <g transform="matrix(0.325432,4.8836e-20,-3.51365e-20,0.324077,1309.19,2543.39)">
                    <circle cx="977.5" cy="531.5" r="108.5" style="fill:rgb(94,111,31);"/>
                </g>
                <g transform="matrix(0.325432,0,0,0.324077,1393.08,2704.31)">
                    <circle cx="977.5" cy="531.5" r="108.5" style="fill:rgb(204,230,79);"/>
                </g>
                <g transform="matrix(0.325432,0,0,0.324077,1309.28,2262.03)">
                    <circle cx="977.5" cy="531.5" r="108.5" style="fill:rgb(20,108,213);"/>
                </g>
                <g transform="matrix(0.325432,0,0,0.324077,1436.77,2226.87)">
                    <circle cx="977.5" cy="531.5" r="108.5" style="fill:rgb(204,230,79);"/>
                </g>
                <g transform="matrix(0.325432,0,0,0.324077,1567.65,2176.87)">
                    <circle cx="977.5" cy="531.5" r="108.5" style="fill:rgb(166,166,166);"/>
                </g>
                <g transform="matrix(0.325432,0,0,0.324077,1548.66,2367.52)">
                    <circle cx="977.5" cy="531.5" r="108.5" style="fill:rgb(148,180,71);"/>
                </g>
                <g transform="matrix(0.325432,0,0,0.324077,1366.15,2367.52)">
                    <circle cx="977.5" cy="531.5" r="108.5" style="fill:rgb(204,230,79);"/>
                </g>
                <g transform="matrix(0.325432,0,0,0.324077,1251.4,2367.52)">
                    <circle cx="977.5" cy="531.5" r="108.5" style="fill:rgb(204,230,79);"/>
                </g>
                <g transform="matrix(0.325432,0,0,0.324077,1322.02,2156.54)">
                    <circle cx="977.5" cy="531.5" r="108.5" style="fill:rgb(204,230,79);"/>
                </g>
                <g transform="matrix(0.325432,0,0,0.324077,1220.77,2210.7)">
                    <circle cx="977.5" cy="531.5" r="108.5" style="fill:rgb(204,230,79);"/>
                </g>
                <g transform="matrix(0.325432,0,0,0.324077,1037.14,2643.33)">
                    <circle cx="977.5" cy="531.5" r="108.5" style="fill:rgb(20,108,213);"/>
                </g>
                <g transform="matrix(0.325432,0,0,0.324077,1153.2,2640.57)">
                    <circle cx="977.5" cy="531.5" r="108.5" style="fill:rgb(204,230,79);"/>
                </g>
                <g transform="matrix(0.325432,0,0,0.324077,1072.45,2835.06)">
                    <circle cx="977.5" cy="531.5" r="108.5" style="fill:rgb(148,180,71);"/>
                </g>
                <g transform="matrix(0.325432,0,0,0.324077,1130.48,2727.11)">
                    <circle cx="977.5" cy="531.5" r="108.5" style="fill:rgb(204,230,79);"/>
                </g>
                <g transform="matrix(0.325432,0,0,0.324077,957.357,2740.57)">
                    <circle cx="977.5" cy="531.5" r="108.5" style="fill:rgb(204,230,79);"/>
                </g>
                <g transform="matrix(0.325432,0,0,0.324077,1117.89,2543.33)">
                    <circle cx="977.5" cy="531.5" r="108.5" style="fill:rgb(204,230,79);"/>
                </g>
                <g transform="matrix(0.325432,3.52835e-20,-3.51365e-20,0.324077,966.675,2533.56)">
                    <circle cx="977.5" cy="531.5" r="108.5" style="fill:rgb(204,230,79);"/>
                </g>
                <g transform="matrix(0.325432,0,0,0.324077,906.973,2648.81)">
                    <circle cx="977.5" cy="531.5" r="108.5" style="fill:rgb(204,230,79);"/>
                </g>
                <g transform="matrix(0.325432,5.29252e-20,-5.27048e-20,0.324077,1018.74,2310.71)">
                    <circle cx="977.5" cy="531.5" r="108.5" style="fill:rgb(4,60,127);"/>
                </g>
                <g transform="matrix(0.325432,1.76417e-20,-1.75683e-20,0.324077,899.191,2843.06)">
                    <circle cx="977.5" cy="531.5" r="108.5" style="fill:rgb(166,166,166);"/>
                </g>
                <g transform="matrix(0.325432,3.52835e-20,-3.51365e-20,0.324077,993.32,2206.37)">
                    <circle cx="977.5" cy="531.5" r="108.5" style="fill:rgb(204,230,79);"/>
                </g>
                <g transform="matrix(0.325432,3.52835e-20,-3.51365e-20,0.324077,909.899,2298.14)">
                    <circle cx="977.5" cy="531.5" r="108.5" style="fill:rgb(204,230,79);"/>
                </g>
                <g transform="matrix(0.325432,5.29252e-20,-5.27048e-20,0.324077,1436.55,2869.07)">
                    <circle cx="977.5" cy="531.5" r="108.5" style="fill:rgb(204,230,79);"/>
                </g>
                <g transform="matrix(0.325432,1.76417e-20,-1.75683e-20,0.324077,1567.49,2665.33)">
                    <circle cx="977.5" cy="531.5" r="108.5" style="fill:rgb(204,230,79);"/>
                </g>
            </g>
        </g>
        <g transform="matrix(1,0,0,1,-70,-230.162)">
            <g transform="matrix(0.786307,0,0,1,108.983,0)">
                <path d="M779,372L779,616" style="fill:none;stroke:black;stroke-width:2.32px;stroke-dasharray:4.63,4.63,0,0;"/>
            </g>
            <g transform="matrix(0.786307,0,0,1,108.983,0)">
                <path d="M510,616L1474,616" style="fill:none;stroke:black;stroke-width:3.71px;"/>
            </g>
            <g transform="matrix(0.786307,0,0,1,108.983,0)">
                <path d="M1220,372L1220,616" style="fill:none;stroke:black;stroke-width:2.32px;stroke-dasharray:4.63,4.63,0,0;"/>
            </g>
            <g transform="matrix(0.786307,0,0,1,108.983,0)">
                <path d="M1266,616L1266,919" style="fill:none;stroke:black;stroke-width:2.32px;stroke-dasharray:4.63,4.63,0,0;"/>
            </g>
            <g transform="matrix(0.786307,0,0,1,108.983,0)">
                <path d="M1098,616L1098,919" style="fill:none;stroke:black;stroke-width:2.32px;stroke-dasharray:4.63,4.63,0,0;"/>
            </g>
            <g transform="matrix(0.786307,0,0,1,108.983,0)">
                <path d="M571,616L571,919" style="fill:none;stroke:black;stroke-width:2.32px;stroke-dasharray:4.63,4.63,0,0;"/>
            </g>
            <g transform="matrix(0.786307,0,0,1,108.983,0)">
                <rect x="510" y="372" width="964" height="547" style="fill:none;stroke:black;stroke-width:3.71px;"/>
            </g>
        </g>
        <g transform="matrix(0.37016,0,0,0.37016,183.669,66.5976)">
            <circle cx="977.5" cy="531.5" r="108.5" style="fill:rgb(51,186,242);"/>
        </g>
        <g transform="matrix(0.217715,0,0,0.217715,132.324,1302.23)">
            <circle cx="977.5" cy="531.5" r="108.5" style="fill:rgb(51,186,242);"/>
        </g>
        <g transform="matrix(0.37016,0,0,0.37016,736.169,66.5976)">
            <circle cx="977.5" cy="531.5" r="108.5" style="fill:rgb(4,60,127);"/>
        </g>
        <g transform="matrix(0.217715,0,0,0.217715,132.324,1455.67)">
            <circle cx="977.5" cy="531.5" r="108.5" style="fill:rgb(4,60,127);"/>
        </g>
        <g transform="matrix(0.37016,0,0,0.37016,457.169,66.5976)">
            <circle cx="977.5" cy="531.5" r="108.5" style="fill:rgb(20,108,213);"/>
        </g>
        <g transform="matrix(0.217715,0,0,0.217715,132.324,1379.48)">
            <circle cx="977.5" cy="531.5" r="108.5" style="fill:rgb(20,108,213);"/>
        </g>
        <g transform="matrix(0.37016,0,0,0.37016,333.169,341.098)">
            <circle cx="977.5" cy="531.5" r="108.5" style="fill:rgb(204,230,79);"/>
        </g>
        <g transform="matrix(0.217715,0,0,0.217715,132.324,1071.74)">
            <circle cx="977.5" cy="531.5" r="108.5" style="fill:rgb(204,230,79);"/>
        </g>
        <g transform="matrix(0.37016,0,0,0.37016,102.669,341.098)">
            <circle cx="977.5" cy="531.5" r="108.5" style="fill:rgb(166,166,166);"/>
        </g>
        <g transform="matrix(0.217715,0,0,0.217715,132.324,994.717)">
            <circle cx="977.5" cy="531.5" r="108.5" style="fill:rgb(166,166,166);"/>
        </g>
        <g transform="matrix(0.37016,0,0,0.37016,606.169,341.098)">
            <circle cx="977.5" cy="531.5" r="108.5" style="fill:rgb(148,180,71);"/>
        </g>
        <g transform="matrix(0.217715,0,0,0.217715,132.324,1148.72)">
            <circle cx="977.5" cy="531.5" r="108.5" style="fill:rgb(148,180,71);"/>
        </g>
        <g transform="matrix(0.37016,0,0,0.37016,754.169,341.098)">
            <circle cx="977.5" cy="531.5" r="108.5" style="fill:rgb(94,111,31);"/>
        </g>
        <g transform="matrix(0.217715,0,0,0.217715,132.324,1225.49)">
            <circle cx="977.5" cy="531.5" r="108.5" style="fill:rgb(94,111,31);"/>
        </g>
        <g transform="matrix(1,0,0,1,103.838,-199.162)">
            <text x="325.735px" y="933.862px" style="font-family:'ArialMT', 'Arial', sans-serif;font-size:37.5px;">0</text>
        </g>
        <g transform="matrix(1,0,0,1,320.5,-138.162)">
            <text x="305.69px" y="933.862px" style="font-family:'ArialMT', 'Arial', sans-serif;font-size:37.5px;">Participation coefﬁcient</text>
        </g>
        <g transform="matrix(-0.000674417,-1,1,-0.000674417,-593.787,968.716)">
            <text x="302.652px" y="933.862px" style="font-family:'ArialMT', 'Arial', sans-serif;font-size:37.5px;">Within-module degree z-score</text>
        </g>
        <g transform="matrix(1,0,0,1,103.838,-81.1624)">
            <text x="342.695px" y="930.877px" style="font-family:'ArialMT', 'Arial', sans-serif;font-size:33.333px;fill:rgb(89,89,89);">Isolated -</text>
            <text x="313.049px" y="965.301px" style="font-family:'ArialMT', 'Arial', sans-serif;font-size:33.333px;fill:rgb(89,89,89);">edges limited</text>
            <text x="335.273px" y="999.725px" style="font-family:'ArialMT', 'Arial', sans-serif;font-size:33.333px;fill:rgb(89,89,89);">to a single</text>
            <text x="356.587px" y="1034.15px" style="font-family:'ArialMT', 'Arial', sans-serif;font-size:33.333px;fill:rgb(89,89,89);">module</text>
        </g>
        <g transform="matrix(1,0,0,1,681.662,-81.1624)">
            <text x="341.012px" y="930.877px" style="font-family:'ArialMT', 'Arial', sans-serif;font-size:33.333px;fill:rgb(89,89,89);">Integrated -</text>
            <text x="299.313px" y="965.301px" style="font-family:'ArialMT', 'Arial', sans-serif;font-size:33.333px;fill:rgb(89,89,89);">edges distributed</text>
            <text x="333.599px" y="999.725px" style="font-family:'ArialMT', 'Arial', sans-serif;font-size:33.333px;fill:rgb(89,89,89);">equally to all</text>
            <text x="363.254px" y="1034.15px" style="font-family:'ArialMT', 'Arial', sans-serif;font-size:33.333px;fill:rgb(89,89,89);">modules</text>
        </g>
        <g transform="matrix(1,0,0,1,942.162,-724.74)">
            <text x="320.017px" y="930.877px" style="font-family:'Arial-BoldMT', 'Arial', sans-serif;font-weight:700;font-size:33.333px;fill:rgb(89,89,89);">Hubs</text>
            <text x="412.611px" y="930.877px" style="font-family:'ArialMT', 'Arial', sans-serif;font-size:33.333px;fill:rgb(89,89,89);">- many</text>
            <text x="314.426px" y="965.301px" style="font-family:'ArialMT', 'Arial', sans-serif;font-size:33.333px;fill:rgb(89,89,89);">within-module</text>
            <text x="371.84px" y="999.725px" style="font-family:'ArialMT', 'Arial', sans-serif;font-size:33.333px;fill:rgb(89,89,89);">edges</text>
        </g>
        <g transform="matrix(1,0,0,1,942.162,-363.352)">
            <text x="298.744px" y="930.877px" style="font-family:'Arial-BoldMT', 'Arial', sans-serif;font-weight:700;font-size:33.333px;fill:rgb(89,89,89);">Non-hubs</text>
            <text x="463.523px" y="930.877px" style="font-family:'ArialMT', 'Arial', sans-serif;font-size:33.333px;fill:rgb(89,89,89);">- few</text>
            <text x="314.426px" y="965.301px" style="font-family:'ArialMT', 'Arial', sans-serif;font-size:33.333px;fill:rgb(89,89,89);">within-module</text>
            <text x="371.84px" y="999.725px" style="font-family:'ArialMT', 'Arial', sans-serif;font-size:33.333px;fill:rgb(89,89,89);">edges</text>
        </g>
        <g transform="matrix(1,0,0,1,861.838,-199.162)">
            <text x="325.735px" y="933.862px" style="font-family:'ArialMT', 'Arial', sans-serif;font-size:37.5px;">1</text>
        </g>
        <g transform="matrix(1,0,0,1,228.162,160)">
            <g transform="matrix(2.08333,-0,-0,2.08333,84.6835,-19.829)">
                <path d="M191.795,354.699L183.434,358.88L191.795,363.061C189.705,360.97 189.705,356.79 191.795,354.699Z" style="fill:rgb(128,128,128);"/>
                <path d="M271.754,354.699L280.115,358.88L271.754,363.061C273.844,360.97 273.844,356.79 271.754,354.699Z" style="fill:rgb(128,128,128);"/>
                <path d="M190.123,358.88L273.426,358.88" style="fill:none;stroke:rgb(128,128,128);stroke-width:2px;"/>
            </g>
        </g>
        <g transform="matrix(0.000311634,1,-1,0.000311634,2087.02,-235.294)">
            <g transform="matrix(0.000649237,-2.08333,2.08333,0.000649237,374.912,1774.29)">
                <path d="M506.533,95.172L502.352,86.811L498.171,95.172C500.262,93.082 504.442,93.082 506.533,95.172Z" style="fill:rgb(128,128,128);"/>
                <path d="M506.533,163.007L502.352,171.369L498.171,163.007C500.262,165.098 504.442,165.098 506.533,163.007Z" style="fill:rgb(128,128,128);"/>
                <path d="M502.352,93.5L502.352,164.68" style="fill:none;stroke:rgb(128,128,128);stroke-width:2px;"/>
            </g>
        </g>
        <g transform="matrix(1,0,0,1,202.282,-58.9017)">
            <text x="199px" y="1177.25px" style="font-family:'ArialMT', 'Arial', sans-serif;font-size:33.333px;fill:rgb(89,89,89);">Ultra-peripheral node</text>
        </g>
        <g transform="matrix(1,0,0,1,202.282,18.1207)">
            <text x="199px" y="1177.25px" style="font-family:'ArialMT', 'Arial', sans-serif;font-size:33.333px;fill:rgb(89,89,89);">Peripheral node</text>
        </g>
        <g transform="matrix(1,0,0,1,202.282,95.0983)">
            <text x="199px" y="1177.25px" style="font-family:'ArialMT', 'Arial', sans-serif;font-size:33.333px;fill:rgb(89,89,89);">Non-hub connector</text>
        </g>
        <g transform="matrix(1,0,0,1,202.282,171.875)">
            <text x="199px" y="1177.25px" style="font-family:'ArialMT', 'Arial', sans-serif;font-size:33.333px;fill:rgb(89,89,89);">Non-hub kinless node</text>
        </g>
        <g transform="matrix(1,0,0,1,202.282,248.606)">
            <text x="199px" y="1177.25px" style="font-family:'ArialMT', 'Arial', sans-serif;font-size:33.333px;fill:rgb(89,89,89);">Provincial hub</text>
        </g>
        <g transform="matrix(1,0,0,1,202.282,325.86)">
            <text x="199px" y="1177.25px" style="font-family:'ArialMT', 'Arial', sans-serif;font-size:33.333px;fill:rgb(89,89,89);">Connector hub</text>
        </g>
        <g transform="matrix(1,0,0,1,202.282,402.056)">
            <text x="199px" y="1177.25px" style="font-family:'ArialMT', 'Arial', sans-serif;font-size:33.333px;fill:rgb(89,89,89);">Kinless hub</text>
        </g>
    </g>
</svg>
