<?xml version="1.0" encoding="utf-8" standalone="no"?>
<!DOCTYPE svg PUBLIC "-//W3C//DTD SVG 1.1//EN"
  "http://www.w3.org/Graphics/SVG/1.1/DTD/svg11.dtd">
<svg height="246.023594pt" version="1.1" viewBox="0 0 251.783594 246.023594" width="251.783594pt" xmlns="http://www.w3.org/2000/svg" xmlns:xlink="http://www.w3.org/1999/xlink">
 <metadata>
  <rdf:RDF xmlns:cc="http://creativecommons.org/ns#" xmlns:dc="http://purl.org/dc/elements/1.1/" xmlns:rdf="http://www.w3.org/1999/02/22-rdf-syntax-ns#">
   <cc:Work>
    <dc:type rdf:resource="http://purl.org/dc/dcmitype/StillImage"/>
    <dc:date>2023-09-26T13:50:22.296373</dc:date>
    <dc:format>image/svg+xml</dc:format>
    <dc:creator>
     <cc:Agent>
      <dc:title>Matplotlib v3.4.3, https://matplotlib.org/</dc:title>
     </cc:Agent>
    </dc:creator>
   </cc:Work>
  </rdf:RDF>
 </metadata>
 <defs>
  <style type="text/css">*{stroke-linecap:butt;stroke-linejoin:round;}</style>
 </defs>
 <g id="figure_1">
  <g id="patch_1">
   <path d="M 0 246.023594 
L 251.783594 246.023594 
L 251.783594 0 
L 0 0 
z
" style="fill:none;"/>
  </g>
  <g id="axes_1">
   <g id="patch_2">
    <path d="M 21.383594 224.64 
L 244.583594 224.64 
L 244.583594 7.2 
L 21.383594 7.2 
z
" style="fill:none;"/>
   </g>
   <g id="PathCollection_1">
    <defs>
     <path d="M 0 3.5 
C 0.928211 3.5 1.81853 3.131218 2.474874 2.474874 
C 3.131218 1.81853 3.5 0.928211 3.5 0 
C 3.5 -0.928211 3.131218 -1.81853 2.474874 -2.474874 
C 1.81853 -3.131218 0.928211 -3.5 0 -3.5 
C -0.928211 -3.5 -1.81853 -3.131218 -2.474874 -2.474874 
C -3.131218 -1.81853 -3.5 -0.928211 -3.5 0 
C -3.5 0.928211 -3.131218 1.81853 -2.474874 2.474874 
C -1.81853 3.131218 -0.928211 3.5 0 3.5 
z
" id="mcc57f7e586" style="stroke:#0000ff;"/>
    </defs>
    <g clip-path="url(#p1a4fc3668c)">
     <use style="fill:#0000ff;stroke:#0000ff;" x="124.598982" xlink:href="#mcc57f7e586" y="29.767925"/>
     <use style="fill:#0000ff;stroke:#0000ff;" x="74.689191" xlink:href="#mcc57f7e586" y="106.3557"/>
     <use style="fill:#0000ff;stroke:#0000ff;" x="76.5548" xlink:href="#mcc57f7e586" y="68.57064"/>
     <use style="fill:#0000ff;stroke:#0000ff;" x="64.394934" xlink:href="#mcc57f7e586" y="69.910878"/>
     <use style="fill:#0000ff;stroke:#0000ff;" x="107.659492" xlink:href="#mcc57f7e586" y="36.907317"/>
     <use style="fill:#0000ff;stroke:#0000ff;" x="36.97325" xlink:href="#mcc57f7e586" y="85.476036"/>
     <use style="fill:#0000ff;stroke:#0000ff;" x="127.287792" xlink:href="#mcc57f7e586" y="65.309279"/>
     <use style="fill:#0000ff;stroke:#0000ff;" x="71.353456" xlink:href="#mcc57f7e586" y="80.648153"/>
     <use style="fill:#0000ff;stroke:#0000ff;" x="95.464546" xlink:href="#mcc57f7e586" y="60.642104"/>
     <use style="fill:#0000ff;stroke:#0000ff;" x="82.777647" xlink:href="#mcc57f7e586" y="48.887266"/>
    </g>
   </g>
   <g id="PathCollection_2">
    <defs>
     <path d="M 0 3.5 
C 0.928211 3.5 1.81853 3.131218 2.474874 2.474874 
C 3.131218 1.81853 3.5 0.928211 3.5 0 
C 3.5 -0.928211 3.131218 -1.81853 2.474874 -2.474874 
C 1.81853 -3.131218 0.928211 -3.5 0 -3.5 
C -0.928211 -3.5 -1.81853 -3.131218 -2.474874 -2.474874 
C -3.131218 -1.81853 -3.5 -0.928211 -3.5 0 
C -3.5 0.928211 -3.131218 1.81853 -2.474874 2.474874 
C -1.81853 3.131218 -0.928211 3.5 0 3.5 
z
" id="m63d698741e" style="stroke:#ff0000;"/>
    </defs>
    <g clip-path="url(#p1a4fc3668c)">
     <use style="fill:#ff0000;stroke:#ff0000;" x="164.217774" xlink:href="#m63d698741e" y="174.447471"/>
     <use style="fill:#ff0000;stroke:#ff0000;" x="214.333827" xlink:href="#m63d698741e" y="168.035009"/>
     <use style="fill:#ff0000;stroke:#ff0000;" x="208.907099" xlink:href="#m63d698741e" y="174.349883"/>
     <use style="fill:#ff0000;stroke:#ff0000;" x="199.999267" xlink:href="#m63d698741e" y="177.786151"/>
     <use style="fill:#ff0000;stroke:#ff0000;" x="208.890699" xlink:href="#m63d698741e" y="174.003576"/>
     <use style="fill:#ff0000;stroke:#ff0000;" x="173.522788" xlink:href="#m63d698741e" y="159.683379"/>
     <use style="fill:#ff0000;stroke:#ff0000;" x="186.040684" xlink:href="#m63d698741e" y="183.702796"/>
     <use style="fill:#ff0000;stroke:#ff0000;" x="167.89722" xlink:href="#m63d698741e" y="154.310865"/>
     <use style="fill:#ff0000;stroke:#ff0000;" x="182.804332" xlink:href="#m63d698741e" y="123.317261"/>
     <use style="fill:#ff0000;stroke:#ff0000;" x="200.621128" xlink:href="#m63d698741e" y="143.272992"/>
    </g>
   </g>
   <g id="matplotlib.axis_1">
    <g id="text_1">
     <!-- Network metric 1 -->
     <g transform="translate(91.727578 236.530781)scale(0.11 -0.11)">
      <defs>
       <path d="M 488 4591 
L 1222 4591 
L 3541 872 
L 3541 4591 
L 4131 4591 
L 4131 0 
L 3434 0 
L 1081 3716 
L 1081 0 
L 488 0 
L 488 4591 
z
M 2269 4591 
L 2269 4591 
z
" id="Helvetica-4e" transform="scale(0.015625)"/>
       <path d="M 1806 3422 
Q 2163 3422 2497 3255 
Q 2831 3088 3006 2822 
Q 3175 2569 3231 2231 
Q 3281 2000 3281 1494 
L 828 1494 
Q 844 984 1069 676 
Q 1294 369 1766 369 
Q 2206 369 2469 659 
Q 2619 828 2681 1050 
L 3234 1050 
Q 3213 866 3089 639 
Q 2966 413 2813 269 
Q 2556 19 2178 -69 
Q 1975 -119 1719 -119 
Q 1094 -119 659 336 
Q 225 791 225 1609 
Q 225 2416 662 2919 
Q 1100 3422 1806 3422 
z
M 2703 1941 
Q 2669 2306 2544 2525 
Q 2313 2931 1772 2931 
Q 1384 2931 1121 2651 
Q 859 2372 844 1941 
L 2703 1941 
z
M 1753 3428 
L 1753 3428 
z
" id="Helvetica-65" transform="scale(0.015625)"/>
       <path d="M 525 4281 
L 1094 4281 
L 1094 3347 
L 1628 3347 
L 1628 2888 
L 1094 2888 
L 1094 703 
Q 1094 528 1213 469 
Q 1278 434 1431 434 
Q 1472 434 1519 436 
Q 1566 438 1628 444 
L 1628 0 
Q 1531 -28 1426 -40 
Q 1322 -53 1200 -53 
Q 806 -53 665 148 
Q 525 350 525 672 
L 525 2888 
L 72 2888 
L 72 3347 
L 525 3347 
L 525 4281 
z
" id="Helvetica-74" transform="scale(0.015625)"/>
       <path d="M 672 3347 
L 1316 709 
L 1969 3347 
L 2600 3347 
L 3256 725 
L 3941 3347 
L 4503 3347 
L 3531 0 
L 2947 0 
L 2266 2591 
L 1606 0 
L 1022 0 
L 56 3347 
L 672 3347 
z
" id="Helvetica-77" transform="scale(0.015625)"/>
       <path d="M 1741 363 
Q 2300 363 2508 786 
Q 2716 1209 2716 1728 
Q 2716 2197 2566 2491 
Q 2328 2953 1747 2953 
Q 1231 2953 997 2559 
Q 763 2166 763 1609 
Q 763 1075 997 719 
Q 1231 363 1741 363 
z
M 1763 3444 
Q 2409 3444 2856 3012 
Q 3303 2581 3303 1744 
Q 3303 934 2909 406 
Q 2516 -122 1688 -122 
Q 997 -122 590 345 
Q 184 813 184 1600 
Q 184 2444 612 2944 
Q 1041 3444 1763 3444 
z
M 1744 3428 
L 1744 3428 
z
" id="Helvetica-6f" transform="scale(0.015625)"/>
       <path d="M 428 3347 
L 963 3347 
L 963 2769 
Q 1028 2938 1284 3180 
Q 1541 3422 1875 3422 
Q 1891 3422 1928 3419 
Q 1966 3416 2056 3406 
L 2056 2813 
Q 2006 2822 1964 2825 
Q 1922 2828 1872 2828 
Q 1447 2828 1219 2554 
Q 991 2281 991 1925 
L 991 0 
L 428 0 
L 428 3347 
z
" id="Helvetica-72" transform="scale(0.015625)"/>
       <path d="M 400 4591 
L 941 4591 
L 941 1925 
L 2384 3347 
L 3103 3347 
L 1822 2094 
L 3175 0 
L 2456 0 
L 1413 1688 
L 941 1256 
L 941 0 
L 400 0 
L 400 4591 
z
" id="Helvetica-6b" transform="scale(0.015625)"/>
       <path id="Helvetica-20" transform="scale(0.015625)"/>
       <path d="M 413 3347 
L 969 3347 
L 969 2872 
Q 1169 3119 1331 3231 
Q 1609 3422 1963 3422 
Q 2363 3422 2606 3225 
Q 2744 3113 2856 2894 
Q 3044 3163 3297 3292 
Q 3550 3422 3866 3422 
Q 4541 3422 4784 2934 
Q 4916 2672 4916 2228 
L 4916 0 
L 4331 0 
L 4331 2325 
Q 4331 2659 4164 2784 
Q 3997 2909 3756 2909 
Q 3425 2909 3186 2687 
Q 2947 2466 2947 1947 
L 2947 0 
L 2375 0 
L 2375 2184 
Q 2375 2525 2294 2681 
Q 2166 2916 1816 2916 
Q 1497 2916 1236 2669 
Q 975 2422 975 1775 
L 975 0 
L 413 0 
L 413 3347 
z
" id="Helvetica-6d" transform="scale(0.015625)"/>
       <path d="M 413 3331 
L 984 3331 
L 984 0 
L 413 0 
L 413 3331 
z
M 413 4591 
L 984 4591 
L 984 3953 
L 413 3953 
L 413 4591 
z
" id="Helvetica-69" transform="scale(0.015625)"/>
       <path d="M 1703 3444 
Q 2269 3444 2623 3169 
Q 2978 2894 3050 2222 
L 2503 2222 
Q 2453 2531 2275 2736 
Q 2097 2941 1703 2941 
Q 1166 2941 934 2416 
Q 784 2075 784 1575 
Q 784 1072 996 728 
Q 1209 384 1666 384 
Q 2016 384 2220 598 
Q 2425 813 2503 1184 
L 3050 1184 
Q 2956 519 2581 211 
Q 2206 -97 1622 -97 
Q 966 -97 575 383 
Q 184 863 184 1581 
Q 184 2463 612 2953 
Q 1041 3444 1703 3444 
z
M 1616 3428 
L 1616 3428 
z
" id="Helvetica-63" transform="scale(0.015625)"/>
       <path d="M 613 3169 
L 613 3600 
Q 1222 3659 1462 3798 
Q 1703 3938 1822 4456 
L 2266 4456 
L 2266 0 
L 1666 0 
L 1666 3169 
L 613 3169 
z
" id="Helvetica-31" transform="scale(0.015625)"/>
      </defs>
      <use xlink:href="#Helvetica-4e"/>
      <use x="72.216797" xlink:href="#Helvetica-65"/>
      <use x="127.832031" xlink:href="#Helvetica-74"/>
      <use x="155.615234" xlink:href="#Helvetica-77"/>
      <use x="227.832031" xlink:href="#Helvetica-6f"/>
      <use x="283.447266" xlink:href="#Helvetica-72"/>
      <use x="316.748047" xlink:href="#Helvetica-6b"/>
      <use x="366.748047" xlink:href="#Helvetica-20"/>
      <use x="394.53125" xlink:href="#Helvetica-6d"/>
      <use x="477.832031" xlink:href="#Helvetica-65"/>
      <use x="533.447266" xlink:href="#Helvetica-74"/>
      <use x="561.230469" xlink:href="#Helvetica-72"/>
      <use x="594.53125" xlink:href="#Helvetica-69"/>
      <use x="616.748047" xlink:href="#Helvetica-63"/>
      <use x="666.748047" xlink:href="#Helvetica-20"/>
      <use x="694.53125" xlink:href="#Helvetica-31"/>
     </g>
    </g>
   </g>
   <g id="matplotlib.axis_2">
    <g id="text_2">
     <!-- Network metric 2 -->
     <g transform="translate(15.090781 157.176016)rotate(-90)scale(0.11 -0.11)">
      <defs>
       <path d="M 200 0 
Q 231 578 439 1006 
Q 647 1434 1250 1784 
L 1850 2131 
Q 2253 2366 2416 2531 
Q 2672 2791 2672 3125 
Q 2672 3516 2437 3745 
Q 2203 3975 1813 3975 
Q 1234 3975 1013 3538 
Q 894 3303 881 2888 
L 309 2888 
Q 319 3472 525 3841 
Q 891 4491 1816 4491 
Q 2584 4491 2939 4075 
Q 3294 3659 3294 3150 
Q 3294 2613 2916 2231 
Q 2697 2009 2131 1694 
L 1703 1456 
Q 1397 1288 1222 1134 
Q 909 863 828 531 
L 3272 531 
L 3272 0 
L 200 0 
z
" id="Helvetica-32" transform="scale(0.015625)"/>
      </defs>
      <use xlink:href="#Helvetica-4e"/>
      <use x="72.216797" xlink:href="#Helvetica-65"/>
      <use x="127.832031" xlink:href="#Helvetica-74"/>
      <use x="155.615234" xlink:href="#Helvetica-77"/>
      <use x="227.832031" xlink:href="#Helvetica-6f"/>
      <use x="283.447266" xlink:href="#Helvetica-72"/>
      <use x="316.748047" xlink:href="#Helvetica-6b"/>
      <use x="366.748047" xlink:href="#Helvetica-20"/>
      <use x="394.53125" xlink:href="#Helvetica-6d"/>
      <use x="477.832031" xlink:href="#Helvetica-65"/>
      <use x="533.447266" xlink:href="#Helvetica-74"/>
      <use x="561.230469" xlink:href="#Helvetica-72"/>
      <use x="594.53125" xlink:href="#Helvetica-69"/>
      <use x="616.748047" xlink:href="#Helvetica-63"/>
      <use x="666.748047" xlink:href="#Helvetica-20"/>
      <use x="694.53125" xlink:href="#Helvetica-32"/>
     </g>
    </g>
   </g>
   <g id="line2d_1">
    <path clip-path="url(#p1a4fc3668c)" d="M 21.383594 224.64 
L 23.638139 222.443636 
L 25.892685 220.247273 
L 28.14723 218.050909 
L 30.401776 215.854545 
L 32.656321 213.658182 
L 34.910866 211.461818 
L 37.165412 209.265455 
L 39.419957 207.069091 
L 41.674503 204.872727 
L 43.929048 202.676364 
L 46.183594 200.48 
L 48.438139 198.283636 
L 50.692685 196.087273 
L 52.94723 193.890909 
L 55.201776 191.694545 
L 57.456321 189.498182 
L 59.710866 187.301818 
L 61.965412 185.105455 
L 64.219957 182.909091 
L 66.474503 180.712727 
L 68.729048 178.516364 
L 70.983594 176.32 
L 73.238139 174.123636 
L 75.492685 171.927273 
L 77.74723 169.730909 
L 80.001776 167.534545 
L 82.256321 165.338182 
L 84.510866 163.141818 
L 86.765412 160.945455 
L 89.019957 158.749091 
L 91.274503 156.552727 
L 93.529048 154.356364 
L 95.783594 152.16 
L 98.038139 149.963636 
L 100.292685 147.767273 
L 102.54723 145.570909 
L 104.801776 143.374545 
L 107.056321 141.178182 
L 109.310866 138.981818 
L 111.565412 136.785455 
L 113.819957 134.589091 
L 116.074503 132.392727 
L 118.329048 130.196364 
L 120.583594 128 
L 122.838139 125.803636 
L 125.092685 123.607273 
L 127.34723 121.410909 
L 129.601776 119.214545 
L 131.856321 117.018182 
L 134.110866 114.821818 
L 136.365412 112.625455 
L 138.619957 110.429091 
L 140.874503 108.232727 
L 143.129048 106.036364 
L 145.383594 103.84 
L 147.638139 101.643636 
L 149.892685 99.447273 
L 152.14723 97.250909 
L 154.401776 95.054545 
L 156.656321 92.858182 
L 158.910866 90.661818 
L 161.165412 88.465455 
L 163.419957 86.269091 
L 165.674503 84.072727 
L 167.929048 81.876364 
L 170.183594 79.68 
L 172.438139 77.483636 
L 174.692685 75.287273 
L 176.94723 73.090909 
L 179.201776 70.894545 
L 181.456321 68.698182 
L 183.710866 66.501818 
L 185.965412 64.305455 
L 188.219957 62.109091 
L 190.474503 59.912727 
L 192.729048 57.716364 
L 194.983594 55.52 
L 197.238139 53.323636 
L 199.492685 51.127273 
L 201.74723 48.930909 
L 204.001776 46.734545 
L 206.256321 44.538182 
L 208.510866 42.341818 
L 210.765412 40.145455 
L 213.019957 37.949091 
L 215.274503 35.752727 
L 217.529048 33.556364 
L 219.783594 31.36 
L 222.038139 29.163636 
L 224.292685 26.967273 
L 226.54723 24.770909 
L 228.801776 22.574545 
L 231.056321 20.378182 
L 233.310866 18.181818 
L 235.565412 15.985455 
L 237.819957 13.789091 
L 240.074503 11.592727 
L 242.329048 9.396364 
L 244.583594 7.2 
" style="fill:none;stroke:#000000;stroke-dasharray:5.55,2.4;stroke-dashoffset:0;stroke-width:1.5;"/>
   </g>
   <g id="patch_3">
    <path d="M 21.383594 224.64 
L 21.383594 7.2 
" style="fill:none;stroke:#000000;stroke-linecap:square;stroke-linejoin:miter;stroke-width:1.2;"/>
   </g>
   <g id="patch_4">
    <path d="M 21.383594 224.64 
L 244.583594 224.64 
" style="fill:none;stroke:#000000;stroke-linecap:square;stroke-linejoin:miter;stroke-width:1.2;"/>
   </g>
   <g id="text_3">
    <!-- KO -->
    <g style="fill:#0000ff;" transform="translate(88.343594 94.176)scale(0.1 -0.1)">
     <defs>
      <path d="M 488 4591 
L 1094 4591 
L 1094 2353 
L 3331 4591 
L 4191 4591 
L 2281 2741 
L 4244 0 
L 3434 0 
L 1828 2303 
L 1094 1600 
L 1094 0 
L 488 0 
L 488 4591 
z
" id="Helvetica-4b" transform="scale(0.015625)"/>
      <path d="M 2469 4716 
Q 3684 4716 4269 3934 
Q 4725 3325 4725 2375 
Q 4725 1347 4203 666 
Q 3591 -134 2456 -134 
Q 1397 -134 791 566 
Q 250 1241 250 2272 
Q 250 3203 713 3866 
Q 1306 4716 2469 4716 
z
M 2531 422 
Q 3353 422 3720 1011 
Q 4088 1600 4088 2366 
Q 4088 3175 3664 3669 
Q 3241 4163 2506 4163 
Q 1794 4163 1344 3673 
Q 894 3184 894 2231 
Q 894 1469 1280 945 
Q 1666 422 2531 422 
z
M 2488 4716 
L 2488 4716 
z
" id="Helvetica-4f" transform="scale(0.015625)"/>
     </defs>
     <use xlink:href="#Helvetica-4b"/>
     <use x="66.699219" xlink:href="#Helvetica-4f"/>
    </g>
   </g>
   <g id="text_4">
    <!-- WT -->
    <g style="fill:#ff0000;" transform="translate(155.303594 137.664)scale(0.1 -0.1)">
     <defs>
      <path d="M 791 4591 
L 1656 856 
L 2694 4591 
L 3369 4591 
L 4406 856 
L 5272 4591 
L 5953 4591 
L 4747 0 
L 4094 0 
L 3034 3806 
L 1969 0 
L 1316 0 
L 116 4591 
L 791 4591 
z
" id="Helvetica-57" transform="scale(0.015625)"/>
      <path d="M 3828 4591 
L 3828 4044 
L 2281 4044 
L 2281 0 
L 1650 0 
L 1650 4044 
L 103 4044 
L 103 4591 
L 3828 4591 
z
" id="Helvetica-54" transform="scale(0.015625)"/>
     </defs>
     <use xlink:href="#Helvetica-57"/>
     <use x="94.384766" xlink:href="#Helvetica-54"/>
    </g>
   </g>
  </g>
 </g>
 <defs>
  <clipPath id="p1a4fc3668c">
   <rect height="217.44" width="223.2" x="21.383594" y="7.2"/>
  </clipPath>
 </defs>
</svg>
