<?xml version="1.0" encoding="utf-8" standalone="no"?>
<!DOCTYPE svg PUBLIC "-//W3C//DTD SVG 1.1//EN"
  "http://www.w3.org/Graphics/SVG/1.1/DTD/svg11.dtd">
<svg height="268.882969pt" version="1.1" viewBox="0 0 280.213594 268.882969" width="280.213594pt" xmlns="http://www.w3.org/2000/svg" xmlns:xlink="http://www.w3.org/1999/xlink">
 <metadata>
  <rdf:RDF xmlns:cc="http://creativecommons.org/ns#" xmlns:dc="http://purl.org/dc/elements/1.1/" xmlns:rdf="http://www.w3.org/1999/02/22-rdf-syntax-ns#">
   <cc:Work>
    <dc:type rdf:resource="http://purl.org/dc/dcmitype/StillImage"/>
    <dc:date>2023-10-05T13:36:35.824267</dc:date>
    <dc:format>image/svg+xml</dc:format>
    <dc:creator>
     <cc:Agent>
      <dc:title>Matplotlib v3.4.3, https://matplotlib.org/</dc:title>
     </cc:Agent>
    </dc:creator>
   </cc:Work>
  </rdf:RDF>
 </metadata>
 <defs>
  <style type="text/css">*{stroke-linecap:butt;stroke-linejoin:round;}</style>
 </defs>
 <g id="figure_1">
  <g id="patch_1">
   <path d="M 0 268.882969 
L 280.213594 268.882969 
L 280.213594 0 
L 0 0 
z
" style="fill:none;"/>
  </g>
  <g id="axes_1">
   <g id="patch_2">
    <path d="M 49.813594 224.64 
L 273.013594 224.64 
L 273.013594 7.2 
L 49.813594 7.2 
z
" style="fill:none;"/>
   </g>
   <g id="PathCollection_1">
    <defs>
     <path d="M 0 3.5 
C 0.928211 3.5 1.81853 3.131218 2.474874 2.474874 
C 3.131218 1.81853 3.5 0.928211 3.5 0 
C 3.5 -0.928211 3.131218 -1.81853 2.474874 -2.474874 
C 1.81853 -3.131218 0.928211 -3.5 0 -3.5 
C -0.928211 -3.5 -1.81853 -3.131218 -2.474874 -2.474874 
C -3.131218 -1.81853 -3.5 -0.928211 -3.5 0 
C -3.5 0.928211 -3.131218 1.81853 -2.474874 2.474874 
C -1.81853 3.131218 -0.928211 3.5 0 3.5 
z
" id="m4209336854" style="stroke:#ff0000;"/>
    </defs>
    <g clip-path="url(#p4b45418ddb)">
     <use style="fill:#ff0000;stroke:#ff0000;" x="59.959048" xlink:href="#m4209336854" y="176.104286"/>
     <use style="fill:#ff0000;stroke:#ff0000;" x="110.686321" xlink:href="#m4209336854" y="111.39"/>
     <use style="fill:#ff0000;stroke:#ff0000;" x="161.413594" xlink:href="#m4209336854" y="79.032857"/>
     <use style="fill:#ff0000;stroke:#ff0000;" x="212.140866" xlink:href="#m4209336854" y="62.854286"/>
     <use style="fill:#ff0000;stroke:#ff0000;" x="262.868139" xlink:href="#m4209336854" y="30.497143"/>
    </g>
   </g>
   <g id="PathCollection_2">
    <defs>
     <path d="M 0 3.5 
C 0.928211 3.5 1.81853 3.131218 2.474874 2.474874 
C 3.131218 1.81853 3.5 0.928211 3.5 0 
C 3.5 -0.928211 3.131218 -1.81853 2.474874 -2.474874 
C 1.81853 -3.131218 0.928211 -3.5 0 -3.5 
C -0.928211 -3.5 -1.81853 -3.131218 -2.474874 -2.474874 
C -3.131218 -1.81853 -3.5 -0.928211 -3.5 0 
C -3.5 0.928211 -3.131218 1.81853 -2.474874 2.474874 
C -1.81853 3.131218 -0.928211 3.5 0 3.5 
z
" id="m0d5a2e3f13" style="stroke:#0000ff;"/>
    </defs>
    <g clip-path="url(#p4b45418ddb)">
     <use style="fill:#0000ff;stroke:#0000ff;" x="59.959048" xlink:href="#m0d5a2e3f13" y="176.104286"/>
     <use style="fill:#0000ff;stroke:#0000ff;" x="110.686321" xlink:href="#m0d5a2e3f13" y="119.479286"/>
     <use style="fill:#0000ff;stroke:#0000ff;" x="161.413594" xlink:href="#m0d5a2e3f13" y="95.211429"/>
     <use style="fill:#0000ff;stroke:#0000ff;" x="212.140866" xlink:href="#m0d5a2e3f13" y="111.39"/>
     <use style="fill:#0000ff;stroke:#0000ff;" x="262.868139" xlink:href="#m0d5a2e3f13" y="127.568571"/>
    </g>
   </g>
   <g id="matplotlib.axis_1">
    <g id="xtick_1">
     <g id="line2d_1">
      <defs>
       <path d="M 0 0 
L 0 8.25 
" id="m4db3557b1a" style="stroke:#000000;stroke-width:1.4;"/>
      </defs>
      <g>
       <use style="stroke:#000000;stroke-width:1.4;" x="59.959048" xlink:href="#m4db3557b1a" y="224.64"/>
      </g>
     </g>
     <g id="text_1">
      <!-- 7 -->
      <g transform="translate(56.622486 244.998125)scale(0.12 -0.12)">
       <defs>
        <path d="M 3347 4400 
L 3347 3909 
Q 3131 3700 2773 3181 
Q 2416 2663 2141 2063 
Q 1869 1478 1728 997 
Q 1638 688 1494 0 
L 872 0 
Q 1084 1281 1809 2550 
Q 2238 3294 2709 3834 
L 234 3834 
L 234 4400 
L 3347 4400 
z
" id="Helvetica-37" transform="scale(0.015625)"/>
       </defs>
       <use xlink:href="#Helvetica-37"/>
      </g>
     </g>
    </g>
    <g id="xtick_2">
     <g id="line2d_2">
      <g>
       <use style="stroke:#000000;stroke-width:1.4;" x="110.686321" xlink:href="#m4db3557b1a" y="224.64"/>
      </g>
     </g>
     <g id="text_2">
      <!-- 14 -->
      <g transform="translate(104.013196 244.998125)scale(0.12 -0.12)">
       <defs>
        <path d="M 613 3169 
L 613 3600 
Q 1222 3659 1462 3798 
Q 1703 3938 1822 4456 
L 2266 4456 
L 2266 0 
L 1666 0 
L 1666 3169 
L 613 3169 
z
" id="Helvetica-31" transform="scale(0.015625)"/>
        <path d="M 2116 1584 
L 2116 3613 
L 681 1584 
L 2116 1584 
z
M 2125 0 
L 2125 1094 
L 163 1094 
L 163 1644 
L 2213 4488 
L 2688 4488 
L 2688 1584 
L 3347 1584 
L 3347 1094 
L 2688 1094 
L 2688 0 
L 2125 0 
z
" id="Helvetica-34" transform="scale(0.015625)"/>
       </defs>
       <use xlink:href="#Helvetica-31"/>
       <use x="55.615234" xlink:href="#Helvetica-34"/>
      </g>
     </g>
    </g>
    <g id="xtick_3">
     <g id="line2d_3">
      <g>
       <use style="stroke:#000000;stroke-width:1.4;" x="161.413594" xlink:href="#m4db3557b1a" y="224.64"/>
      </g>
     </g>
     <g id="text_3">
      <!-- 21 -->
      <g transform="translate(154.740469 244.998125)scale(0.12 -0.12)">
       <defs>
        <path d="M 200 0 
Q 231 578 439 1006 
Q 647 1434 1250 1784 
L 1850 2131 
Q 2253 2366 2416 2531 
Q 2672 2791 2672 3125 
Q 2672 3516 2437 3745 
Q 2203 3975 1813 3975 
Q 1234 3975 1013 3538 
Q 894 3303 881 2888 
L 309 2888 
Q 319 3472 525 3841 
Q 891 4491 1816 4491 
Q 2584 4491 2939 4075 
Q 3294 3659 3294 3150 
Q 3294 2613 2916 2231 
Q 2697 2009 2131 1694 
L 1703 1456 
Q 1397 1288 1222 1134 
Q 909 863 828 531 
L 3272 531 
L 3272 0 
L 200 0 
z
" id="Helvetica-32" transform="scale(0.015625)"/>
       </defs>
       <use xlink:href="#Helvetica-32"/>
       <use x="55.615234" xlink:href="#Helvetica-31"/>
      </g>
     </g>
    </g>
    <g id="xtick_4">
     <g id="line2d_4">
      <g>
       <use style="stroke:#000000;stroke-width:1.4;" x="212.140866" xlink:href="#m4db3557b1a" y="224.64"/>
      </g>
     </g>
     <g id="text_4">
      <!-- 28 -->
      <g transform="translate(205.467741 244.998125)scale(0.12 -0.12)">
       <defs>
        <path d="M 1741 2600 
Q 2113 2600 2322 2808 
Q 2531 3016 2531 3303 
Q 2531 3553 2331 3762 
Q 2131 3972 1722 3972 
Q 1316 3972 1134 3762 
Q 953 3553 953 3272 
Q 953 2956 1187 2778 
Q 1422 2600 1741 2600 
z
M 1775 384 
Q 2166 384 2423 595 
Q 2681 806 2681 1225 
Q 2681 1659 2415 1884 
Q 2150 2109 1734 2109 
Q 1331 2109 1076 1879 
Q 822 1650 822 1244 
Q 822 894 1055 639 
Q 1288 384 1775 384 
z
M 975 2384 
Q 741 2484 609 2619 
Q 363 2869 363 3269 
Q 363 3769 725 4128 
Q 1088 4488 1753 4488 
Q 2397 4488 2762 4148 
Q 3128 3809 3128 3356 
Q 3128 2938 2916 2678 
Q 2797 2531 2547 2391 
Q 2825 2263 2984 2097 
Q 3281 1784 3281 1284 
Q 3281 694 2884 283 
Q 2488 -128 1763 -128 
Q 1109 -128 657 226 
Q 206 581 206 1256 
Q 206 1653 400 1942 
Q 594 2231 975 2384 
z
" id="Helvetica-38" transform="scale(0.015625)"/>
       </defs>
       <use xlink:href="#Helvetica-32"/>
       <use x="55.615234" xlink:href="#Helvetica-38"/>
      </g>
     </g>
    </g>
    <g id="xtick_5">
     <g id="line2d_5">
      <g>
       <use style="stroke:#000000;stroke-width:1.4;" x="262.868139" xlink:href="#m4db3557b1a" y="224.64"/>
      </g>
     </g>
     <g id="text_5">
      <!-- 35 -->
      <g transform="translate(256.195014 244.998125)scale(0.12 -0.12)">
       <defs>
        <path d="M 1663 -122 
Q 869 -122 511 314 
Q 153 750 153 1375 
L 741 1375 
Q 778 941 903 744 
Q 1122 391 1694 391 
Q 2138 391 2406 628 
Q 2675 866 2675 1241 
Q 2675 1703 2392 1887 
Q 2109 2072 1606 2072 
Q 1550 2072 1492 2070 
Q 1434 2069 1375 2066 
L 1375 2563 
Q 1463 2553 1522 2550 
Q 1581 2547 1650 2547 
Q 1966 2547 2169 2647 
Q 2525 2822 2525 3272 
Q 2525 3606 2287 3787 
Q 2050 3969 1734 3969 
Q 1172 3969 956 3594 
Q 838 3388 822 3006 
L 266 3006 
Q 266 3506 466 3856 
Q 809 4481 1675 4481 
Q 2359 4481 2734 4176 
Q 3109 3872 3109 3294 
Q 3109 2881 2888 2625 
Q 2750 2466 2531 2375 
Q 2884 2278 3082 2001 
Q 3281 1725 3281 1325 
Q 3281 684 2859 281 
Q 2438 -122 1663 -122 
z
" id="Helvetica-33" transform="scale(0.015625)"/>
        <path d="M 791 1141 
Q 847 659 1238 475 
Q 1438 381 1700 381 
Q 2200 381 2440 700 
Q 2681 1019 2681 1406 
Q 2681 1875 2395 2131 
Q 2109 2388 1709 2388 
Q 1419 2388 1211 2275 
Q 1003 2163 856 1963 
L 369 1991 
L 709 4400 
L 3034 4400 
L 3034 3856 
L 1131 3856 
L 941 2613 
Q 1097 2731 1238 2791 
Q 1488 2894 1816 2894 
Q 2431 2894 2859 2497 
Q 3288 2100 3288 1491 
Q 3288 856 2895 371 
Q 2503 -113 1644 -113 
Q 1097 -113 676 195 
Q 256 503 206 1141 
L 791 1141 
z
" id="Helvetica-35" transform="scale(0.015625)"/>
       </defs>
       <use xlink:href="#Helvetica-33"/>
       <use x="55.615234" xlink:href="#Helvetica-35"/>
      </g>
     </g>
    </g>
    <g id="text_6">
     <!-- DIV -->
     <g transform="translate(152.244922 259.390156)scale(0.11 -0.11)">
      <defs>
       <path d="M 2250 531 
Q 2566 531 2769 597 
Q 3131 719 3363 1066 
Q 3547 1344 3628 1778 
Q 3675 2038 3675 2259 
Q 3675 3113 3336 3584 
Q 2997 4056 2244 4056 
L 1141 4056 
L 1141 531 
L 2250 531 
z
M 516 4591 
L 2375 4591 
Q 3322 4591 3844 3919 
Q 4309 3313 4309 2366 
Q 4309 1634 4034 1044 
Q 3550 0 2369 0 
L 516 0 
L 516 4591 
z
" id="Helvetica-44" transform="scale(0.015625)"/>
       <path d="M 628 4591 
L 1256 4591 
L 1256 0 
L 628 0 
L 628 4591 
z
" id="Helvetica-49" transform="scale(0.015625)"/>
       <path d="M 850 4591 
L 2169 681 
L 3472 4591 
L 4169 4591 
L 2494 0 
L 1834 0 
L 163 4591 
L 850 4591 
z
" id="Helvetica-56" transform="scale(0.015625)"/>
      </defs>
      <use xlink:href="#Helvetica-44"/>
      <use x="72.216797" xlink:href="#Helvetica-49"/>
      <use x="100" xlink:href="#Helvetica-56"/>
     </g>
    </g>
   </g>
   <g id="matplotlib.axis_2">
    <g id="ytick_1">
     <g id="line2d_6">
      <defs>
       <path d="M 0 0 
L -8.25 0 
" id="m706d82fb0a" style="stroke:#000000;stroke-width:1.4;"/>
      </defs>
      <g>
       <use style="stroke:#000000;stroke-width:1.4;" x="49.813594" xlink:href="#m706d82fb0a" y="224.64"/>
      </g>
     </g>
     <g id="text_7">
      <!-- 0.0 -->
      <g transform="translate(21.383594 228.944062)scale(0.12 -0.12)">
       <defs>
        <path d="M 1731 4475 
Q 2600 4475 2988 3759 
Q 3288 3206 3288 2244 
Q 3288 1331 3016 734 
Q 2622 -122 1728 -122 
Q 922 -122 528 578 
Q 200 1163 200 2147 
Q 200 2909 397 3456 
Q 766 4475 1731 4475 
z
M 1725 391 
Q 2163 391 2422 778 
Q 2681 1166 2681 2222 
Q 2681 2984 2493 3476 
Q 2306 3969 1766 3969 
Q 1269 3969 1039 3501 
Q 809 3034 809 2125 
Q 809 1441 956 1025 
Q 1181 391 1725 391 
z
" id="Helvetica-30" transform="scale(0.015625)"/>
        <path d="M 547 681 
L 1200 681 
L 1200 0 
L 547 0 
L 547 681 
z
" id="Helvetica-2e" transform="scale(0.015625)"/>
       </defs>
       <use xlink:href="#Helvetica-30"/>
       <use x="55.615234" xlink:href="#Helvetica-2e"/>
       <use x="83.398438" xlink:href="#Helvetica-30"/>
      </g>
     </g>
    </g>
    <g id="ytick_2">
     <g id="line2d_7">
      <g>
       <use style="stroke:#000000;stroke-width:1.4;" x="49.813594" xlink:href="#m706d82fb0a" y="185.811429"/>
      </g>
     </g>
     <g id="text_8">
      <!-- 0.2 -->
      <g transform="translate(21.383594 190.115491)scale(0.12 -0.12)">
       <use xlink:href="#Helvetica-30"/>
       <use x="55.615234" xlink:href="#Helvetica-2e"/>
       <use x="83.398438" xlink:href="#Helvetica-32"/>
      </g>
     </g>
    </g>
    <g id="ytick_3">
     <g id="line2d_8">
      <g>
       <use style="stroke:#000000;stroke-width:1.4;" x="49.813594" xlink:href="#m706d82fb0a" y="146.982857"/>
      </g>
     </g>
     <g id="text_9">
      <!-- 0.4 -->
      <g transform="translate(21.383594 151.28692)scale(0.12 -0.12)">
       <use xlink:href="#Helvetica-30"/>
       <use x="55.615234" xlink:href="#Helvetica-2e"/>
       <use x="83.398438" xlink:href="#Helvetica-34"/>
      </g>
     </g>
    </g>
    <g id="ytick_4">
     <g id="line2d_9">
      <g>
       <use style="stroke:#000000;stroke-width:1.4;" x="49.813594" xlink:href="#m706d82fb0a" y="108.154286"/>
      </g>
     </g>
     <g id="text_10">
      <!-- 0.6 -->
      <g transform="translate(21.383594 112.458348)scale(0.12 -0.12)">
       <defs>
        <path d="M 1872 4494 
Q 2622 4494 2917 4105 
Q 3213 3716 3213 3303 
L 2656 3303 
Q 2606 3569 2497 3719 
Q 2294 4000 1881 4000 
Q 1409 4000 1131 3564 
Q 853 3128 822 2316 
Q 1016 2600 1309 2741 
Q 1578 2866 1909 2866 
Q 2472 2866 2890 2506 
Q 3309 2147 3309 1434 
Q 3309 825 2912 354 
Q 2516 -116 1781 -116 
Q 1153 -116 697 361 
Q 241 838 241 1966 
Q 241 2800 444 3381 
Q 834 4494 1872 4494 
z
M 1831 384 
Q 2275 384 2495 682 
Q 2716 981 2716 1388 
Q 2716 1731 2519 2042 
Q 2322 2353 1803 2353 
Q 1441 2353 1167 2112 
Q 894 1872 894 1388 
Q 894 963 1142 673 
Q 1391 384 1831 384 
z
" id="Helvetica-36" transform="scale(0.015625)"/>
       </defs>
       <use xlink:href="#Helvetica-30"/>
       <use x="55.615234" xlink:href="#Helvetica-2e"/>
       <use x="83.398438" xlink:href="#Helvetica-36"/>
      </g>
     </g>
    </g>
    <g id="ytick_5">
     <g id="line2d_10">
      <g>
       <use style="stroke:#000000;stroke-width:1.4;" x="49.813594" xlink:href="#m706d82fb0a" y="69.325714"/>
      </g>
     </g>
     <g id="text_11">
      <!-- 0.8 -->
      <g transform="translate(21.383594 73.629777)scale(0.12 -0.12)">
       <use xlink:href="#Helvetica-30"/>
       <use x="55.615234" xlink:href="#Helvetica-2e"/>
       <use x="83.398438" xlink:href="#Helvetica-38"/>
      </g>
     </g>
    </g>
    <g id="ytick_6">
     <g id="line2d_11">
      <g>
       <use style="stroke:#000000;stroke-width:1.4;" x="49.813594" xlink:href="#m706d82fb0a" y="30.497143"/>
      </g>
     </g>
     <g id="text_12">
      <!-- 1.0 -->
      <g transform="translate(21.383594 34.801205)scale(0.12 -0.12)">
       <use xlink:href="#Helvetica-31"/>
       <use x="55.615234" xlink:href="#Helvetica-2e"/>
       <use x="83.398438" xlink:href="#Helvetica-30"/>
      </g>
     </g>
    </g>
    <g id="text_13">
     <!-- Network metric -->
     <g transform="translate(15.090781 152.589531)rotate(-90)scale(0.11 -0.11)">
      <defs>
       <path d="M 488 4591 
L 1222 4591 
L 3541 872 
L 3541 4591 
L 4131 4591 
L 4131 0 
L 3434 0 
L 1081 3716 
L 1081 0 
L 488 0 
L 488 4591 
z
M 2269 4591 
L 2269 4591 
z
" id="Helvetica-4e" transform="scale(0.015625)"/>
       <path d="M 1806 3422 
Q 2163 3422 2497 3255 
Q 2831 3088 3006 2822 
Q 3175 2569 3231 2231 
Q 3281 2000 3281 1494 
L 828 1494 
Q 844 984 1069 676 
Q 1294 369 1766 369 
Q 2206 369 2469 659 
Q 2619 828 2681 1050 
L 3234 1050 
Q 3213 866 3089 639 
Q 2966 413 2813 269 
Q 2556 19 2178 -69 
Q 1975 -119 1719 -119 
Q 1094 -119 659 336 
Q 225 791 225 1609 
Q 225 2416 662 2919 
Q 1100 3422 1806 3422 
z
M 2703 1941 
Q 2669 2306 2544 2525 
Q 2313 2931 1772 2931 
Q 1384 2931 1121 2651 
Q 859 2372 844 1941 
L 2703 1941 
z
M 1753 3428 
L 1753 3428 
z
" id="Helvetica-65" transform="scale(0.015625)"/>
       <path d="M 525 4281 
L 1094 4281 
L 1094 3347 
L 1628 3347 
L 1628 2888 
L 1094 2888 
L 1094 703 
Q 1094 528 1213 469 
Q 1278 434 1431 434 
Q 1472 434 1519 436 
Q 1566 438 1628 444 
L 1628 0 
Q 1531 -28 1426 -40 
Q 1322 -53 1200 -53 
Q 806 -53 665 148 
Q 525 350 525 672 
L 525 2888 
L 72 2888 
L 72 3347 
L 525 3347 
L 525 4281 
z
" id="Helvetica-74" transform="scale(0.015625)"/>
       <path d="M 672 3347 
L 1316 709 
L 1969 3347 
L 2600 3347 
L 3256 725 
L 3941 3347 
L 4503 3347 
L 3531 0 
L 2947 0 
L 2266 2591 
L 1606 0 
L 1022 0 
L 56 3347 
L 672 3347 
z
" id="Helvetica-77" transform="scale(0.015625)"/>
       <path d="M 1741 363 
Q 2300 363 2508 786 
Q 2716 1209 2716 1728 
Q 2716 2197 2566 2491 
Q 2328 2953 1747 2953 
Q 1231 2953 997 2559 
Q 763 2166 763 1609 
Q 763 1075 997 719 
Q 1231 363 1741 363 
z
M 1763 3444 
Q 2409 3444 2856 3012 
Q 3303 2581 3303 1744 
Q 3303 934 2909 406 
Q 2516 -122 1688 -122 
Q 997 -122 590 345 
Q 184 813 184 1600 
Q 184 2444 612 2944 
Q 1041 3444 1763 3444 
z
M 1744 3428 
L 1744 3428 
z
" id="Helvetica-6f" transform="scale(0.015625)"/>
       <path d="M 428 3347 
L 963 3347 
L 963 2769 
Q 1028 2938 1284 3180 
Q 1541 3422 1875 3422 
Q 1891 3422 1928 3419 
Q 1966 3416 2056 3406 
L 2056 2813 
Q 2006 2822 1964 2825 
Q 1922 2828 1872 2828 
Q 1447 2828 1219 2554 
Q 991 2281 991 1925 
L 991 0 
L 428 0 
L 428 3347 
z
" id="Helvetica-72" transform="scale(0.015625)"/>
       <path d="M 400 4591 
L 941 4591 
L 941 1925 
L 2384 3347 
L 3103 3347 
L 1822 2094 
L 3175 0 
L 2456 0 
L 1413 1688 
L 941 1256 
L 941 0 
L 400 0 
L 400 4591 
z
" id="Helvetica-6b" transform="scale(0.015625)"/>
       <path id="Helvetica-20" transform="scale(0.015625)"/>
       <path d="M 413 3347 
L 969 3347 
L 969 2872 
Q 1169 3119 1331 3231 
Q 1609 3422 1963 3422 
Q 2363 3422 2606 3225 
Q 2744 3113 2856 2894 
Q 3044 3163 3297 3292 
Q 3550 3422 3866 3422 
Q 4541 3422 4784 2934 
Q 4916 2672 4916 2228 
L 4916 0 
L 4331 0 
L 4331 2325 
Q 4331 2659 4164 2784 
Q 3997 2909 3756 2909 
Q 3425 2909 3186 2687 
Q 2947 2466 2947 1947 
L 2947 0 
L 2375 0 
L 2375 2184 
Q 2375 2525 2294 2681 
Q 2166 2916 1816 2916 
Q 1497 2916 1236 2669 
Q 975 2422 975 1775 
L 975 0 
L 413 0 
L 413 3347 
z
" id="Helvetica-6d" transform="scale(0.015625)"/>
       <path d="M 413 3331 
L 984 3331 
L 984 0 
L 413 0 
L 413 3331 
z
M 413 4591 
L 984 4591 
L 984 3953 
L 413 3953 
L 413 4591 
z
" id="Helvetica-69" transform="scale(0.015625)"/>
       <path d="M 1703 3444 
Q 2269 3444 2623 3169 
Q 2978 2894 3050 2222 
L 2503 2222 
Q 2453 2531 2275 2736 
Q 2097 2941 1703 2941 
Q 1166 2941 934 2416 
Q 784 2075 784 1575 
Q 784 1072 996 728 
Q 1209 384 1666 384 
Q 2016 384 2220 598 
Q 2425 813 2503 1184 
L 3050 1184 
Q 2956 519 2581 211 
Q 2206 -97 1622 -97 
Q 966 -97 575 383 
Q 184 863 184 1581 
Q 184 2463 612 2953 
Q 1041 3444 1703 3444 
z
M 1616 3428 
L 1616 3428 
z
" id="Helvetica-63" transform="scale(0.015625)"/>
      </defs>
      <use xlink:href="#Helvetica-4e"/>
      <use x="72.216797" xlink:href="#Helvetica-65"/>
      <use x="127.832031" xlink:href="#Helvetica-74"/>
      <use x="155.615234" xlink:href="#Helvetica-77"/>
      <use x="227.832031" xlink:href="#Helvetica-6f"/>
      <use x="283.447266" xlink:href="#Helvetica-72"/>
      <use x="316.748047" xlink:href="#Helvetica-6b"/>
      <use x="366.748047" xlink:href="#Helvetica-20"/>
      <use x="394.53125" xlink:href="#Helvetica-6d"/>
      <use x="477.832031" xlink:href="#Helvetica-65"/>
      <use x="533.447266" xlink:href="#Helvetica-74"/>
      <use x="561.230469" xlink:href="#Helvetica-72"/>
      <use x="594.53125" xlink:href="#Helvetica-69"/>
      <use x="616.748047" xlink:href="#Helvetica-63"/>
     </g>
    </g>
   </g>
   <g id="line2d_12">
    <path clip-path="url(#p4b45418ddb)" d="M 59.959048 176.104286 
L 110.686321 111.39 
L 161.413594 79.032857 
L 212.140866 62.854286 
L 262.868139 30.497143 
" style="fill:none;stroke:#ff0000;stroke-linecap:square;stroke-width:2;"/>
   </g>
   <g id="line2d_13">
    <path clip-path="url(#p4b45418ddb)" d="M 59.959048 176.104286 
L 110.686321 119.479286 
L 161.413594 95.211429 
L 212.140866 111.39 
L 262.868139 127.568571 
" style="fill:none;stroke:#0000ff;stroke-linecap:square;stroke-width:2;"/>
   </g>
   <g id="line2d_14">
    <path clip-path="url(#p4b45418ddb)" d="M 59.959048 185.811429 
L 59.959048 166.397143 
" style="fill:none;stroke:#ff0000;stroke-linecap:square;stroke-width:2;"/>
   </g>
   <g id="line2d_15">
    <path clip-path="url(#p4b45418ddb)" d="M 110.686321 121.097143 
L 110.686321 101.682857 
" style="fill:none;stroke:#ff0000;stroke-linecap:square;stroke-width:2;"/>
   </g>
   <g id="line2d_16">
    <path clip-path="url(#p4b45418ddb)" d="M 161.413594 88.74 
L 161.413594 69.325714 
" style="fill:none;stroke:#ff0000;stroke-linecap:square;stroke-width:2;"/>
   </g>
   <g id="line2d_17">
    <path clip-path="url(#p4b45418ddb)" d="M 212.140866 72.561429 
L 212.140866 53.147143 
" style="fill:none;stroke:#ff0000;stroke-linecap:square;stroke-width:2;"/>
   </g>
   <g id="line2d_18">
    <path clip-path="url(#p4b45418ddb)" d="M 262.868139 40.204286 
L 262.868139 20.79 
" style="fill:none;stroke:#ff0000;stroke-linecap:square;stroke-width:2;"/>
   </g>
   <g id="line2d_19">
    <path clip-path="url(#p4b45418ddb)" d="M 59.959048 185.811429 
L 59.959048 166.397143 
" style="fill:none;stroke:#0000ff;stroke-linecap:square;stroke-width:2;"/>
   </g>
   <g id="line2d_20">
    <path clip-path="url(#p4b45418ddb)" d="M 110.686321 129.186429 
L 110.686321 109.772143 
" style="fill:none;stroke:#0000ff;stroke-linecap:square;stroke-width:2;"/>
   </g>
   <g id="line2d_21">
    <path clip-path="url(#p4b45418ddb)" d="M 161.413594 104.918571 
L 161.413594 85.504286 
" style="fill:none;stroke:#0000ff;stroke-linecap:square;stroke-width:2;"/>
   </g>
   <g id="line2d_22">
    <path clip-path="url(#p4b45418ddb)" d="M 212.140866 121.097143 
L 212.140866 101.682857 
" style="fill:none;stroke:#0000ff;stroke-linecap:square;stroke-width:2;"/>
   </g>
   <g id="line2d_23">
    <path clip-path="url(#p4b45418ddb)" d="M 262.868139 137.275714 
L 262.868139 117.861429 
" style="fill:none;stroke:#0000ff;stroke-linecap:square;stroke-width:2;"/>
   </g>
   <g id="line2d_24">
    <path clip-path="url(#p4b45418ddb)" d="M 59.959048 185.811429 
L 59.959048 166.397143 
" style="fill:none;stroke:#ff0000;stroke-linecap:square;stroke-width:2;"/>
   </g>
   <g id="line2d_25">
    <path clip-path="url(#p4b45418ddb)" d="M 110.686321 121.097143 
L 110.686321 101.682857 
" style="fill:none;stroke:#ff0000;stroke-linecap:square;stroke-width:2;"/>
   </g>
   <g id="line2d_26">
    <path clip-path="url(#p4b45418ddb)" d="M 161.413594 88.74 
L 161.413594 69.325714 
" style="fill:none;stroke:#ff0000;stroke-linecap:square;stroke-width:2;"/>
   </g>
   <g id="line2d_27">
    <path clip-path="url(#p4b45418ddb)" d="M 212.140866 72.561429 
L 212.140866 53.147143 
" style="fill:none;stroke:#ff0000;stroke-linecap:square;stroke-width:2;"/>
   </g>
   <g id="line2d_28">
    <path clip-path="url(#p4b45418ddb)" d="M 262.868139 40.204286 
L 262.868139 20.79 
" style="fill:none;stroke:#ff0000;stroke-linecap:square;stroke-width:2;"/>
   </g>
   <g id="line2d_29">
    <path clip-path="url(#p4b45418ddb)" d="M 59.959048 185.811429 
L 59.959048 166.397143 
" style="fill:none;stroke:#0000ff;stroke-linecap:square;stroke-width:2;"/>
   </g>
   <g id="line2d_30">
    <path clip-path="url(#p4b45418ddb)" d="M 110.686321 129.186429 
L 110.686321 109.772143 
" style="fill:none;stroke:#0000ff;stroke-linecap:square;stroke-width:2;"/>
   </g>
   <g id="line2d_31">
    <path clip-path="url(#p4b45418ddb)" d="M 161.413594 104.918571 
L 161.413594 85.504286 
" style="fill:none;stroke:#0000ff;stroke-linecap:square;stroke-width:2;"/>
   </g>
   <g id="line2d_32">
    <path clip-path="url(#p4b45418ddb)" d="M 212.140866 121.097143 
L 212.140866 101.682857 
" style="fill:none;stroke:#0000ff;stroke-linecap:square;stroke-width:2;"/>
   </g>
   <g id="line2d_33">
    <path clip-path="url(#p4b45418ddb)" d="M 262.868139 137.275714 
L 262.868139 117.861429 
" style="fill:none;stroke:#0000ff;stroke-linecap:square;stroke-width:2;"/>
   </g>
   <g id="line2d_34">
    <path clip-path="url(#p4b45418ddb)" d="M 59.959048 190.665 
L 59.959048 161.543571 
" style="fill:none;stroke:#ff0000;stroke-linecap:square;stroke-width:2;"/>
   </g>
   <g id="line2d_35">
    <path clip-path="url(#p4b45418ddb)" d="M 110.686321 125.950714 
L 110.686321 96.829286 
" style="fill:none;stroke:#ff0000;stroke-linecap:square;stroke-width:2;"/>
   </g>
   <g id="line2d_36">
    <path clip-path="url(#p4b45418ddb)" d="M 161.413594 93.593571 
L 161.413594 64.472143 
" style="fill:none;stroke:#ff0000;stroke-linecap:square;stroke-width:2;"/>
   </g>
   <g id="line2d_37">
    <path clip-path="url(#p4b45418ddb)" d="M 212.140866 77.415 
L 212.140866 48.293571 
" style="fill:none;stroke:#ff0000;stroke-linecap:square;stroke-width:2;"/>
   </g>
   <g id="line2d_38">
    <path clip-path="url(#p4b45418ddb)" d="M 262.868139 45.057857 
L 262.868139 15.936429 
" style="fill:none;stroke:#ff0000;stroke-linecap:square;stroke-width:2;"/>
   </g>
   <g id="line2d_39">
    <path clip-path="url(#p4b45418ddb)" d="M 59.959048 190.665 
L 59.959048 161.543571 
" style="fill:none;stroke:#0000ff;stroke-linecap:square;stroke-width:2;"/>
   </g>
   <g id="line2d_40">
    <path clip-path="url(#p4b45418ddb)" d="M 110.686321 134.04 
L 110.686321 104.918571 
" style="fill:none;stroke:#0000ff;stroke-linecap:square;stroke-width:2;"/>
   </g>
   <g id="line2d_41">
    <path clip-path="url(#p4b45418ddb)" d="M 161.413594 109.772143 
L 161.413594 80.650714 
" style="fill:none;stroke:#0000ff;stroke-linecap:square;stroke-width:2;"/>
   </g>
   <g id="line2d_42">
    <path clip-path="url(#p4b45418ddb)" d="M 212.140866 125.950714 
L 212.140866 96.829286 
" style="fill:none;stroke:#0000ff;stroke-linecap:square;stroke-width:2;"/>
   </g>
   <g id="line2d_43">
    <path clip-path="url(#p4b45418ddb)" d="M 262.868139 142.129286 
L 262.868139 113.007857 
" style="fill:none;stroke:#0000ff;stroke-linecap:square;stroke-width:2;"/>
   </g>
   <g id="line2d_44">
    <path clip-path="url(#p4b45418ddb)" d="M 59.959048 190.665 
L 59.959048 161.543571 
" style="fill:none;stroke:#ff0000;stroke-linecap:square;stroke-width:2;"/>
   </g>
   <g id="line2d_45">
    <path clip-path="url(#p4b45418ddb)" d="M 110.686321 125.950714 
L 110.686321 96.829286 
" style="fill:none;stroke:#ff0000;stroke-linecap:square;stroke-width:2;"/>
   </g>
   <g id="line2d_46">
    <path clip-path="url(#p4b45418ddb)" d="M 161.413594 93.593571 
L 161.413594 64.472143 
" style="fill:none;stroke:#ff0000;stroke-linecap:square;stroke-width:2;"/>
   </g>
   <g id="line2d_47">
    <path clip-path="url(#p4b45418ddb)" d="M 212.140866 77.415 
L 212.140866 48.293571 
" style="fill:none;stroke:#ff0000;stroke-linecap:square;stroke-width:2;"/>
   </g>
   <g id="line2d_48">
    <path clip-path="url(#p4b45418ddb)" d="M 262.868139 45.057857 
L 262.868139 15.936429 
" style="fill:none;stroke:#ff0000;stroke-linecap:square;stroke-width:2;"/>
   </g>
   <g id="line2d_49">
    <path clip-path="url(#p4b45418ddb)" d="M 59.959048 190.665 
L 59.959048 161.543571 
" style="fill:none;stroke:#0000ff;stroke-linecap:square;stroke-width:2;"/>
   </g>
   <g id="line2d_50">
    <path clip-path="url(#p4b45418ddb)" d="M 110.686321 134.04 
L 110.686321 104.918571 
" style="fill:none;stroke:#0000ff;stroke-linecap:square;stroke-width:2;"/>
   </g>
   <g id="line2d_51">
    <path clip-path="url(#p4b45418ddb)" d="M 161.413594 109.772143 
L 161.413594 80.650714 
" style="fill:none;stroke:#0000ff;stroke-linecap:square;stroke-width:2;"/>
   </g>
   <g id="line2d_52">
    <path clip-path="url(#p4b45418ddb)" d="M 212.140866 125.950714 
L 212.140866 96.829286 
" style="fill:none;stroke:#0000ff;stroke-linecap:square;stroke-width:2;"/>
   </g>
   <g id="line2d_53">
    <path clip-path="url(#p4b45418ddb)" d="M 262.868139 142.129286 
L 262.868139 113.007857 
" style="fill:none;stroke:#0000ff;stroke-linecap:square;stroke-width:2;"/>
   </g>
   <g id="line2d_54">
    <path clip-path="url(#p4b45418ddb)" d="M 59.959048 180.957857 
L 59.959048 171.250714 
" style="fill:none;stroke:#ff0000;stroke-linecap:square;stroke-width:2;"/>
   </g>
   <g id="line2d_55">
    <path clip-path="url(#p4b45418ddb)" d="M 110.686321 116.243571 
L 110.686321 106.536429 
" style="fill:none;stroke:#ff0000;stroke-linecap:square;stroke-width:2;"/>
   </g>
   <g id="line2d_56">
    <path clip-path="url(#p4b45418ddb)" d="M 161.413594 83.886429 
L 161.413594 74.179286 
" style="fill:none;stroke:#ff0000;stroke-linecap:square;stroke-width:2;"/>
   </g>
   <g id="line2d_57">
    <path clip-path="url(#p4b45418ddb)" d="M 212.140866 67.707857 
L 212.140866 58.000714 
" style="fill:none;stroke:#ff0000;stroke-linecap:square;stroke-width:2;"/>
   </g>
   <g id="line2d_58">
    <path clip-path="url(#p4b45418ddb)" d="M 262.868139 35.350714 
L 262.868139 25.643571 
" style="fill:none;stroke:#ff0000;stroke-linecap:square;stroke-width:2;"/>
   </g>
   <g id="line2d_59">
    <path clip-path="url(#p4b45418ddb)" d="M 59.959048 180.957857 
L 59.959048 171.250714 
" style="fill:none;stroke:#0000ff;stroke-linecap:square;stroke-width:2;"/>
   </g>
   <g id="line2d_60">
    <path clip-path="url(#p4b45418ddb)" d="M 110.686321 124.332857 
L 110.686321 114.625714 
" style="fill:none;stroke:#0000ff;stroke-linecap:square;stroke-width:2;"/>
   </g>
   <g id="line2d_61">
    <path clip-path="url(#p4b45418ddb)" d="M 161.413594 100.065 
L 161.413594 90.357857 
" style="fill:none;stroke:#0000ff;stroke-linecap:square;stroke-width:2;"/>
   </g>
   <g id="line2d_62">
    <path clip-path="url(#p4b45418ddb)" d="M 212.140866 116.243571 
L 212.140866 106.536429 
" style="fill:none;stroke:#0000ff;stroke-linecap:square;stroke-width:2;"/>
   </g>
   <g id="line2d_63">
    <path clip-path="url(#p4b45418ddb)" d="M 262.868139 132.422143 
L 262.868139 122.715 
" style="fill:none;stroke:#0000ff;stroke-linecap:square;stroke-width:2;"/>
   </g>
   <g id="patch_3">
    <path d="M 49.813594 224.64 
L 49.813594 30.497143 
" style="fill:none;stroke:#000000;stroke-linecap:square;stroke-linejoin:miter;stroke-width:1.2;"/>
   </g>
   <g id="patch_4">
    <path d="M 59.959048 224.64 
L 262.868139 224.64 
" style="fill:none;stroke:#000000;stroke-linecap:square;stroke-linejoin:miter;stroke-width:1.2;"/>
   </g>
   <g id="text_14">
    <!-- WT -->
    <g style="fill:#ff0000;" transform="translate(245.766577 79.032857)scale(0.11 -0.11)">
     <defs>
      <path d="M 791 4591 
L 1656 856 
L 2694 4591 
L 3369 4591 
L 4406 856 
L 5272 4591 
L 5953 4591 
L 4747 0 
L 4094 0 
L 3034 3806 
L 1969 0 
L 1316 0 
L 116 4591 
L 791 4591 
z
" id="Helvetica-57" transform="scale(0.015625)"/>
      <path d="M 3828 4591 
L 3828 4044 
L 2281 4044 
L 2281 0 
L 1650 0 
L 1650 4044 
L 103 4044 
L 103 4591 
L 3828 4591 
z
" id="Helvetica-54" transform="scale(0.015625)"/>
     </defs>
     <use xlink:href="#Helvetica-57"/>
     <use x="94.384766" xlink:href="#Helvetica-54"/>
    </g>
   </g>
   <g id="text_15">
    <!-- KO -->
    <g style="fill:#0000ff;" transform="translate(246.974858 88.74)scale(0.11 -0.11)">
     <defs>
      <path d="M 488 4591 
L 1094 4591 
L 1094 2353 
L 3331 4591 
L 4191 4591 
L 2281 2741 
L 4244 0 
L 3434 0 
L 1828 2303 
L 1094 1600 
L 1094 0 
L 488 0 
L 488 4591 
z
" id="Helvetica-4b" transform="scale(0.015625)"/>
      <path d="M 2469 4716 
Q 3684 4716 4269 3934 
Q 4725 3325 4725 2375 
Q 4725 1347 4203 666 
Q 3591 -134 2456 -134 
Q 1397 -134 791 566 
Q 250 1241 250 2272 
Q 250 3203 713 3866 
Q 1306 4716 2469 4716 
z
M 2531 422 
Q 3353 422 3720 1011 
Q 4088 1600 4088 2366 
Q 4088 3175 3664 3669 
Q 3241 4163 2506 4163 
Q 1794 4163 1344 3673 
Q 894 3184 894 2231 
Q 894 1469 1280 945 
Q 1666 422 2531 422 
z
M 2488 4716 
L 2488 4716 
z
" id="Helvetica-4f" transform="scale(0.015625)"/>
     </defs>
     <use xlink:href="#Helvetica-4b"/>
     <use x="66.699219" xlink:href="#Helvetica-4f"/>
    </g>
   </g>
  </g>
 </g>
 <defs>
  <clipPath id="p4b45418ddb">
   <rect height="217.44" width="223.2" x="49.813594" y="7.2"/>
  </clipPath>
 </defs>
</svg>
