<?xml version="1.0" encoding="utf-8" standalone="no"?>
<!DOCTYPE svg PUBLIC "-//W3C//DTD SVG 1.1//EN"
  "http://www.w3.org/Graphics/SVG/1.1/DTD/svg11.dtd">
<svg height="231.84pt" version="1.1" viewBox="0 0 237.6 231.84" width="237.6pt" xmlns="http://www.w3.org/2000/svg" xmlns:xlink="http://www.w3.org/1999/xlink">
 <metadata>
  <rdf:RDF xmlns:cc="http://creativecommons.org/ns#" xmlns:dc="http://purl.org/dc/elements/1.1/" xmlns:rdf="http://www.w3.org/1999/02/22-rdf-syntax-ns#">
   <cc:Work>
    <dc:type rdf:resource="http://purl.org/dc/dcmitype/StillImage"/>
    <dc:date>2023-10-05T13:41:12.463154</dc:date>
    <dc:format>image/svg+xml</dc:format>
    <dc:creator>
     <cc:Agent>
      <dc:title>Matplotlib v3.4.3, https://matplotlib.org/</dc:title>
     </cc:Agent>
    </dc:creator>
   </cc:Work>
  </rdf:RDF>
 </metadata>
 <defs>
  <style type="text/css">*{stroke-linecap:butt;stroke-linejoin:round;}</style>
 </defs>
 <g id="figure_1">
  <g id="patch_1">
   <path d="M 0 231.84 
L 237.6 231.84 
L 237.6 0 
L 0 0 
z
" style="fill:#ffffff;"/>
  </g>
  <g id="axes_1">
   <g id="patch_2">
    <path d="M 7.2 224.64 
L 230.4 224.64 
L 230.4 7.2 
L 7.2 7.2 
z
" style="fill:#ffffff;"/>
   </g>
   <g id="line2d_1">
    <path clip-path="url(#p997d039431)" d="M 31.339185 167.042257 
L 31.339185 98.879248 
" style="fill:none;stroke:#000000;stroke-linecap:square;stroke-width:2;"/>
   </g>
   <g id="line2d_2">
    <path clip-path="url(#p997d039431)" d="M 31.339185 167.042257 
L 66.323511 30.716238 
" style="fill:none;stroke:#000000;stroke-linecap:square;stroke-width:2;"/>
   </g>
   <g id="line2d_3">
    <path clip-path="url(#p997d039431)" d="M 31.339185 98.879248 
L 66.323511 30.716238 
" style="fill:none;stroke:#000000;stroke-linecap:square;stroke-width:2;"/>
   </g>
   <g id="line2d_4">
    <path clip-path="url(#p997d039431)" d="M 66.323511 30.716238 
L 206.260815 167.042257 
" style="fill:none;stroke:#000000;stroke-linecap:square;stroke-width:2;"/>
   </g>
   <g id="line2d_5">
    <path clip-path="url(#p997d039431)" d="M 206.260815 167.042257 
L 101.307837 201.123762 
" style="fill:none;stroke:#000000;stroke-linecap:square;stroke-width:2;"/>
   </g>
   <g id="line2d_6">
    <path clip-path="url(#p997d039431)" d="M 101.307837 201.123762 
L 136.292163 132.960752 
" style="fill:none;stroke:#000000;stroke-linecap:square;stroke-width:2;"/>
   </g>
   <g id="line2d_7">
    <path clip-path="url(#p997d039431)" d="M 136.292163 132.960752 
L 153.784326 47.756991 
" style="fill:none;stroke:#000000;stroke-linecap:square;stroke-width:2;"/>
   </g>
   <g id="patch_3">
    <path clip-path="url(#p997d039431)" d="M 31.339185 180.674859 
C 35.050366 180.674859 38.610046 179.238442 41.234247 176.681962 
C 43.858448 174.125483 45.332915 170.657665 45.332915 167.042257 
C 45.332915 163.426849 43.858448 159.959032 41.234247 157.402552 
C 38.610046 154.846072 35.050366 153.409655 31.339185 153.409655 
C 27.628004 153.409655 24.068324 154.846072 21.444123 157.402552 
C 18.819922 159.959032 17.345455 163.426849 17.345455 167.042257 
C 17.345455 170.657665 18.819922 174.125483 21.444123 176.681962 
C 24.068324 179.238442 27.628004 180.674859 31.339185 180.674859 
z
" style="fill:#ffa500;stroke:#ffa500;stroke-linejoin:miter;"/>
   </g>
   <g id="patch_4">
    <path clip-path="url(#p997d039431)" d="M 31.339185 112.51185 
C 35.050366 112.51185 38.610046 111.075433 41.234247 108.518953 
C 43.858448 105.962473 45.332915 102.494656 45.332915 98.879248 
C 45.332915 95.263839 43.858448 91.796022 41.234247 89.239542 
C 38.610046 86.683063 35.050366 85.246646 31.339185 85.246646 
C 27.628004 85.246646 24.068324 86.683063 21.444123 89.239542 
C 18.819922 91.796022 17.345455 95.263839 17.345455 98.879248 
C 17.345455 102.494656 18.819922 105.962473 21.444123 108.518953 
C 24.068324 111.075433 27.628004 112.51185 31.339185 112.51185 
z
" style="fill:#ffa500;stroke:#ffa500;stroke-linejoin:miter;"/>
   </g>
   <g id="patch_5">
    <path clip-path="url(#p997d039431)" d="M 66.323511 44.34884 
C 70.034692 44.34884 73.594372 42.912423 76.218573 40.355943 
C 78.842774 37.799464 80.317241 34.331647 80.317241 30.716238 
C 80.317241 27.10083 78.842774 23.633013 76.218573 21.076533 
C 73.594372 18.520053 70.034692 17.083636 66.323511 17.083636 
C 62.61233 17.083636 59.05265 18.520053 56.428449 21.076533 
C 53.804248 23.633013 52.329781 27.10083 52.329781 30.716238 
C 52.329781 34.331647 53.804248 37.799464 56.428449 40.355943 
C 59.05265 42.912423 62.61233 44.34884 66.323511 44.34884 
z
" style="fill:#ffa500;stroke:#ffa500;stroke-linejoin:miter;"/>
   </g>
   <g id="patch_6">
    <path clip-path="url(#p997d039431)" d="M 206.260815 180.674859 
C 209.971996 180.674859 213.531676 179.238442 216.155877 176.681962 
C 218.780078 174.125483 220.254545 170.657665 220.254545 167.042257 
C 220.254545 163.426849 218.780078 159.959032 216.155877 157.402552 
C 213.531676 154.846072 209.971996 153.409655 206.260815 153.409655 
C 202.549634 153.409655 198.989954 154.846072 196.365753 157.402552 
C 193.741552 159.959032 192.267085 163.426849 192.267085 167.042257 
C 192.267085 170.657665 193.741552 174.125483 196.365753 176.681962 
C 198.989954 179.238442 202.549634 180.674859 206.260815 180.674859 
z
" style="fill:#ffa500;stroke:#ffa500;stroke-linejoin:miter;"/>
   </g>
   <g id="patch_7">
    <path clip-path="url(#p997d039431)" d="M 101.307837 214.756364 
C 105.019018 214.756364 108.578698 213.319947 111.202899 210.763467 
C 113.8271 208.206987 115.301567 204.73917 115.301567 201.123762 
C 115.301567 197.508353 113.8271 194.040536 111.202899 191.484057 
C 108.578698 188.927577 105.019018 187.49116 101.307837 187.49116 
C 97.596656 187.49116 94.036976 188.927577 91.412775 191.484057 
C 88.788574 194.040536 87.314107 197.508353 87.314107 201.123762 
C 87.314107 204.73917 88.788574 208.206987 91.412775 210.763467 
C 94.036976 213.319947 97.596656 214.756364 101.307837 214.756364 
z
" style="fill:#a52a2a;stroke:#a52a2a;stroke-linejoin:miter;"/>
   </g>
   <g id="patch_8">
    <path clip-path="url(#p997d039431)" d="M 136.292163 146.593354 
C 140.003344 146.593354 143.563024 145.156937 146.187225 142.600458 
C 148.811426 140.043978 150.285893 136.576161 150.285893 132.960752 
C 150.285893 129.345344 148.811426 125.877527 146.187225 123.321047 
C 143.563024 120.764567 140.003344 119.32815 136.292163 119.32815 
C 132.580982 119.32815 129.021302 120.764567 126.397101 123.321047 
C 123.7729 125.877527 122.298433 129.345344 122.298433 132.960752 
C 122.298433 136.576161 123.7729 140.043978 126.397101 142.600458 
C 129.021302 145.156937 132.580982 146.593354 136.292163 146.593354 
z
" style="fill:#a52a2a;stroke:#a52a2a;stroke-linejoin:miter;"/>
   </g>
   <g id="patch_9">
    <path clip-path="url(#p997d039431)" d="M 153.784326 61.389592 
C 157.495507 61.389592 161.055187 59.953176 163.679388 57.396696 
C 166.303589 54.840216 167.778056 51.372399 167.778056 47.756991 
C 167.778056 44.141582 166.303589 40.673765 163.679388 38.117285 
C 161.055187 35.560806 157.495507 34.124389 153.784326 34.124389 
C 150.073145 34.124389 146.513465 35.560806 143.889264 38.117285 
C 141.265063 40.673765 139.790596 44.141582 139.790596 47.756991 
C 139.790596 51.372399 141.265063 54.840216 143.889264 57.396696 
C 146.513465 59.953176 150.073145 61.389592 153.784326 61.389592 
z
" style="fill:#a52a2a;stroke:#a52a2a;stroke-linejoin:miter;"/>
   </g>
   <g id="matplotlib.axis_1"/>
   <g id="matplotlib.axis_2"/>
  </g>
 </g>
 <defs>
  <clipPath id="p997d039431">
   <rect height="217.44" width="223.2" x="7.2" y="7.2"/>
  </clipPath>
 </defs>
</svg>
