<?xml version="1.0" encoding="utf-8" standalone="no"?>
<!DOCTYPE svg PUBLIC "-//W3C//DTD SVG 1.1//EN"
  "http://www.w3.org/Graphics/SVG/1.1/DTD/svg11.dtd">
<svg height="239.476244pt" version="1.1" viewBox="0 0 293.473594 239.476244" width="293.473594pt" xmlns="http://www.w3.org/2000/svg" xmlns:xlink="http://www.w3.org/1999/xlink">
 <metadata>
  <rdf:RDF xmlns:cc="http://creativecommons.org/ns#" xmlns:dc="http://purl.org/dc/elements/1.1/" xmlns:rdf="http://www.w3.org/1999/02/22-rdf-syntax-ns#">
   <cc:Work>
    <dc:type rdf:resource="http://purl.org/dc/dcmitype/StillImage"/>
    <dc:date>2023-09-25T22:45:58.053397</dc:date>
    <dc:format>image/svg+xml</dc:format>
    <dc:creator>
     <cc:Agent>
      <dc:title>Matplotlib v3.4.3, https://matplotlib.org/</dc:title>
     </cc:Agent>
    </dc:creator>
   </cc:Work>
  </rdf:RDF>
 </metadata>
 <defs>
  <style type="text/css">*{stroke-linecap:butt;stroke-linejoin:round;}</style>
 </defs>
 <g id="figure_1">
  <g id="patch_1">
   <path d="M 0 239.476244 
L 293.473594 239.476244 
L 293.473594 0 
L 0 0 
z
" style="fill:none;"/>
  </g>
  <g id="axes_1">
   <g id="patch_2">
    <path d="M 7.2 224.64 
L 286.2 224.64 
L 286.2 7.2 
L 7.2 7.2 
z
" style="fill:none;"/>
   </g>
   <g id="PolyCollection_1">
    <defs>
     <path d="M 19.881818 -24.719881 
L 19.881818 -24.786193 
L 20.135708 -24.788349 
L 20.389599 -24.790571 
L 20.643489 -24.79286 
L 20.897379 -24.795219 
L 21.151269 -24.797649 
L 21.40516 -24.800152 
L 21.65905 -24.80273 
L 21.91294 -24.805386 
L 22.16683 -24.808121 
L 22.420721 -24.810938 
L 22.674611 -24.813839 
L 22.928501 -24.816826 
L 23.182391 -24.819901 
L 23.436282 -24.823067 
L 23.690172 -24.826327 
L 23.944062 -24.829683 
L 24.197952 -24.833137 
L 24.451843 -24.836692 
L 24.705733 -24.840352 
L 24.959623 -24.844118 
L 25.213514 -24.847993 
L 25.467404 -24.851981 
L 25.721294 -24.856084 
L 25.975184 -24.860306 
L 26.229075 -24.864649 
L 26.482965 -24.869117 
L 26.736855 -24.873713 
L 26.990745 -24.878441 
L 27.244636 -24.883303 
L 27.498526 -24.888304 
L 27.752416 -24.893446 
L 28.006306 -24.898734 
L 28.260197 -24.904171 
L 28.514087 -24.909762 
L 28.767977 -24.915509 
L 29.021867 -24.921418 
L 29.275758 -24.927491 
L 29.529648 -24.933734 
L 29.783538 -24.940151 
L 30.037428 -24.946746 
L 30.291319 -24.953522 
L 30.545209 -24.960486 
L 30.799099 -24.967642 
L 31.052989 -24.974994 
L 31.30688 -24.982548 
L 31.56077 -24.990308 
L 31.81466 -24.998279 
L 32.06855 -25.006466 
L 32.322441 -25.014876 
L 32.576331 -25.023513 
L 32.830221 -25.032383 
L 33.084111 -25.041491 
L 33.338002 -25.050843 
L 33.591892 -25.060446 
L 33.845782 -25.070305 
L 34.099672 -25.080426 
L 34.353563 -25.090815 
L 34.607453 -25.10148 
L 34.861343 -25.112425 
L 35.115233 -25.123659 
L 35.369124 -25.135188 
L 35.623014 -25.147019 
L 35.876904 -25.159158 
L 36.130794 -25.171614 
L 36.384685 -25.184393 
L 36.638575 -25.197502 
L 36.892465 -25.21095 
L 37.146355 -25.224745 
L 37.400246 -25.238894 
L 37.654136 -25.253405 
L 37.908026 -25.268286 
L 38.161916 -25.283547 
L 38.415807 -25.299195 
L 38.669697 -25.315239 
L 38.923587 -25.331688 
L 39.177477 -25.348552 
L 39.431368 -25.365839 
L 39.685258 -25.383558 
L 39.939148 -25.40172 
L 40.193038 -25.420334 
L 40.446929 -25.439411 
L 40.700819 -25.458959 
L 40.954709 -25.478989 
L 41.2086 -25.499513 
L 41.46249 -25.52054 
L 41.71638 -25.542081 
L 41.97027 -25.564148 
L 42.224161 -25.586752 
L 42.478051 -25.609903 
L 42.731941 -25.633615 
L 42.985831 -25.657898 
L 43.239722 -25.682764 
L 43.493612 -25.708226 
L 43.747502 -25.734297 
L 44.001392 -25.760988 
L 44.255283 -25.788314 
L 44.509173 -25.816286 
L 44.763063 -25.844918 
L 45.016953 -25.874224 
L 45.270844 -25.904217 
L 45.524734 -25.934912 
L 45.778624 -25.966323 
L 46.032514 -25.998463 
L 46.286405 -26.031348 
L 46.540295 -26.064993 
L 46.794185 -26.099412 
L 47.048075 -26.134621 
L 47.301966 -26.170636 
L 47.555856 -26.207473 
L 47.809746 -26.245146 
L 48.063636 -26.283674 
L 48.317527 -26.323072 
L 48.571417 -26.363357 
L 48.825307 -26.404547 
L 49.079197 -26.446658 
L 49.333088 -26.489708 
L 49.586978 -26.533715 
L 49.840868 -26.578697 
L 50.094758 -26.624673 
L 50.348649 -26.67166 
L 50.602539 -26.719679 
L 50.856429 -26.768747 
L 51.110319 -26.818885 
L 51.36421 -26.870111 
L 51.6181 -26.922447 
L 51.87199 -26.975912 
L 52.12588 -27.030526 
L 52.379771 -27.086311 
L 52.633661 -27.143287 
L 52.887551 -27.201476 
L 53.141441 -27.260899 
L 53.395332 -27.321578 
L 53.649222 -27.383536 
L 53.903112 -27.446793 
L 54.157002 -27.511375 
L 54.410893 -27.577302 
L 54.664783 -27.644599 
L 54.918673 -27.713289 
L 55.172563 -27.783395 
L 55.426454 -27.854943 
L 55.680344 -27.927955 
L 55.934234 -28.002458 
L 56.188124 -28.078475 
L 56.442015 -28.156033 
L 56.695905 -28.235156 
L 56.949795 -28.31587 
L 57.203686 -28.398202 
L 57.457576 -28.482177 
L 57.711466 -28.567823 
L 57.965356 -28.655166 
L 58.219247 -28.744234 
L 58.473137 -28.835053 
L 58.727027 -28.927652 
L 58.980917 -29.022059 
L 59.234808 -29.118303 
L 59.488698 -29.21641 
L 59.742588 -29.316412 
L 59.996478 -29.418336 
L 60.250369 -29.522212 
L 60.504259 -29.62807 
L 60.758149 -29.735939 
L 61.012039 -29.845851 
L 61.26593 -29.957835 
L 61.51982 -30.071922 
L 61.77371 -30.188144 
L 62.0276 -30.306531 
L 62.281491 -30.427115 
L 62.535381 -30.549928 
L 62.789271 -30.675002 
L 63.043161 -30.802369 
L 63.297052 -30.932061 
L 63.550942 -31.064113 
L 63.804832 -31.198555 
L 64.058722 -31.335423 
L 64.312613 -31.474749 
L 64.566503 -31.616566 
L 64.820393 -31.76091 
L 65.074283 -31.907814 
L 65.328174 -32.057312 
L 65.582064 -32.209439 
L 65.835954 -32.36423 
L 66.089844 -32.52172 
L 66.343735 -32.681944 
L 66.597625 -32.844937 
L 66.851515 -33.010735 
L 67.105405 -33.179374 
L 67.359296 -33.350889 
L 67.613186 -33.525318 
L 67.867076 -33.702695 
L 68.120966 -33.883058 
L 68.374857 -34.066443 
L 68.628747 -34.252887 
L 68.882637 -34.442426 
L 69.136527 -34.635098 
L 69.390418 -34.83094 
L 69.644308 -35.029988 
L 69.898198 -35.232281 
L 70.152088 -35.437856 
L 70.405979 -35.646751 
L 70.659869 -35.859002 
L 70.913759 -36.074648 
L 71.167649 -36.293726 
L 71.42154 -36.516275 
L 71.67543 -36.742333 
L 71.92932 -36.971936 
L 72.18321 -37.205124 
L 72.437101 -37.441934 
L 72.690991 -37.682404 
L 72.944881 -37.926573 
L 73.198771 -38.174478 
L 73.452662 -38.426158 
L 73.706552 -38.68165 
L 73.960442 -38.940993 
L 74.214333 -39.204224 
L 74.468223 -39.471381 
L 74.722113 -39.742503 
L 74.976003 -40.017627 
L 75.229894 -40.29679 
L 75.483784 -40.580031 
L 75.737674 -40.867386 
L 75.991564 -41.158893 
L 76.245455 -41.45459 
L 76.499345 -41.754513 
L 76.753235 -42.0587 
L 77.007125 -42.367186 
L 77.261016 -42.68001 
L 77.514906 -42.997206 
L 77.768796 -43.318812 
L 78.022686 -43.644863 
L 78.276577 -43.975395 
L 78.530467 -44.310443 
L 78.784357 -44.650043 
L 79.038247 -44.99423 
L 79.292138 -45.343039 
L 79.546028 -45.696503 
L 79.799918 -46.054657 
L 80.053808 -46.417535 
L 80.307699 -46.78517 
L 80.561589 -47.157595 
L 80.815479 -47.534842 
L 81.069369 -47.916945 
L 81.32326 -48.303935 
L 81.57715 -48.695843 
L 81.83104 -49.092701 
L 82.08493 -49.494538 
L 82.338821 -49.901386 
L 82.592711 -50.313274 
L 82.846601 -50.730231 
L 83.100491 -51.152286 
L 83.354382 -51.579467 
L 83.608272 -52.011801 
L 83.862162 -52.449316 
L 84.116052 -52.892038 
L 84.369943 -53.339993 
L 84.623833 -53.793206 
L 84.877723 -54.251702 
L 85.131613 -54.715505 
L 85.385504 -55.184639 
L 85.639394 -55.659126 
L 85.893284 -56.138988 
L 86.147174 -56.624246 
L 86.401065 -57.114922 
L 86.654955 -57.611035 
L 86.908845 -58.112603 
L 87.162735 -58.619647 
L 87.416626 -59.132183 
L 87.670516 -59.650227 
L 87.924406 -60.173797 
L 88.178296 -60.702907 
L 88.432187 -61.237572 
L 88.686077 -61.777804 
L 88.939967 -62.323617 
L 89.193857 -62.875022 
L 89.447748 -63.43203 
L 89.701638 -63.99465 
L 89.955528 -64.562893 
L 90.209419 -65.136765 
L 90.463309 -65.716274 
L 90.717199 -66.301425 
L 90.971089 -66.892223 
L 91.22498 -67.488673 
L 91.47887 -68.090778 
L 91.73276 -68.698538 
L 91.98665 -69.311955 
L 92.240541 -69.931029 
L 92.494431 -70.555758 
L 92.748321 -71.18614 
L 93.002211 -71.822171 
L 93.256102 -72.463846 
L 93.509992 -73.111159 
L 93.763882 -73.764103 
L 94.017772 -74.42267 
L 94.271663 -75.08685 
L 94.525553 -75.756632 
L 94.779443 -76.432005 
L 95.033333 -77.112955 
L 95.287224 -77.799468 
L 95.541114 -78.491529 
L 95.795004 -79.189119 
L 96.048894 -79.892221 
L 96.302785 -80.600815 
L 96.556675 -81.31488 
L 96.810565 -82.034395 
L 97.064455 -82.759334 
L 97.318346 -83.489674 
L 97.572236 -84.225389 
L 97.826126 -84.96645 
L 98.080016 -85.712828 
L 98.333907 -86.464493 
L 98.587797 -87.221413 
L 98.841687 -87.983555 
L 99.095577 -88.750885 
L 99.349468 -89.523365 
L 99.603358 -90.300959 
L 99.857248 -91.083628 
L 100.111138 -91.871331 
L 100.365029 -92.664027 
L 100.618919 -93.461671 
L 100.872809 -94.264219 
L 101.126699 -95.071626 
L 101.38059 -95.883843 
L 101.63448 -96.70082 
L 101.88837 -97.522508 
L 102.14226 -98.348854 
L 102.396151 -99.179804 
L 102.650041 -100.015304 
L 102.903931 -100.855295 
L 103.157821 -101.699721 
L 103.411712 -102.548521 
L 103.665602 -103.401635 
L 103.919492 -104.258999 
L 104.173382 -105.120549 
L 104.427273 -105.98622 
L 104.681163 -106.855944 
L 104.935053 -107.729652 
L 105.188943 -108.607275 
L 105.442834 -109.48874 
L 105.696724 -110.373974 
L 105.950614 -111.262903 
L 106.204505 -112.155449 
L 106.458395 -113.051537 
L 106.712285 -113.951085 
L 106.966175 -114.854014 
L 107.220066 -115.760241 
L 107.473956 -116.669682 
L 107.727846 -117.582254 
L 107.981736 -118.497868 
L 108.235627 -119.416437 
L 108.489517 -120.337872 
L 108.743407 -121.262081 
L 108.997297 -122.188973 
L 109.251188 -123.118453 
L 109.505078 -124.050427 
L 109.758968 -124.984798 
L 110.012858 -125.921468 
L 110.266749 -126.860338 
L 110.520639 -127.801308 
L 110.774529 -128.744275 
L 111.028419 -129.689137 
L 111.28231 -130.635789 
L 111.5362 -131.584124 
L 111.79009 -132.534037 
L 112.04398 -133.485418 
L 112.297871 -134.438158 
L 112.551761 -135.392146 
L 112.805651 -136.347271 
L 113.059541 -137.303418 
L 113.313432 -138.260474 
L 113.567322 -139.218322 
L 113.821212 -140.176847 
L 114.075102 -141.135931 
L 114.328993 -142.095454 
L 114.582883 -143.055297 
L 114.836773 -144.015339 
L 115.090663 -144.975457 
L 115.344554 -145.935529 
L 115.598444 -146.89543 
L 115.852334 -147.855037 
L 116.106224 -148.814222 
L 116.360115 -149.772859 
L 116.614005 -150.730821 
L 116.867895 -151.687979 
L 117.121785 -152.644203 
L 117.375676 -153.599364 
L 117.629566 -154.55333 
L 117.883456 -155.50597 
L 118.137346 -156.457152 
L 118.391237 -157.406742 
L 118.645127 -158.354607 
L 118.899017 -159.300613 
L 119.152907 -160.244624 
L 119.406798 -161.186505 
L 119.660688 -162.12612 
L 119.914578 -163.063333 
L 120.168468 -163.998007 
L 120.422359 -164.930003 
L 120.676249 -165.859185 
L 120.930139 -166.785414 
L 121.184029 -167.708551 
L 121.43792 -168.628458 
L 121.69181 -169.544995 
L 121.9457 -170.458024 
L 122.19959 -171.367404 
L 122.453481 -172.272996 
L 122.707371 -173.174659 
L 122.961261 -174.072255 
L 123.215152 -174.965642 
L 123.469042 -175.854681 
L 123.722932 -176.739232 
L 123.976822 -177.619154 
L 124.230713 -178.494308 
L 124.484603 -179.364553 
L 124.738493 -180.229751 
L 124.992383 -181.089761 
L 125.246274 -181.944444 
L 125.500164 -182.793662 
L 125.754054 -183.637275 
L 126.007944 -184.475145 
L 126.261835 -185.307134 
L 126.515725 -186.133104 
L 126.769615 -186.952919 
L 127.023505 -187.766441 
L 127.277396 -188.573535 
L 127.531286 -189.374065 
L 127.785176 -190.167896 
L 128.039066 -190.954893 
L 128.292957 -191.734923 
L 128.546847 -192.507853 
L 128.800737 -193.27355 
L 129.054627 -194.031884 
L 129.308518 -194.782723 
L 129.562408 -195.525938 
L 129.816298 -196.261401 
L 130.070188 -196.988982 
L 130.324079 -197.708556 
L 130.577969 -198.419996 
L 130.831859 -199.123177 
L 131.085749 -199.817975 
L 131.33964 -200.504269 
L 131.59353 -201.181936 
L 131.84742 -201.850856 
L 132.10131 -202.51091 
L 132.355201 -203.16198 
L 132.609091 -203.80395 
L 132.862981 -204.436703 
L 133.116871 -205.060128 
L 133.370762 -205.67411 
L 133.624652 -206.278539 
L 133.878542 -206.873305 
L 134.132432 -207.458301 
L 134.386323 -208.03342 
L 134.640213 -208.598556 
L 134.894103 -209.153607 
L 135.147993 -209.698471 
L 135.401884 -210.233048 
L 135.655774 -210.757238 
L 135.909664 -211.270946 
L 136.163554 -211.774077 
L 136.417445 -212.266538 
L 136.671335 -212.748236 
L 136.925225 -213.219084 
L 137.179115 -213.678992 
L 137.433006 -214.127876 
L 137.686896 -214.565651 
L 137.940786 -214.992236 
L 138.194676 -215.407551 
L 138.448567 -215.811517 
L 138.702457 -216.204059 
L 138.956347 -216.585103 
L 139.210238 -216.954578 
L 139.464128 -217.312413 
L 139.718018 -217.65854 
L 139.971908 -217.992896 
L 140.225799 -218.315415 
L 140.479689 -218.626037 
L 140.733579 -218.924703 
L 140.987469 -219.211357 
L 141.24136 -219.485943 
L 141.49525 -219.74841 
L 141.74914 -219.998707 
L 142.00303 -220.236786 
L 142.256921 -220.462603 
L 142.510811 -220.676114 
L 142.764701 -220.877278 
L 143.018591 -221.066058 
L 143.272482 -221.242415 
L 143.526372 -221.406318 
L 143.780262 -221.557734 
L 144.034152 -221.696634 
L 144.288043 -221.822992 
L 144.541933 -221.936784 
L 144.795823 -222.037987 
L 145.049713 -222.126583 
L 145.303604 -222.202553 
L 145.557494 -222.265885 
L 145.811384 -222.316564 
L 146.065274 -222.354582 
L 146.319165 -222.379932 
L 146.573055 -222.392608 
L 146.826945 -222.392608 
L 147.080835 -222.379932 
L 147.334726 -222.354582 
L 147.588616 -222.316564 
L 147.842506 -222.265885 
L 148.096396 -222.202553 
L 148.350287 -222.126583 
L 148.604177 -222.037987 
L 148.858067 -221.936784 
L 149.111957 -221.822992 
L 149.365848 -221.696634 
L 149.619738 -221.557734 
L 149.873628 -221.406318 
L 150.127518 -221.242415 
L 150.381409 -221.066058 
L 150.635299 -220.877278 
L 150.889189 -220.676114 
L 151.143079 -220.462603 
L 151.39697 -220.236786 
L 151.65086 -219.998707 
L 151.90475 -219.74841 
L 152.15864 -219.485943 
L 152.412531 -219.211357 
L 152.666421 -218.924703 
L 152.920311 -218.626037 
L 153.174201 -218.315415 
L 153.428092 -217.992896 
L 153.681982 -217.65854 
L 153.935872 -217.312413 
L 154.189762 -216.954578 
L 154.443653 -216.585103 
L 154.697543 -216.204059 
L 154.951433 -215.811517 
L 155.205324 -215.407551 
L 155.459214 -214.992236 
L 155.713104 -214.565651 
L 155.966994 -214.127876 
L 156.220885 -213.678992 
L 156.474775 -213.219084 
L 156.728665 -212.748236 
L 156.982555 -212.266538 
L 157.236446 -211.774077 
L 157.490336 -211.270946 
L 157.744226 -210.757238 
L 157.998116 -210.233048 
L 158.252007 -209.698471 
L 158.505897 -209.153607 
L 158.759787 -208.598556 
L 159.013677 -208.03342 
L 159.267568 -207.458301 
L 159.521458 -206.873305 
L 159.775348 -206.278539 
L 160.029238 -205.67411 
L 160.283129 -205.060128 
L 160.537019 -204.436703 
L 160.790909 -203.80395 
L 161.044799 -203.16198 
L 161.29869 -202.51091 
L 161.55258 -201.850856 
L 161.80647 -201.181936 
L 162.06036 -200.504269 
L 162.314251 -199.817975 
L 162.568141 -199.123177 
L 162.822031 -198.419996 
L 163.075921 -197.708556 
L 163.329812 -196.988982 
L 163.583702 -196.261401 
L 163.837592 -195.525938 
L 164.091482 -194.782723 
L 164.345373 -194.031884 
L 164.599263 -193.27355 
L 164.853153 -192.507853 
L 165.107043 -191.734923 
L 165.360934 -190.954893 
L 165.614824 -190.167896 
L 165.868714 -189.374065 
L 166.122604 -188.573535 
L 166.376495 -187.766441 
L 166.630385 -186.952919 
L 166.884275 -186.133104 
L 167.138165 -185.307134 
L 167.392056 -184.475145 
L 167.645946 -183.637275 
L 167.899836 -182.793662 
L 168.153726 -181.944444 
L 168.407617 -181.089761 
L 168.661507 -180.229751 
L 168.915397 -179.364553 
L 169.169287 -178.494308 
L 169.423178 -177.619154 
L 169.677068 -176.739232 
L 169.930958 -175.854681 
L 170.184848 -174.965642 
L 170.438739 -174.072255 
L 170.692629 -173.174659 
L 170.946519 -172.272996 
L 171.20041 -171.367404 
L 171.4543 -170.458024 
L 171.70819 -169.544995 
L 171.96208 -168.628458 
L 172.215971 -167.708551 
L 172.469861 -166.785414 
L 172.723751 -165.859185 
L 172.977641 -164.930003 
L 173.231532 -163.998007 
L 173.485422 -163.063333 
L 173.739312 -162.12612 
L 173.993202 -161.186505 
L 174.247093 -160.244624 
L 174.500983 -159.300613 
L 174.754873 -158.354607 
L 175.008763 -157.406742 
L 175.262654 -156.457152 
L 175.516544 -155.50597 
L 175.770434 -154.55333 
L 176.024324 -153.599364 
L 176.278215 -152.644203 
L 176.532105 -151.687979 
L 176.785995 -150.730821 
L 177.039885 -149.772859 
L 177.293776 -148.814222 
L 177.547666 -147.855037 
L 177.801556 -146.89543 
L 178.055446 -145.935529 
L 178.309337 -144.975457 
L 178.563227 -144.015339 
L 178.817117 -143.055297 
L 179.071007 -142.095454 
L 179.324898 -141.135931 
L 179.578788 -140.176847 
L 179.832678 -139.218322 
L 180.086568 -138.260474 
L 180.340459 -137.303418 
L 180.594349 -136.347271 
L 180.848239 -135.392146 
L 181.102129 -134.438158 
L 181.35602 -133.485418 
L 181.60991 -132.534037 
L 181.8638 -131.584124 
L 182.11769 -130.635789 
L 182.371581 -129.689137 
L 182.625471 -128.744275 
L 182.879361 -127.801308 
L 183.133251 -126.860338 
L 183.387142 -125.921468 
L 183.641032 -124.984798 
L 183.894922 -124.050427 
L 184.148812 -123.118453 
L 184.402703 -122.188973 
L 184.656593 -121.262081 
L 184.910483 -120.337872 
L 185.164373 -119.416437 
L 185.418264 -118.497868 
L 185.672154 -117.582254 
L 185.926044 -116.669682 
L 186.179934 -115.760241 
L 186.433825 -114.854014 
L 186.687715 -113.951085 
L 186.941605 -113.051537 
L 187.195495 -112.155449 
L 187.449386 -111.262903 
L 187.703276 -110.373974 
L 187.957166 -109.48874 
L 188.211057 -108.607275 
L 188.464947 -107.729652 
L 188.718837 -106.855944 
L 188.972727 -105.98622 
L 189.226618 -105.120549 
L 189.480508 -104.258999 
L 189.734398 -103.401635 
L 189.988288 -102.548521 
L 190.242179 -101.699721 
L 190.496069 -100.855295 
L 190.749959 -100.015304 
L 191.003849 -99.179804 
L 191.25774 -98.348854 
L 191.51163 -97.522508 
L 191.76552 -96.70082 
L 192.01941 -95.883843 
L 192.273301 -95.071626 
L 192.527191 -94.264219 
L 192.781081 -93.461671 
L 193.034971 -92.664027 
L 193.288862 -91.871331 
L 193.542752 -91.083628 
L 193.796642 -90.300959 
L 194.050532 -89.523365 
L 194.304423 -88.750885 
L 194.558313 -87.983555 
L 194.812203 -87.221413 
L 195.066093 -86.464493 
L 195.319984 -85.712828 
L 195.573874 -84.96645 
L 195.827764 -84.225389 
L 196.081654 -83.489674 
L 196.335545 -82.759334 
L 196.589435 -82.034395 
L 196.843325 -81.31488 
L 197.097215 -80.600815 
L 197.351106 -79.892221 
L 197.604996 -79.189119 
L 197.858886 -78.491529 
L 198.112776 -77.799468 
L 198.366667 -77.112955 
L 198.620557 -76.432005 
L 198.874447 -75.756632 
L 199.128337 -75.08685 
L 199.382228 -74.42267 
L 199.636118 -73.764103 
L 199.890008 -73.111159 
L 200.143898 -72.463846 
L 200.397789 -71.822171 
L 200.651679 -71.18614 
L 200.905569 -70.555758 
L 201.159459 -69.931029 
L 201.41335 -69.311955 
L 201.66724 -68.698538 
L 201.92113 -68.090778 
L 202.17502 -67.488673 
L 202.428911 -66.892223 
L 202.682801 -66.301425 
L 202.936691 -65.716274 
L 203.190581 -65.136765 
L 203.444472 -64.562893 
L 203.698362 -63.99465 
L 203.952252 -63.43203 
L 204.206143 -62.875022 
L 204.460033 -62.323617 
L 204.713923 -61.777804 
L 204.967813 -61.237572 
L 205.221704 -60.702907 
L 205.475594 -60.173797 
L 205.729484 -59.650227 
L 205.983374 -59.132183 
L 206.237265 -58.619647 
L 206.491155 -58.112603 
L 206.745045 -57.611035 
L 206.998935 -57.114922 
L 207.252826 -56.624246 
L 207.506716 -56.138988 
L 207.760606 -55.659126 
L 208.014496 -55.184639 
L 208.268387 -54.715505 
L 208.522277 -54.251702 
L 208.776167 -53.793206 
L 209.030057 -53.339993 
L 209.283948 -52.892038 
L 209.537838 -52.449316 
L 209.791728 -52.011801 
L 210.045618 -51.579467 
L 210.299509 -51.152286 
L 210.553399 -50.730231 
L 210.807289 -50.313274 
L 211.061179 -49.901386 
L 211.31507 -49.494538 
L 211.56896 -49.092701 
L 211.82285 -48.695843 
L 212.07674 -48.303935 
L 212.330631 -47.916945 
L 212.584521 -47.534842 
L 212.838411 -47.157595 
L 213.092301 -46.78517 
L 213.346192 -46.417535 
L 213.600082 -46.054657 
L 213.853972 -45.696503 
L 214.107862 -45.343039 
L 214.361753 -44.99423 
L 214.615643 -44.650043 
L 214.869533 -44.310443 
L 215.123423 -43.975395 
L 215.377314 -43.644863 
L 215.631204 -43.318812 
L 215.885094 -42.997206 
L 216.138984 -42.68001 
L 216.392875 -42.367186 
L 216.646765 -42.0587 
L 216.900655 -41.754513 
L 217.154545 -41.45459 
L 217.408436 -41.158893 
L 217.662326 -40.867386 
L 217.916216 -40.580031 
L 218.170106 -40.29679 
L 218.423997 -40.017627 
L 218.677887 -39.742503 
L 218.931777 -39.471381 
L 219.185667 -39.204224 
L 219.439558 -38.940993 
L 219.693448 -38.68165 
L 219.947338 -38.426158 
L 220.201229 -38.174478 
L 220.455119 -37.926573 
L 220.709009 -37.682404 
L 220.962899 -37.441934 
L 221.21679 -37.205124 
L 221.47068 -36.971936 
L 221.72457 -36.742333 
L 221.97846 -36.516275 
L 222.232351 -36.293726 
L 222.486241 -36.074648 
L 222.740131 -35.859002 
L 222.994021 -35.646751 
L 223.247912 -35.437856 
L 223.501802 -35.232281 
L 223.755692 -35.029988 
L 224.009582 -34.83094 
L 224.263473 -34.635098 
L 224.517363 -34.442426 
L 224.771253 -34.252887 
L 225.025143 -34.066443 
L 225.279034 -33.883058 
L 225.532924 -33.702695 
L 225.786814 -33.525318 
L 226.040704 -33.350889 
L 226.294595 -33.179374 
L 226.548485 -33.010735 
L 226.802375 -32.844937 
L 227.056265 -32.681944 
L 227.310156 -32.52172 
L 227.564046 -32.36423 
L 227.817936 -32.209439 
L 228.071826 -32.057312 
L 228.325717 -31.907814 
L 228.579607 -31.76091 
L 228.833497 -31.616566 
L 229.087387 -31.474749 
L 229.341278 -31.335423 
L 229.595168 -31.198555 
L 229.849058 -31.064113 
L 230.102948 -30.932061 
L 230.356839 -30.802369 
L 230.610729 -30.675002 
L 230.864619 -30.549928 
L 231.118509 -30.427115 
L 231.3724 -30.306531 
L 231.62629 -30.188144 
L 231.88018 -30.071922 
L 232.13407 -29.957835 
L 232.387961 -29.845851 
L 232.641851 -29.735939 
L 232.895741 -29.62807 
L 233.149631 -29.522212 
L 233.403522 -29.418336 
L 233.657412 -29.316412 
L 233.911302 -29.21641 
L 234.165192 -29.118303 
L 234.419083 -29.022059 
L 234.672973 -28.927652 
L 234.926863 -28.835053 
L 235.180753 -28.744234 
L 235.434644 -28.655166 
L 235.688534 -28.567823 
L 235.942424 -28.482177 
L 236.196314 -28.398202 
L 236.450205 -28.31587 
L 236.704095 -28.235156 
L 236.957985 -28.156033 
L 237.211876 -28.078475 
L 237.465766 -28.002458 
L 237.719656 -27.927955 
L 237.973546 -27.854943 
L 238.227437 -27.783395 
L 238.481327 -27.713289 
L 238.735217 -27.644599 
L 238.989107 -27.577302 
L 239.242998 -27.511375 
L 239.496888 -27.446793 
L 239.750778 -27.383536 
L 240.004668 -27.321578 
L 240.258559 -27.260899 
L 240.512449 -27.201476 
L 240.766339 -27.143287 
L 241.020229 -27.086311 
L 241.27412 -27.030526 
L 241.52801 -26.975912 
L 241.7819 -26.922447 
L 242.03579 -26.870111 
L 242.289681 -26.818885 
L 242.543571 -26.768747 
L 242.797461 -26.719679 
L 243.051351 -26.67166 
L 243.305242 -26.624673 
L 243.559132 -26.578697 
L 243.813022 -26.533715 
L 244.066912 -26.489708 
L 244.320803 -26.446658 
L 244.574693 -26.404547 
L 244.828583 -26.363357 
L 245.082473 -26.323072 
L 245.336364 -26.283674 
L 245.590254 -26.245146 
L 245.844144 -26.207473 
L 246.098034 -26.170636 
L 246.351925 -26.134621 
L 246.605815 -26.099412 
L 246.859705 -26.064993 
L 247.113595 -26.031348 
L 247.367486 -25.998463 
L 247.621376 -25.966323 
L 247.875266 -25.934912 
L 248.129156 -25.904217 
L 248.383047 -25.874224 
L 248.636937 -25.844918 
L 248.890827 -25.816286 
L 249.144717 -25.788314 
L 249.398608 -25.760988 
L 249.652498 -25.734297 
L 249.906388 -25.708226 
L 250.160278 -25.682764 
L 250.414169 -25.657898 
L 250.668059 -25.633615 
L 250.921949 -25.609903 
L 251.175839 -25.586752 
L 251.42973 -25.564148 
L 251.68362 -25.542081 
L 251.93751 -25.52054 
L 252.1914 -25.499513 
L 252.445291 -25.478989 
L 252.699181 -25.458959 
L 252.953071 -25.439411 
L 253.206962 -25.420334 
L 253.460852 -25.40172 
L 253.714742 -25.383558 
L 253.968632 -25.365839 
L 254.222523 -25.348552 
L 254.476413 -25.331688 
L 254.730303 -25.315239 
L 254.984193 -25.299195 
L 255.238084 -25.283547 
L 255.491974 -25.268286 
L 255.745864 -25.253405 
L 255.999754 -25.238894 
L 256.253645 -25.224745 
L 256.507535 -25.21095 
L 256.761425 -25.197502 
L 257.015315 -25.184393 
L 257.269206 -25.171614 
L 257.523096 -25.159158 
L 257.776986 -25.147019 
L 258.030876 -25.135188 
L 258.284767 -25.123659 
L 258.538657 -25.112425 
L 258.792547 -25.10148 
L 259.046437 -25.090815 
L 259.300328 -25.080426 
L 259.554218 -25.070305 
L 259.808108 -25.060446 
L 260.061998 -25.050843 
L 260.315889 -25.041491 
L 260.569779 -25.032383 
L 260.823669 -25.023513 
L 261.077559 -25.014876 
L 261.33145 -25.006466 
L 261.58534 -24.998279 
L 261.83923 -24.990308 
L 262.09312 -24.982548 
L 262.347011 -24.974994 
L 262.600901 -24.967642 
L 262.854791 -24.960486 
L 263.108681 -24.953522 
L 263.362572 -24.946746 
L 263.616462 -24.940151 
L 263.870352 -24.933734 
L 264.124242 -24.927491 
L 264.378133 -24.921418 
L 264.632023 -24.915509 
L 264.885913 -24.909762 
L 265.139803 -24.904171 
L 265.393694 -24.898734 
L 265.647584 -24.893446 
L 265.901474 -24.888304 
L 266.155364 -24.883303 
L 266.409255 -24.878441 
L 266.663145 -24.873713 
L 266.917035 -24.869117 
L 267.170925 -24.864649 
L 267.424816 -24.860306 
L 267.678706 -24.856084 
L 267.932596 -24.851981 
L 268.186486 -24.847993 
L 268.440377 -24.844118 
L 268.694267 -24.840352 
L 268.948157 -24.836692 
L 269.202048 -24.833137 
L 269.455938 -24.829683 
L 269.709828 -24.826327 
L 269.963718 -24.823067 
L 270.217609 -24.819901 
L 270.471499 -24.816826 
L 270.725389 -24.813839 
L 270.979279 -24.810938 
L 271.23317 -24.808121 
L 271.48706 -24.805386 
L 271.74095 -24.80273 
L 271.99484 -24.800152 
L 272.248731 -24.797649 
L 272.502621 -24.795219 
L 272.756511 -24.79286 
L 273.010401 -24.790571 
L 273.264292 -24.788349 
L 273.518182 -24.786193 
L 273.518182 -24.719881 
L 273.518182 -24.719881 
L 273.264292 -24.719881 
L 273.010401 -24.719881 
L 272.756511 -24.719881 
L 272.502621 -24.719881 
L 272.248731 -24.719881 
L 271.99484 -24.719881 
L 271.74095 -24.719881 
L 271.48706 -24.719881 
L 271.23317 -24.719881 
L 270.979279 -24.719881 
L 270.725389 -24.719881 
L 270.471499 -24.719881 
L 270.217609 -24.719881 
L 269.963718 -24.719881 
L 269.709828 -24.719881 
L 269.455938 -24.719881 
L 269.202048 -24.719881 
L 268.948157 -24.719881 
L 268.694267 -24.719881 
L 268.440377 -24.719881 
L 268.186486 -24.719881 
L 267.932596 -24.719881 
L 267.678706 -24.719881 
L 267.424816 -24.719881 
L 267.170925 -24.719881 
L 266.917035 -24.719881 
L 266.663145 -24.719881 
L 266.409255 -24.719881 
L 266.155364 -24.719881 
L 265.901474 -24.719881 
L 265.647584 -24.719881 
L 265.393694 -24.719881 
L 265.139803 -24.719881 
L 264.885913 -24.719881 
L 264.632023 -24.719881 
L 264.378133 -24.719881 
L 264.124242 -24.719881 
L 263.870352 -24.719881 
L 263.616462 -24.719881 
L 263.362572 -24.719881 
L 263.108681 -24.719881 
L 262.854791 -24.719881 
L 262.600901 -24.719881 
L 262.347011 -24.719881 
L 262.09312 -24.719881 
L 261.83923 -24.719881 
L 261.58534 -24.719881 
L 261.33145 -24.719881 
L 261.077559 -24.719881 
L 260.823669 -24.719881 
L 260.569779 -24.719881 
L 260.315889 -24.719881 
L 260.061998 -24.719881 
L 259.808108 -24.719881 
L 259.554218 -24.719881 
L 259.300328 -24.719881 
L 259.046437 -24.719881 
L 258.792547 -24.719881 
L 258.538657 -24.719881 
L 258.284767 -24.719881 
L 258.030876 -24.719881 
L 257.776986 -24.719881 
L 257.523096 -24.719881 
L 257.269206 -24.719881 
L 257.015315 -24.719881 
L 256.761425 -24.719881 
L 256.507535 -24.719881 
L 256.253645 -24.719881 
L 255.999754 -24.719881 
L 255.745864 -24.719881 
L 255.491974 -24.719881 
L 255.238084 -24.719881 
L 254.984193 -24.719881 
L 254.730303 -24.719881 
L 254.476413 -24.719881 
L 254.222523 -24.719881 
L 253.968632 -24.719881 
L 253.714742 -24.719881 
L 253.460852 -24.719881 
L 253.206962 -24.719881 
L 252.953071 -24.719881 
L 252.699181 -24.719881 
L 252.445291 -24.719881 
L 252.1914 -24.719881 
L 251.93751 -24.719881 
L 251.68362 -24.719881 
L 251.42973 -24.719881 
L 251.175839 -24.719881 
L 250.921949 -24.719881 
L 250.668059 -24.719881 
L 250.414169 -24.719881 
L 250.160278 -24.719881 
L 249.906388 -24.719881 
L 249.652498 -24.719881 
L 249.398608 -24.719881 
L 249.144717 -24.719881 
L 248.890827 -24.719881 
L 248.636937 -24.719881 
L 248.383047 -24.719881 
L 248.129156 -24.719881 
L 247.875266 -24.719881 
L 247.621376 -24.719881 
L 247.367486 -24.719881 
L 247.113595 -24.719881 
L 246.859705 -24.719881 
L 246.605815 -24.719881 
L 246.351925 -24.719881 
L 246.098034 -24.719881 
L 245.844144 -24.719881 
L 245.590254 -24.719881 
L 245.336364 -24.719881 
L 245.082473 -24.719881 
L 244.828583 -24.719881 
L 244.574693 -24.719881 
L 244.320803 -24.719881 
L 244.066912 -24.719881 
L 243.813022 -24.719881 
L 243.559132 -24.719881 
L 243.305242 -24.719881 
L 243.051351 -24.719881 
L 242.797461 -24.719881 
L 242.543571 -24.719881 
L 242.289681 -24.719881 
L 242.03579 -24.719881 
L 241.7819 -24.719881 
L 241.52801 -24.719881 
L 241.27412 -24.719881 
L 241.020229 -24.719881 
L 240.766339 -24.719881 
L 240.512449 -24.719881 
L 240.258559 -24.719881 
L 240.004668 -24.719881 
L 239.750778 -24.719881 
L 239.496888 -24.719881 
L 239.242998 -24.719881 
L 238.989107 -24.719881 
L 238.735217 -24.719881 
L 238.481327 -24.719881 
L 238.227437 -24.719881 
L 237.973546 -24.719881 
L 237.719656 -24.719881 
L 237.465766 -24.719881 
L 237.211876 -24.719881 
L 236.957985 -24.719881 
L 236.704095 -24.719881 
L 236.450205 -24.719881 
L 236.196314 -24.719881 
L 235.942424 -24.719881 
L 235.688534 -24.719881 
L 235.434644 -24.719881 
L 235.180753 -24.719881 
L 234.926863 -24.719881 
L 234.672973 -24.719881 
L 234.419083 -24.719881 
L 234.165192 -24.719881 
L 233.911302 -24.719881 
L 233.657412 -24.719881 
L 233.403522 -24.719881 
L 233.149631 -24.719881 
L 232.895741 -24.719881 
L 232.641851 -24.719881 
L 232.387961 -24.719881 
L 232.13407 -24.719881 
L 231.88018 -24.719881 
L 231.62629 -24.719881 
L 231.3724 -24.719881 
L 231.118509 -24.719881 
L 230.864619 -24.719881 
L 230.610729 -24.719881 
L 230.356839 -24.719881 
L 230.102948 -24.719881 
L 229.849058 -24.719881 
L 229.595168 -24.719881 
L 229.341278 -24.719881 
L 229.087387 -24.719881 
L 228.833497 -24.719881 
L 228.579607 -24.719881 
L 228.325717 -24.719881 
L 228.071826 -24.719881 
L 227.817936 -24.719881 
L 227.564046 -24.719881 
L 227.310156 -24.719881 
L 227.056265 -24.719881 
L 226.802375 -24.719881 
L 226.548485 -24.719881 
L 226.294595 -24.719881 
L 226.040704 -24.719881 
L 225.786814 -24.719881 
L 225.532924 -24.719881 
L 225.279034 -24.719881 
L 225.025143 -24.719881 
L 224.771253 -24.719881 
L 224.517363 -24.719881 
L 224.263473 -24.719881 
L 224.009582 -24.719881 
L 223.755692 -24.719881 
L 223.501802 -24.719881 
L 223.247912 -24.719881 
L 222.994021 -24.719881 
L 222.740131 -24.719881 
L 222.486241 -24.719881 
L 222.232351 -24.719881 
L 221.97846 -24.719881 
L 221.72457 -24.719881 
L 221.47068 -24.719881 
L 221.21679 -24.719881 
L 220.962899 -24.719881 
L 220.709009 -24.719881 
L 220.455119 -24.719881 
L 220.201229 -24.719881 
L 219.947338 -24.719881 
L 219.693448 -24.719881 
L 219.439558 -24.719881 
L 219.185667 -24.719881 
L 218.931777 -24.719881 
L 218.677887 -24.719881 
L 218.423997 -24.719881 
L 218.170106 -24.719881 
L 217.916216 -24.719881 
L 217.662326 -24.719881 
L 217.408436 -24.719881 
L 217.154545 -24.719881 
L 216.900655 -24.719881 
L 216.646765 -24.719881 
L 216.392875 -24.719881 
L 216.138984 -24.719881 
L 215.885094 -24.719881 
L 215.631204 -24.719881 
L 215.377314 -24.719881 
L 215.123423 -24.719881 
L 214.869533 -24.719881 
L 214.615643 -24.719881 
L 214.361753 -24.719881 
L 214.107862 -24.719881 
L 213.853972 -24.719881 
L 213.600082 -24.719881 
L 213.346192 -24.719881 
L 213.092301 -24.719881 
L 212.838411 -24.719881 
L 212.584521 -24.719881 
L 212.330631 -24.719881 
L 212.07674 -24.719881 
L 211.82285 -24.719881 
L 211.56896 -24.719881 
L 211.31507 -24.719881 
L 211.061179 -24.719881 
L 210.807289 -24.719881 
L 210.553399 -24.719881 
L 210.299509 -24.719881 
L 210.045618 -24.719881 
L 209.791728 -24.719881 
L 209.537838 -24.719881 
L 209.283948 -24.719881 
L 209.030057 -24.719881 
L 208.776167 -24.719881 
L 208.522277 -24.719881 
L 208.268387 -24.719881 
L 208.014496 -24.719881 
L 207.760606 -24.719881 
L 207.506716 -24.719881 
L 207.252826 -24.719881 
L 206.998935 -24.719881 
L 206.745045 -24.719881 
L 206.491155 -24.719881 
L 206.237265 -24.719881 
L 205.983374 -24.719881 
L 205.729484 -24.719881 
L 205.475594 -24.719881 
L 205.221704 -24.719881 
L 204.967813 -24.719881 
L 204.713923 -24.719881 
L 204.460033 -24.719881 
L 204.206143 -24.719881 
L 203.952252 -24.719881 
L 203.698362 -24.719881 
L 203.444472 -24.719881 
L 203.190581 -24.719881 
L 202.936691 -24.719881 
L 202.682801 -24.719881 
L 202.428911 -24.719881 
L 202.17502 -24.719881 
L 201.92113 -24.719881 
L 201.66724 -24.719881 
L 201.41335 -24.719881 
L 201.159459 -24.719881 
L 200.905569 -24.719881 
L 200.651679 -24.719881 
L 200.397789 -24.719881 
L 200.143898 -24.719881 
L 199.890008 -24.719881 
L 199.636118 -24.719881 
L 199.382228 -24.719881 
L 199.128337 -24.719881 
L 198.874447 -24.719881 
L 198.620557 -24.719881 
L 198.366667 -24.719881 
L 198.112776 -24.719881 
L 197.858886 -24.719881 
L 197.604996 -24.719881 
L 197.351106 -24.719881 
L 197.097215 -24.719881 
L 196.843325 -24.719881 
L 196.589435 -24.719881 
L 196.335545 -24.719881 
L 196.081654 -24.719881 
L 195.827764 -24.719881 
L 195.573874 -24.719881 
L 195.319984 -24.719881 
L 195.066093 -24.719881 
L 194.812203 -24.719881 
L 194.558313 -24.719881 
L 194.304423 -24.719881 
L 194.050532 -24.719881 
L 193.796642 -24.719881 
L 193.542752 -24.719881 
L 193.288862 -24.719881 
L 193.034971 -24.719881 
L 192.781081 -24.719881 
L 192.527191 -24.719881 
L 192.273301 -24.719881 
L 192.01941 -24.719881 
L 191.76552 -24.719881 
L 191.51163 -24.719881 
L 191.25774 -24.719881 
L 191.003849 -24.719881 
L 190.749959 -24.719881 
L 190.496069 -24.719881 
L 190.242179 -24.719881 
L 189.988288 -24.719881 
L 189.734398 -24.719881 
L 189.480508 -24.719881 
L 189.226618 -24.719881 
L 188.972727 -24.719881 
L 188.718837 -24.719881 
L 188.464947 -24.719881 
L 188.211057 -24.719881 
L 187.957166 -24.719881 
L 187.703276 -24.719881 
L 187.449386 -24.719881 
L 187.195495 -24.719881 
L 186.941605 -24.719881 
L 186.687715 -24.719881 
L 186.433825 -24.719881 
L 186.179934 -24.719881 
L 185.926044 -24.719881 
L 185.672154 -24.719881 
L 185.418264 -24.719881 
L 185.164373 -24.719881 
L 184.910483 -24.719881 
L 184.656593 -24.719881 
L 184.402703 -24.719881 
L 184.148812 -24.719881 
L 183.894922 -24.719881 
L 183.641032 -24.719881 
L 183.387142 -24.719881 
L 183.133251 -24.719881 
L 182.879361 -24.719881 
L 182.625471 -24.719881 
L 182.371581 -24.719881 
L 182.11769 -24.719881 
L 181.8638 -24.719881 
L 181.60991 -24.719881 
L 181.35602 -24.719881 
L 181.102129 -24.719881 
L 180.848239 -24.719881 
L 180.594349 -24.719881 
L 180.340459 -24.719881 
L 180.086568 -24.719881 
L 179.832678 -24.719881 
L 179.578788 -24.719881 
L 179.324898 -24.719881 
L 179.071007 -24.719881 
L 178.817117 -24.719881 
L 178.563227 -24.719881 
L 178.309337 -24.719881 
L 178.055446 -24.719881 
L 177.801556 -24.719881 
L 177.547666 -24.719881 
L 177.293776 -24.719881 
L 177.039885 -24.719881 
L 176.785995 -24.719881 
L 176.532105 -24.719881 
L 176.278215 -24.719881 
L 176.024324 -24.719881 
L 175.770434 -24.719881 
L 175.516544 -24.719881 
L 175.262654 -24.719881 
L 175.008763 -24.719881 
L 174.754873 -24.719881 
L 174.500983 -24.719881 
L 174.247093 -24.719881 
L 173.993202 -24.719881 
L 173.739312 -24.719881 
L 173.485422 -24.719881 
L 173.231532 -24.719881 
L 172.977641 -24.719881 
L 172.723751 -24.719881 
L 172.469861 -24.719881 
L 172.215971 -24.719881 
L 171.96208 -24.719881 
L 171.70819 -24.719881 
L 171.4543 -24.719881 
L 171.20041 -24.719881 
L 170.946519 -24.719881 
L 170.692629 -24.719881 
L 170.438739 -24.719881 
L 170.184848 -24.719881 
L 169.930958 -24.719881 
L 169.677068 -24.719881 
L 169.423178 -24.719881 
L 169.169287 -24.719881 
L 168.915397 -24.719881 
L 168.661507 -24.719881 
L 168.407617 -24.719881 
L 168.153726 -24.719881 
L 167.899836 -24.719881 
L 167.645946 -24.719881 
L 167.392056 -24.719881 
L 167.138165 -24.719881 
L 166.884275 -24.719881 
L 166.630385 -24.719881 
L 166.376495 -24.719881 
L 166.122604 -24.719881 
L 165.868714 -24.719881 
L 165.614824 -24.719881 
L 165.360934 -24.719881 
L 165.107043 -24.719881 
L 164.853153 -24.719881 
L 164.599263 -24.719881 
L 164.345373 -24.719881 
L 164.091482 -24.719881 
L 163.837592 -24.719881 
L 163.583702 -24.719881 
L 163.329812 -24.719881 
L 163.075921 -24.719881 
L 162.822031 -24.719881 
L 162.568141 -24.719881 
L 162.314251 -24.719881 
L 162.06036 -24.719881 
L 161.80647 -24.719881 
L 161.55258 -24.719881 
L 161.29869 -24.719881 
L 161.044799 -24.719881 
L 160.790909 -24.719881 
L 160.537019 -24.719881 
L 160.283129 -24.719881 
L 160.029238 -24.719881 
L 159.775348 -24.719881 
L 159.521458 -24.719881 
L 159.267568 -24.719881 
L 159.013677 -24.719881 
L 158.759787 -24.719881 
L 158.505897 -24.719881 
L 158.252007 -24.719881 
L 157.998116 -24.719881 
L 157.744226 -24.719881 
L 157.490336 -24.719881 
L 157.236446 -24.719881 
L 156.982555 -24.719881 
L 156.728665 -24.719881 
L 156.474775 -24.719881 
L 156.220885 -24.719881 
L 155.966994 -24.719881 
L 155.713104 -24.719881 
L 155.459214 -24.719881 
L 155.205324 -24.719881 
L 154.951433 -24.719881 
L 154.697543 -24.719881 
L 154.443653 -24.719881 
L 154.189762 -24.719881 
L 153.935872 -24.719881 
L 153.681982 -24.719881 
L 153.428092 -24.719881 
L 153.174201 -24.719881 
L 152.920311 -24.719881 
L 152.666421 -24.719881 
L 152.412531 -24.719881 
L 152.15864 -24.719881 
L 151.90475 -24.719881 
L 151.65086 -24.719881 
L 151.39697 -24.719881 
L 151.143079 -24.719881 
L 150.889189 -24.719881 
L 150.635299 -24.719881 
L 150.381409 -24.719881 
L 150.127518 -24.719881 
L 149.873628 -24.719881 
L 149.619738 -24.719881 
L 149.365848 -24.719881 
L 149.111957 -24.719881 
L 148.858067 -24.719881 
L 148.604177 -24.719881 
L 148.350287 -24.719881 
L 148.096396 -24.719881 
L 147.842506 -24.719881 
L 147.588616 -24.719881 
L 147.334726 -24.719881 
L 147.080835 -24.719881 
L 146.826945 -24.719881 
L 146.573055 -24.719881 
L 146.319165 -24.719881 
L 146.065274 -24.719881 
L 145.811384 -24.719881 
L 145.557494 -24.719881 
L 145.303604 -24.719881 
L 145.049713 -24.719881 
L 144.795823 -24.719881 
L 144.541933 -24.719881 
L 144.288043 -24.719881 
L 144.034152 -24.719881 
L 143.780262 -24.719881 
L 143.526372 -24.719881 
L 143.272482 -24.719881 
L 143.018591 -24.719881 
L 142.764701 -24.719881 
L 142.510811 -24.719881 
L 142.256921 -24.719881 
L 142.00303 -24.719881 
L 141.74914 -24.719881 
L 141.49525 -24.719881 
L 141.24136 -24.719881 
L 140.987469 -24.719881 
L 140.733579 -24.719881 
L 140.479689 -24.719881 
L 140.225799 -24.719881 
L 139.971908 -24.719881 
L 139.718018 -24.719881 
L 139.464128 -24.719881 
L 139.210238 -24.719881 
L 138.956347 -24.719881 
L 138.702457 -24.719881 
L 138.448567 -24.719881 
L 138.194676 -24.719881 
L 137.940786 -24.719881 
L 137.686896 -24.719881 
L 137.433006 -24.719881 
L 137.179115 -24.719881 
L 136.925225 -24.719881 
L 136.671335 -24.719881 
L 136.417445 -24.719881 
L 136.163554 -24.719881 
L 135.909664 -24.719881 
L 135.655774 -24.719881 
L 135.401884 -24.719881 
L 135.147993 -24.719881 
L 134.894103 -24.719881 
L 134.640213 -24.719881 
L 134.386323 -24.719881 
L 134.132432 -24.719881 
L 133.878542 -24.719881 
L 133.624652 -24.719881 
L 133.370762 -24.719881 
L 133.116871 -24.719881 
L 132.862981 -24.719881 
L 132.609091 -24.719881 
L 132.355201 -24.719881 
L 132.10131 -24.719881 
L 131.84742 -24.719881 
L 131.59353 -24.719881 
L 131.33964 -24.719881 
L 131.085749 -24.719881 
L 130.831859 -24.719881 
L 130.577969 -24.719881 
L 130.324079 -24.719881 
L 130.070188 -24.719881 
L 129.816298 -24.719881 
L 129.562408 -24.719881 
L 129.308518 -24.719881 
L 129.054627 -24.719881 
L 128.800737 -24.719881 
L 128.546847 -24.719881 
L 128.292957 -24.719881 
L 128.039066 -24.719881 
L 127.785176 -24.719881 
L 127.531286 -24.719881 
L 127.277396 -24.719881 
L 127.023505 -24.719881 
L 126.769615 -24.719881 
L 126.515725 -24.719881 
L 126.261835 -24.719881 
L 126.007944 -24.719881 
L 125.754054 -24.719881 
L 125.500164 -24.719881 
L 125.246274 -24.719881 
L 124.992383 -24.719881 
L 124.738493 -24.719881 
L 124.484603 -24.719881 
L 124.230713 -24.719881 
L 123.976822 -24.719881 
L 123.722932 -24.719881 
L 123.469042 -24.719881 
L 123.215152 -24.719881 
L 122.961261 -24.719881 
L 122.707371 -24.719881 
L 122.453481 -24.719881 
L 122.19959 -24.719881 
L 121.9457 -24.719881 
L 121.69181 -24.719881 
L 121.43792 -24.719881 
L 121.184029 -24.719881 
L 120.930139 -24.719881 
L 120.676249 -24.719881 
L 120.422359 -24.719881 
L 120.168468 -24.719881 
L 119.914578 -24.719881 
L 119.660688 -24.719881 
L 119.406798 -24.719881 
L 119.152907 -24.719881 
L 118.899017 -24.719881 
L 118.645127 -24.719881 
L 118.391237 -24.719881 
L 118.137346 -24.719881 
L 117.883456 -24.719881 
L 117.629566 -24.719881 
L 117.375676 -24.719881 
L 117.121785 -24.719881 
L 116.867895 -24.719881 
L 116.614005 -24.719881 
L 116.360115 -24.719881 
L 116.106224 -24.719881 
L 115.852334 -24.719881 
L 115.598444 -24.719881 
L 115.344554 -24.719881 
L 115.090663 -24.719881 
L 114.836773 -24.719881 
L 114.582883 -24.719881 
L 114.328993 -24.719881 
L 114.075102 -24.719881 
L 113.821212 -24.719881 
L 113.567322 -24.719881 
L 113.313432 -24.719881 
L 113.059541 -24.719881 
L 112.805651 -24.719881 
L 112.551761 -24.719881 
L 112.297871 -24.719881 
L 112.04398 -24.719881 
L 111.79009 -24.719881 
L 111.5362 -24.719881 
L 111.28231 -24.719881 
L 111.028419 -24.719881 
L 110.774529 -24.719881 
L 110.520639 -24.719881 
L 110.266749 -24.719881 
L 110.012858 -24.719881 
L 109.758968 -24.719881 
L 109.505078 -24.719881 
L 109.251188 -24.719881 
L 108.997297 -24.719881 
L 108.743407 -24.719881 
L 108.489517 -24.719881 
L 108.235627 -24.719881 
L 107.981736 -24.719881 
L 107.727846 -24.719881 
L 107.473956 -24.719881 
L 107.220066 -24.719881 
L 106.966175 -24.719881 
L 106.712285 -24.719881 
L 106.458395 -24.719881 
L 106.204505 -24.719881 
L 105.950614 -24.719881 
L 105.696724 -24.719881 
L 105.442834 -24.719881 
L 105.188943 -24.719881 
L 104.935053 -24.719881 
L 104.681163 -24.719881 
L 104.427273 -24.719881 
L 104.173382 -24.719881 
L 103.919492 -24.719881 
L 103.665602 -24.719881 
L 103.411712 -24.719881 
L 103.157821 -24.719881 
L 102.903931 -24.719881 
L 102.650041 -24.719881 
L 102.396151 -24.719881 
L 102.14226 -24.719881 
L 101.88837 -24.719881 
L 101.63448 -24.719881 
L 101.38059 -24.719881 
L 101.126699 -24.719881 
L 100.872809 -24.719881 
L 100.618919 -24.719881 
L 100.365029 -24.719881 
L 100.111138 -24.719881 
L 99.857248 -24.719881 
L 99.603358 -24.719881 
L 99.349468 -24.719881 
L 99.095577 -24.719881 
L 98.841687 -24.719881 
L 98.587797 -24.719881 
L 98.333907 -24.719881 
L 98.080016 -24.719881 
L 97.826126 -24.719881 
L 97.572236 -24.719881 
L 97.318346 -24.719881 
L 97.064455 -24.719881 
L 96.810565 -24.719881 
L 96.556675 -24.719881 
L 96.302785 -24.719881 
L 96.048894 -24.719881 
L 95.795004 -24.719881 
L 95.541114 -24.719881 
L 95.287224 -24.719881 
L 95.033333 -24.719881 
L 94.779443 -24.719881 
L 94.525553 -24.719881 
L 94.271663 -24.719881 
L 94.017772 -24.719881 
L 93.763882 -24.719881 
L 93.509992 -24.719881 
L 93.256102 -24.719881 
L 93.002211 -24.719881 
L 92.748321 -24.719881 
L 92.494431 -24.719881 
L 92.240541 -24.719881 
L 91.98665 -24.719881 
L 91.73276 -24.719881 
L 91.47887 -24.719881 
L 91.22498 -24.719881 
L 90.971089 -24.719881 
L 90.717199 -24.719881 
L 90.463309 -24.719881 
L 90.209419 -24.719881 
L 89.955528 -24.719881 
L 89.701638 -24.719881 
L 89.447748 -24.719881 
L 89.193857 -24.719881 
L 88.939967 -24.719881 
L 88.686077 -24.719881 
L 88.432187 -24.719881 
L 88.178296 -24.719881 
L 87.924406 -24.719881 
L 87.670516 -24.719881 
L 87.416626 -24.719881 
L 87.162735 -24.719881 
L 86.908845 -24.719881 
L 86.654955 -24.719881 
L 86.401065 -24.719881 
L 86.147174 -24.719881 
L 85.893284 -24.719881 
L 85.639394 -24.719881 
L 85.385504 -24.719881 
L 85.131613 -24.719881 
L 84.877723 -24.719881 
L 84.623833 -24.719881 
L 84.369943 -24.719881 
L 84.116052 -24.719881 
L 83.862162 -24.719881 
L 83.608272 -24.719881 
L 83.354382 -24.719881 
L 83.100491 -24.719881 
L 82.846601 -24.719881 
L 82.592711 -24.719881 
L 82.338821 -24.719881 
L 82.08493 -24.719881 
L 81.83104 -24.719881 
L 81.57715 -24.719881 
L 81.32326 -24.719881 
L 81.069369 -24.719881 
L 80.815479 -24.719881 
L 80.561589 -24.719881 
L 80.307699 -24.719881 
L 80.053808 -24.719881 
L 79.799918 -24.719881 
L 79.546028 -24.719881 
L 79.292138 -24.719881 
L 79.038247 -24.719881 
L 78.784357 -24.719881 
L 78.530467 -24.719881 
L 78.276577 -24.719881 
L 78.022686 -24.719881 
L 77.768796 -24.719881 
L 77.514906 -24.719881 
L 77.261016 -24.719881 
L 77.007125 -24.719881 
L 76.753235 -24.719881 
L 76.499345 -24.719881 
L 76.245455 -24.719881 
L 75.991564 -24.719881 
L 75.737674 -24.719881 
L 75.483784 -24.719881 
L 75.229894 -24.719881 
L 74.976003 -24.719881 
L 74.722113 -24.719881 
L 74.468223 -24.719881 
L 74.214333 -24.719881 
L 73.960442 -24.719881 
L 73.706552 -24.719881 
L 73.452662 -24.719881 
L 73.198771 -24.719881 
L 72.944881 -24.719881 
L 72.690991 -24.719881 
L 72.437101 -24.719881 
L 72.18321 -24.719881 
L 71.92932 -24.719881 
L 71.67543 -24.719881 
L 71.42154 -24.719881 
L 71.167649 -24.719881 
L 70.913759 -24.719881 
L 70.659869 -24.719881 
L 70.405979 -24.719881 
L 70.152088 -24.719881 
L 69.898198 -24.719881 
L 69.644308 -24.719881 
L 69.390418 -24.719881 
L 69.136527 -24.719881 
L 68.882637 -24.719881 
L 68.628747 -24.719881 
L 68.374857 -24.719881 
L 68.120966 -24.719881 
L 67.867076 -24.719881 
L 67.613186 -24.719881 
L 67.359296 -24.719881 
L 67.105405 -24.719881 
L 66.851515 -24.719881 
L 66.597625 -24.719881 
L 66.343735 -24.719881 
L 66.089844 -24.719881 
L 65.835954 -24.719881 
L 65.582064 -24.719881 
L 65.328174 -24.719881 
L 65.074283 -24.719881 
L 64.820393 -24.719881 
L 64.566503 -24.719881 
L 64.312613 -24.719881 
L 64.058722 -24.719881 
L 63.804832 -24.719881 
L 63.550942 -24.719881 
L 63.297052 -24.719881 
L 63.043161 -24.719881 
L 62.789271 -24.719881 
L 62.535381 -24.719881 
L 62.281491 -24.719881 
L 62.0276 -24.719881 
L 61.77371 -24.719881 
L 61.51982 -24.719881 
L 61.26593 -24.719881 
L 61.012039 -24.719881 
L 60.758149 -24.719881 
L 60.504259 -24.719881 
L 60.250369 -24.719881 
L 59.996478 -24.719881 
L 59.742588 -24.719881 
L 59.488698 -24.719881 
L 59.234808 -24.719881 
L 58.980917 -24.719881 
L 58.727027 -24.719881 
L 58.473137 -24.719881 
L 58.219247 -24.719881 
L 57.965356 -24.719881 
L 57.711466 -24.719881 
L 57.457576 -24.719881 
L 57.203686 -24.719881 
L 56.949795 -24.719881 
L 56.695905 -24.719881 
L 56.442015 -24.719881 
L 56.188124 -24.719881 
L 55.934234 -24.719881 
L 55.680344 -24.719881 
L 55.426454 -24.719881 
L 55.172563 -24.719881 
L 54.918673 -24.719881 
L 54.664783 -24.719881 
L 54.410893 -24.719881 
L 54.157002 -24.719881 
L 53.903112 -24.719881 
L 53.649222 -24.719881 
L 53.395332 -24.719881 
L 53.141441 -24.719881 
L 52.887551 -24.719881 
L 52.633661 -24.719881 
L 52.379771 -24.719881 
L 52.12588 -24.719881 
L 51.87199 -24.719881 
L 51.6181 -24.719881 
L 51.36421 -24.719881 
L 51.110319 -24.719881 
L 50.856429 -24.719881 
L 50.602539 -24.719881 
L 50.348649 -24.719881 
L 50.094758 -24.719881 
L 49.840868 -24.719881 
L 49.586978 -24.719881 
L 49.333088 -24.719881 
L 49.079197 -24.719881 
L 48.825307 -24.719881 
L 48.571417 -24.719881 
L 48.317527 -24.719881 
L 48.063636 -24.719881 
L 47.809746 -24.719881 
L 47.555856 -24.719881 
L 47.301966 -24.719881 
L 47.048075 -24.719881 
L 46.794185 -24.719881 
L 46.540295 -24.719881 
L 46.286405 -24.719881 
L 46.032514 -24.719881 
L 45.778624 -24.719881 
L 45.524734 -24.719881 
L 45.270844 -24.719881 
L 45.016953 -24.719881 
L 44.763063 -24.719881 
L 44.509173 -24.719881 
L 44.255283 -24.719881 
L 44.001392 -24.719881 
L 43.747502 -24.719881 
L 43.493612 -24.719881 
L 43.239722 -24.719881 
L 42.985831 -24.719881 
L 42.731941 -24.719881 
L 42.478051 -24.719881 
L 42.224161 -24.719881 
L 41.97027 -24.719881 
L 41.71638 -24.719881 
L 41.46249 -24.719881 
L 41.2086 -24.719881 
L 40.954709 -24.719881 
L 40.700819 -24.719881 
L 40.446929 -24.719881 
L 40.193038 -24.719881 
L 39.939148 -24.719881 
L 39.685258 -24.719881 
L 39.431368 -24.719881 
L 39.177477 -24.719881 
L 38.923587 -24.719881 
L 38.669697 -24.719881 
L 38.415807 -24.719881 
L 38.161916 -24.719881 
L 37.908026 -24.719881 
L 37.654136 -24.719881 
L 37.400246 -24.719881 
L 37.146355 -24.719881 
L 36.892465 -24.719881 
L 36.638575 -24.719881 
L 36.384685 -24.719881 
L 36.130794 -24.719881 
L 35.876904 -24.719881 
L 35.623014 -24.719881 
L 35.369124 -24.719881 
L 35.115233 -24.719881 
L 34.861343 -24.719881 
L 34.607453 -24.719881 
L 34.353563 -24.719881 
L 34.099672 -24.719881 
L 33.845782 -24.719881 
L 33.591892 -24.719881 
L 33.338002 -24.719881 
L 33.084111 -24.719881 
L 32.830221 -24.719881 
L 32.576331 -24.719881 
L 32.322441 -24.719881 
L 32.06855 -24.719881 
L 31.81466 -24.719881 
L 31.56077 -24.719881 
L 31.30688 -24.719881 
L 31.052989 -24.719881 
L 30.799099 -24.719881 
L 30.545209 -24.719881 
L 30.291319 -24.719881 
L 30.037428 -24.719881 
L 29.783538 -24.719881 
L 29.529648 -24.719881 
L 29.275758 -24.719881 
L 29.021867 -24.719881 
L 28.767977 -24.719881 
L 28.514087 -24.719881 
L 28.260197 -24.719881 
L 28.006306 -24.719881 
L 27.752416 -24.719881 
L 27.498526 -24.719881 
L 27.244636 -24.719881 
L 26.990745 -24.719881 
L 26.736855 -24.719881 
L 26.482965 -24.719881 
L 26.229075 -24.719881 
L 25.975184 -24.719881 
L 25.721294 -24.719881 
L 25.467404 -24.719881 
L 25.213514 -24.719881 
L 24.959623 -24.719881 
L 24.705733 -24.719881 
L 24.451843 -24.719881 
L 24.197952 -24.719881 
L 23.944062 -24.719881 
L 23.690172 -24.719881 
L 23.436282 -24.719881 
L 23.182391 -24.719881 
L 22.928501 -24.719881 
L 22.674611 -24.719881 
L 22.420721 -24.719881 
L 22.16683 -24.719881 
L 21.91294 -24.719881 
L 21.65905 -24.719881 
L 21.40516 -24.719881 
L 21.151269 -24.719881 
L 20.897379 -24.719881 
L 20.643489 -24.719881 
L 20.389599 -24.719881 
L 20.135708 -24.719881 
L 19.881818 -24.719881 
z
" id="m5d076a64fc"/>
    </defs>
    <g clip-path="url(#pbc598bd097)">
     <use style="fill:#0000ff;fill-opacity:0.1;" x="0" xlink:href="#m5d076a64fc" y="239.476244"/>
    </g>
   </g>
   <g id="PolyCollection_2">
    <defs>
     <path d="M 199.636118 -24.719881 
L 199.636118 -73.764103 
L 199.890008 -73.111159 
L 200.143898 -72.463846 
L 200.397789 -71.822171 
L 200.651679 -71.18614 
L 200.905569 -70.555758 
L 201.159459 -69.931029 
L 201.41335 -69.311955 
L 201.66724 -68.698538 
L 201.92113 -68.090778 
L 202.17502 -67.488673 
L 202.428911 -66.892223 
L 202.682801 -66.301425 
L 202.936691 -65.716274 
L 203.190581 -65.136765 
L 203.444472 -64.562893 
L 203.698362 -63.99465 
L 203.952252 -63.43203 
L 204.206143 -62.875022 
L 204.460033 -62.323617 
L 204.713923 -61.777804 
L 204.967813 -61.237572 
L 205.221704 -60.702907 
L 205.475594 -60.173797 
L 205.729484 -59.650227 
L 205.983374 -59.132183 
L 206.237265 -58.619647 
L 206.491155 -58.112603 
L 206.745045 -57.611035 
L 206.998935 -57.114922 
L 207.252826 -56.624246 
L 207.506716 -56.138988 
L 207.760606 -55.659126 
L 208.014496 -55.184639 
L 208.268387 -54.715505 
L 208.522277 -54.251702 
L 208.776167 -53.793206 
L 209.030057 -53.339993 
L 209.283948 -52.892038 
L 209.537838 -52.449316 
L 209.791728 -52.011801 
L 210.045618 -51.579467 
L 210.299509 -51.152286 
L 210.553399 -50.730231 
L 210.807289 -50.313274 
L 211.061179 -49.901386 
L 211.31507 -49.494538 
L 211.56896 -49.092701 
L 211.82285 -48.695843 
L 212.07674 -48.303935 
L 212.330631 -47.916945 
L 212.584521 -47.534842 
L 212.838411 -47.157595 
L 213.092301 -46.78517 
L 213.346192 -46.417535 
L 213.600082 -46.054657 
L 213.853972 -45.696503 
L 214.107862 -45.343039 
L 214.361753 -44.99423 
L 214.615643 -44.650043 
L 214.869533 -44.310443 
L 215.123423 -43.975395 
L 215.377314 -43.644863 
L 215.631204 -43.318812 
L 215.885094 -42.997206 
L 216.138984 -42.68001 
L 216.392875 -42.367186 
L 216.646765 -42.0587 
L 216.900655 -41.754513 
L 217.154545 -41.45459 
L 217.408436 -41.158893 
L 217.662326 -40.867386 
L 217.916216 -40.580031 
L 218.170106 -40.29679 
L 218.423997 -40.017627 
L 218.677887 -39.742503 
L 218.931777 -39.471381 
L 219.185667 -39.204224 
L 219.439558 -38.940993 
L 219.693448 -38.68165 
L 219.947338 -38.426158 
L 220.201229 -38.174478 
L 220.455119 -37.926573 
L 220.709009 -37.682404 
L 220.962899 -37.441934 
L 221.21679 -37.205124 
L 221.47068 -36.971936 
L 221.72457 -36.742333 
L 221.97846 -36.516275 
L 222.232351 -36.293726 
L 222.486241 -36.074648 
L 222.740131 -35.859002 
L 222.994021 -35.646751 
L 223.247912 -35.437856 
L 223.501802 -35.232281 
L 223.755692 -35.029988 
L 224.009582 -34.83094 
L 224.263473 -34.635098 
L 224.517363 -34.442426 
L 224.771253 -34.252887 
L 225.025143 -34.066443 
L 225.279034 -33.883058 
L 225.532924 -33.702695 
L 225.786814 -33.525318 
L 226.040704 -33.350889 
L 226.294595 -33.179374 
L 226.548485 -33.010735 
L 226.802375 -32.844937 
L 227.056265 -32.681944 
L 227.310156 -32.52172 
L 227.564046 -32.36423 
L 227.817936 -32.209439 
L 228.071826 -32.057312 
L 228.325717 -31.907814 
L 228.579607 -31.76091 
L 228.833497 -31.616566 
L 229.087387 -31.474749 
L 229.341278 -31.335423 
L 229.595168 -31.198555 
L 229.849058 -31.064113 
L 230.102948 -30.932061 
L 230.356839 -30.802369 
L 230.610729 -30.675002 
L 230.864619 -30.549928 
L 231.118509 -30.427115 
L 231.3724 -30.306531 
L 231.62629 -30.188144 
L 231.88018 -30.071922 
L 232.13407 -29.957835 
L 232.387961 -29.845851 
L 232.641851 -29.735939 
L 232.895741 -29.62807 
L 233.149631 -29.522212 
L 233.403522 -29.418336 
L 233.657412 -29.316412 
L 233.911302 -29.21641 
L 234.165192 -29.118303 
L 234.419083 -29.022059 
L 234.672973 -28.927652 
L 234.926863 -28.835053 
L 235.180753 -28.744234 
L 235.434644 -28.655166 
L 235.688534 -28.567823 
L 235.942424 -28.482177 
L 236.196314 -28.398202 
L 236.450205 -28.31587 
L 236.704095 -28.235156 
L 236.957985 -28.156033 
L 237.211876 -28.078475 
L 237.465766 -28.002458 
L 237.719656 -27.927955 
L 237.973546 -27.854943 
L 238.227437 -27.783395 
L 238.481327 -27.713289 
L 238.735217 -27.644599 
L 238.989107 -27.577302 
L 239.242998 -27.511375 
L 239.496888 -27.446793 
L 239.750778 -27.383536 
L 240.004668 -27.321578 
L 240.258559 -27.260899 
L 240.512449 -27.201476 
L 240.766339 -27.143287 
L 241.020229 -27.086311 
L 241.27412 -27.030526 
L 241.52801 -26.975912 
L 241.7819 -26.922447 
L 242.03579 -26.870111 
L 242.289681 -26.818885 
L 242.543571 -26.768747 
L 242.797461 -26.719679 
L 243.051351 -26.67166 
L 243.305242 -26.624673 
L 243.559132 -26.578697 
L 243.813022 -26.533715 
L 244.066912 -26.489708 
L 244.320803 -26.446658 
L 244.574693 -26.404547 
L 244.828583 -26.363357 
L 245.082473 -26.323072 
L 245.336364 -26.283674 
L 245.590254 -26.245146 
L 245.844144 -26.207473 
L 246.098034 -26.170636 
L 246.351925 -26.134621 
L 246.605815 -26.099412 
L 246.859705 -26.064993 
L 247.113595 -26.031348 
L 247.367486 -25.998463 
L 247.621376 -25.966323 
L 247.875266 -25.934912 
L 248.129156 -25.904217 
L 248.383047 -25.874224 
L 248.636937 -25.844918 
L 248.890827 -25.816286 
L 249.144717 -25.788314 
L 249.398608 -25.760988 
L 249.652498 -25.734297 
L 249.906388 -25.708226 
L 250.160278 -25.682764 
L 250.414169 -25.657898 
L 250.668059 -25.633615 
L 250.921949 -25.609903 
L 251.175839 -25.586752 
L 251.42973 -25.564148 
L 251.68362 -25.542081 
L 251.93751 -25.52054 
L 252.1914 -25.499513 
L 252.445291 -25.478989 
L 252.699181 -25.458959 
L 252.953071 -25.439411 
L 253.206962 -25.420334 
L 253.460852 -25.40172 
L 253.714742 -25.383558 
L 253.968632 -25.365839 
L 254.222523 -25.348552 
L 254.476413 -25.331688 
L 254.730303 -25.315239 
L 254.984193 -25.299195 
L 255.238084 -25.283547 
L 255.491974 -25.268286 
L 255.745864 -25.253405 
L 255.999754 -25.238894 
L 256.253645 -25.224745 
L 256.507535 -25.21095 
L 256.761425 -25.197502 
L 257.015315 -25.184393 
L 257.269206 -25.171614 
L 257.523096 -25.159158 
L 257.776986 -25.147019 
L 258.030876 -25.135188 
L 258.284767 -25.123659 
L 258.538657 -25.112425 
L 258.792547 -25.10148 
L 259.046437 -25.090815 
L 259.300328 -25.080426 
L 259.554218 -25.070305 
L 259.808108 -25.060446 
L 260.061998 -25.050843 
L 260.315889 -25.041491 
L 260.569779 -25.032383 
L 260.823669 -25.023513 
L 261.077559 -25.014876 
L 261.33145 -25.006466 
L 261.58534 -24.998279 
L 261.83923 -24.990308 
L 262.09312 -24.982548 
L 262.347011 -24.974994 
L 262.600901 -24.967642 
L 262.854791 -24.960486 
L 263.108681 -24.953522 
L 263.362572 -24.946746 
L 263.616462 -24.940151 
L 263.870352 -24.933734 
L 264.124242 -24.927491 
L 264.378133 -24.921418 
L 264.632023 -24.915509 
L 264.885913 -24.909762 
L 265.139803 -24.904171 
L 265.393694 -24.898734 
L 265.647584 -24.893446 
L 265.901474 -24.888304 
L 266.155364 -24.883303 
L 266.409255 -24.878441 
L 266.663145 -24.873713 
L 266.917035 -24.869117 
L 267.170925 -24.864649 
L 267.424816 -24.860306 
L 267.678706 -24.856084 
L 267.932596 -24.851981 
L 268.186486 -24.847993 
L 268.440377 -24.844118 
L 268.694267 -24.840352 
L 268.948157 -24.836692 
L 269.202048 -24.833137 
L 269.455938 -24.829683 
L 269.709828 -24.826327 
L 269.963718 -24.823067 
L 270.217609 -24.819901 
L 270.471499 -24.816826 
L 270.725389 -24.813839 
L 270.979279 -24.810938 
L 271.23317 -24.808121 
L 271.48706 -24.805386 
L 271.74095 -24.80273 
L 271.99484 -24.800152 
L 272.248731 -24.797649 
L 272.502621 -24.795219 
L 272.756511 -24.79286 
L 273.010401 -24.790571 
L 273.264292 -24.788349 
L 273.518182 -24.786193 
L 273.518182 -24.719881 
L 273.518182 -24.719881 
L 273.264292 -24.719881 
L 273.010401 -24.719881 
L 272.756511 -24.719881 
L 272.502621 -24.719881 
L 272.248731 -24.719881 
L 271.99484 -24.719881 
L 271.74095 -24.719881 
L 271.48706 -24.719881 
L 271.23317 -24.719881 
L 270.979279 -24.719881 
L 270.725389 -24.719881 
L 270.471499 -24.719881 
L 270.217609 -24.719881 
L 269.963718 -24.719881 
L 269.709828 -24.719881 
L 269.455938 -24.719881 
L 269.202048 -24.719881 
L 268.948157 -24.719881 
L 268.694267 -24.719881 
L 268.440377 -24.719881 
L 268.186486 -24.719881 
L 267.932596 -24.719881 
L 267.678706 -24.719881 
L 267.424816 -24.719881 
L 267.170925 -24.719881 
L 266.917035 -24.719881 
L 266.663145 -24.719881 
L 266.409255 -24.719881 
L 266.155364 -24.719881 
L 265.901474 -24.719881 
L 265.647584 -24.719881 
L 265.393694 -24.719881 
L 265.139803 -24.719881 
L 264.885913 -24.719881 
L 264.632023 -24.719881 
L 264.378133 -24.719881 
L 264.124242 -24.719881 
L 263.870352 -24.719881 
L 263.616462 -24.719881 
L 263.362572 -24.719881 
L 263.108681 -24.719881 
L 262.854791 -24.719881 
L 262.600901 -24.719881 
L 262.347011 -24.719881 
L 262.09312 -24.719881 
L 261.83923 -24.719881 
L 261.58534 -24.719881 
L 261.33145 -24.719881 
L 261.077559 -24.719881 
L 260.823669 -24.719881 
L 260.569779 -24.719881 
L 260.315889 -24.719881 
L 260.061998 -24.719881 
L 259.808108 -24.719881 
L 259.554218 -24.719881 
L 259.300328 -24.719881 
L 259.046437 -24.719881 
L 258.792547 -24.719881 
L 258.538657 -24.719881 
L 258.284767 -24.719881 
L 258.030876 -24.719881 
L 257.776986 -24.719881 
L 257.523096 -24.719881 
L 257.269206 -24.719881 
L 257.015315 -24.719881 
L 256.761425 -24.719881 
L 256.507535 -24.719881 
L 256.253645 -24.719881 
L 255.999754 -24.719881 
L 255.745864 -24.719881 
L 255.491974 -24.719881 
L 255.238084 -24.719881 
L 254.984193 -24.719881 
L 254.730303 -24.719881 
L 254.476413 -24.719881 
L 254.222523 -24.719881 
L 253.968632 -24.719881 
L 253.714742 -24.719881 
L 253.460852 -24.719881 
L 253.206962 -24.719881 
L 252.953071 -24.719881 
L 252.699181 -24.719881 
L 252.445291 -24.719881 
L 252.1914 -24.719881 
L 251.93751 -24.719881 
L 251.68362 -24.719881 
L 251.42973 -24.719881 
L 251.175839 -24.719881 
L 250.921949 -24.719881 
L 250.668059 -24.719881 
L 250.414169 -24.719881 
L 250.160278 -24.719881 
L 249.906388 -24.719881 
L 249.652498 -24.719881 
L 249.398608 -24.719881 
L 249.144717 -24.719881 
L 248.890827 -24.719881 
L 248.636937 -24.719881 
L 248.383047 -24.719881 
L 248.129156 -24.719881 
L 247.875266 -24.719881 
L 247.621376 -24.719881 
L 247.367486 -24.719881 
L 247.113595 -24.719881 
L 246.859705 -24.719881 
L 246.605815 -24.719881 
L 246.351925 -24.719881 
L 246.098034 -24.719881 
L 245.844144 -24.719881 
L 245.590254 -24.719881 
L 245.336364 -24.719881 
L 245.082473 -24.719881 
L 244.828583 -24.719881 
L 244.574693 -24.719881 
L 244.320803 -24.719881 
L 244.066912 -24.719881 
L 243.813022 -24.719881 
L 243.559132 -24.719881 
L 243.305242 -24.719881 
L 243.051351 -24.719881 
L 242.797461 -24.719881 
L 242.543571 -24.719881 
L 242.289681 -24.719881 
L 242.03579 -24.719881 
L 241.7819 -24.719881 
L 241.52801 -24.719881 
L 241.27412 -24.719881 
L 241.020229 -24.719881 
L 240.766339 -24.719881 
L 240.512449 -24.719881 
L 240.258559 -24.719881 
L 240.004668 -24.719881 
L 239.750778 -24.719881 
L 239.496888 -24.719881 
L 239.242998 -24.719881 
L 238.989107 -24.719881 
L 238.735217 -24.719881 
L 238.481327 -24.719881 
L 238.227437 -24.719881 
L 237.973546 -24.719881 
L 237.719656 -24.719881 
L 237.465766 -24.719881 
L 237.211876 -24.719881 
L 236.957985 -24.719881 
L 236.704095 -24.719881 
L 236.450205 -24.719881 
L 236.196314 -24.719881 
L 235.942424 -24.719881 
L 235.688534 -24.719881 
L 235.434644 -24.719881 
L 235.180753 -24.719881 
L 234.926863 -24.719881 
L 234.672973 -24.719881 
L 234.419083 -24.719881 
L 234.165192 -24.719881 
L 233.911302 -24.719881 
L 233.657412 -24.719881 
L 233.403522 -24.719881 
L 233.149631 -24.719881 
L 232.895741 -24.719881 
L 232.641851 -24.719881 
L 232.387961 -24.719881 
L 232.13407 -24.719881 
L 231.88018 -24.719881 
L 231.62629 -24.719881 
L 231.3724 -24.719881 
L 231.118509 -24.719881 
L 230.864619 -24.719881 
L 230.610729 -24.719881 
L 230.356839 -24.719881 
L 230.102948 -24.719881 
L 229.849058 -24.719881 
L 229.595168 -24.719881 
L 229.341278 -24.719881 
L 229.087387 -24.719881 
L 228.833497 -24.719881 
L 228.579607 -24.719881 
L 228.325717 -24.719881 
L 228.071826 -24.719881 
L 227.817936 -24.719881 
L 227.564046 -24.719881 
L 227.310156 -24.719881 
L 227.056265 -24.719881 
L 226.802375 -24.719881 
L 226.548485 -24.719881 
L 226.294595 -24.719881 
L 226.040704 -24.719881 
L 225.786814 -24.719881 
L 225.532924 -24.719881 
L 225.279034 -24.719881 
L 225.025143 -24.719881 
L 224.771253 -24.719881 
L 224.517363 -24.719881 
L 224.263473 -24.719881 
L 224.009582 -24.719881 
L 223.755692 -24.719881 
L 223.501802 -24.719881 
L 223.247912 -24.719881 
L 222.994021 -24.719881 
L 222.740131 -24.719881 
L 222.486241 -24.719881 
L 222.232351 -24.719881 
L 221.97846 -24.719881 
L 221.72457 -24.719881 
L 221.47068 -24.719881 
L 221.21679 -24.719881 
L 220.962899 -24.719881 
L 220.709009 -24.719881 
L 220.455119 -24.719881 
L 220.201229 -24.719881 
L 219.947338 -24.719881 
L 219.693448 -24.719881 
L 219.439558 -24.719881 
L 219.185667 -24.719881 
L 218.931777 -24.719881 
L 218.677887 -24.719881 
L 218.423997 -24.719881 
L 218.170106 -24.719881 
L 217.916216 -24.719881 
L 217.662326 -24.719881 
L 217.408436 -24.719881 
L 217.154545 -24.719881 
L 216.900655 -24.719881 
L 216.646765 -24.719881 
L 216.392875 -24.719881 
L 216.138984 -24.719881 
L 215.885094 -24.719881 
L 215.631204 -24.719881 
L 215.377314 -24.719881 
L 215.123423 -24.719881 
L 214.869533 -24.719881 
L 214.615643 -24.719881 
L 214.361753 -24.719881 
L 214.107862 -24.719881 
L 213.853972 -24.719881 
L 213.600082 -24.719881 
L 213.346192 -24.719881 
L 213.092301 -24.719881 
L 212.838411 -24.719881 
L 212.584521 -24.719881 
L 212.330631 -24.719881 
L 212.07674 -24.719881 
L 211.82285 -24.719881 
L 211.56896 -24.719881 
L 211.31507 -24.719881 
L 211.061179 -24.719881 
L 210.807289 -24.719881 
L 210.553399 -24.719881 
L 210.299509 -24.719881 
L 210.045618 -24.719881 
L 209.791728 -24.719881 
L 209.537838 -24.719881 
L 209.283948 -24.719881 
L 209.030057 -24.719881 
L 208.776167 -24.719881 
L 208.522277 -24.719881 
L 208.268387 -24.719881 
L 208.014496 -24.719881 
L 207.760606 -24.719881 
L 207.506716 -24.719881 
L 207.252826 -24.719881 
L 206.998935 -24.719881 
L 206.745045 -24.719881 
L 206.491155 -24.719881 
L 206.237265 -24.719881 
L 205.983374 -24.719881 
L 205.729484 -24.719881 
L 205.475594 -24.719881 
L 205.221704 -24.719881 
L 204.967813 -24.719881 
L 204.713923 -24.719881 
L 204.460033 -24.719881 
L 204.206143 -24.719881 
L 203.952252 -24.719881 
L 203.698362 -24.719881 
L 203.444472 -24.719881 
L 203.190581 -24.719881 
L 202.936691 -24.719881 
L 202.682801 -24.719881 
L 202.428911 -24.719881 
L 202.17502 -24.719881 
L 201.92113 -24.719881 
L 201.66724 -24.719881 
L 201.41335 -24.719881 
L 201.159459 -24.719881 
L 200.905569 -24.719881 
L 200.651679 -24.719881 
L 200.397789 -24.719881 
L 200.143898 -24.719881 
L 199.890008 -24.719881 
L 199.636118 -24.719881 
z
" id="md25b2a367a"/>
    </defs>
    <g clip-path="url(#pbc598bd097)">
     <use style="fill:#0000ff;fill-opacity:0.9;" x="0" xlink:href="#md25b2a367a" y="239.476244"/>
    </g>
   </g>
   <g id="matplotlib.axis_1"/>
   <g id="matplotlib.axis_2"/>
   <g id="text_1">
    <!-- Edge weight -->
    <g transform="translate(113.678437 229.621244)scale(0.12 -0.12)">
     <defs>
      <path d="M 547 4591 
L 3894 4591 
L 3894 4028 
L 1153 4028 
L 1153 2634 
L 3688 2634 
L 3688 2103 
L 1153 2103 
L 1153 547 
L 3941 547 
L 3941 0 
L 547 0 
L 547 4591 
z
M 2244 4591 
L 2244 4591 
z
" id="Helvetica-45" transform="scale(0.015625)"/>
      <path d="M 769 1634 
Q 769 1097 997 734 
Q 1225 372 1728 372 
Q 2119 372 2370 708 
Q 2622 1044 2622 1672 
Q 2622 2306 2362 2611 
Q 2103 2916 1722 2916 
Q 1297 2916 1033 2591 
Q 769 2266 769 1634 
z
M 1616 3406 
Q 2000 3406 2259 3244 
Q 2409 3150 2600 2916 
L 2600 4606 
L 3141 4606 
L 3141 0 
L 2634 0 
L 2634 466 
Q 2438 156 2169 18 
Q 1900 -119 1553 -119 
Q 994 -119 584 351 
Q 175 822 175 1603 
Q 175 2334 548 2870 
Q 922 3406 1616 3406 
z
" id="Helvetica-64" transform="scale(0.015625)"/>
      <path d="M 1594 3406 
Q 1988 3406 2281 3213 
Q 2441 3103 2606 2894 
L 2606 3316 
L 3125 3316 
L 3125 272 
Q 3125 -366 2938 -734 
Q 2588 -1416 1616 -1416 
Q 1075 -1416 706 -1173 
Q 338 -931 294 -416 
L 866 -416 
Q 906 -641 1028 -763 
Q 1219 -950 1628 -950 
Q 2275 -950 2475 -494 
Q 2594 -225 2584 466 
Q 2416 209 2178 84 
Q 1941 -41 1550 -41 
Q 1006 -41 598 345 
Q 191 731 191 1622 
Q 191 2463 602 2934 
Q 1013 3406 1594 3406 
z
M 2606 1688 
Q 2606 2309 2350 2609 
Q 2094 2909 1697 2909 
Q 1103 2909 884 2353 
Q 769 2056 769 1575 
Q 769 1009 998 714 
Q 1228 419 1616 419 
Q 2222 419 2469 966 
Q 2606 1275 2606 1688 
z
M 1659 3428 
L 1659 3428 
z
" id="Helvetica-67" transform="scale(0.015625)"/>
      <path d="M 1806 3422 
Q 2163 3422 2497 3255 
Q 2831 3088 3006 2822 
Q 3175 2569 3231 2231 
Q 3281 2000 3281 1494 
L 828 1494 
Q 844 984 1069 676 
Q 1294 369 1766 369 
Q 2206 369 2469 659 
Q 2619 828 2681 1050 
L 3234 1050 
Q 3213 866 3089 639 
Q 2966 413 2813 269 
Q 2556 19 2178 -69 
Q 1975 -119 1719 -119 
Q 1094 -119 659 336 
Q 225 791 225 1609 
Q 225 2416 662 2919 
Q 1100 3422 1806 3422 
z
M 2703 1941 
Q 2669 2306 2544 2525 
Q 2313 2931 1772 2931 
Q 1384 2931 1121 2651 
Q 859 2372 844 1941 
L 2703 1941 
z
M 1753 3428 
L 1753 3428 
z
" id="Helvetica-65" transform="scale(0.015625)"/>
      <path id="Helvetica-20" transform="scale(0.015625)"/>
      <path d="M 672 3347 
L 1316 709 
L 1969 3347 
L 2600 3347 
L 3256 725 
L 3941 3347 
L 4503 3347 
L 3531 0 
L 2947 0 
L 2266 2591 
L 1606 0 
L 1022 0 
L 56 3347 
L 672 3347 
z
" id="Helvetica-77" transform="scale(0.015625)"/>
      <path d="M 413 3331 
L 984 3331 
L 984 0 
L 413 0 
L 413 3331 
z
M 413 4591 
L 984 4591 
L 984 3953 
L 413 3953 
L 413 4591 
z
" id="Helvetica-69" transform="scale(0.015625)"/>
      <path d="M 413 4606 
L 975 4606 
L 975 2894 
Q 1175 3147 1334 3250 
Q 1606 3428 2013 3428 
Q 2741 3428 3000 2919 
Q 3141 2641 3141 2147 
L 3141 0 
L 2563 0 
L 2563 2109 
Q 2563 2478 2469 2650 
Q 2316 2925 1894 2925 
Q 1544 2925 1259 2684 
Q 975 2444 975 1775 
L 975 0 
L 413 0 
L 413 4606 
z
" id="Helvetica-68" transform="scale(0.015625)"/>
      <path d="M 525 4281 
L 1094 4281 
L 1094 3347 
L 1628 3347 
L 1628 2888 
L 1094 2888 
L 1094 703 
Q 1094 528 1213 469 
Q 1278 434 1431 434 
Q 1472 434 1519 436 
Q 1566 438 1628 444 
L 1628 0 
Q 1531 -28 1426 -40 
Q 1322 -53 1200 -53 
Q 806 -53 665 148 
Q 525 350 525 672 
L 525 2888 
L 72 2888 
L 72 3347 
L 525 3347 
L 525 4281 
z
" id="Helvetica-74" transform="scale(0.015625)"/>
     </defs>
     <use xlink:href="#Helvetica-45"/>
     <use x="66.699219" xlink:href="#Helvetica-64"/>
     <use x="122.314453" xlink:href="#Helvetica-67"/>
     <use x="177.929688" xlink:href="#Helvetica-65"/>
     <use x="233.544922" xlink:href="#Helvetica-20"/>
     <use x="261.328125" xlink:href="#Helvetica-77"/>
     <use x="333.544922" xlink:href="#Helvetica-65"/>
     <use x="389.160156" xlink:href="#Helvetica-69"/>
     <use x="411.376953" xlink:href="#Helvetica-67"/>
     <use x="466.992188" xlink:href="#Helvetica-68"/>
     <use x="522.607422" xlink:href="#Helvetica-74"/>
    </g>
   </g>
   <g id="text_2">
    <!-- Null distribution -->
    <g style="fill:#0000ff;opacity:0.1;" transform="translate(202.5 137.664)scale(0.11 -0.11)">
     <defs>
      <path d="M 488 4591 
L 1222 4591 
L 3541 872 
L 3541 4591 
L 4131 4591 
L 4131 0 
L 3434 0 
L 1081 3716 
L 1081 0 
L 488 0 
L 488 4591 
z
M 2269 4591 
L 2269 4591 
z
" id="Helvetica-4e" transform="scale(0.015625)"/>
      <path d="M 975 3347 
L 975 1125 
Q 975 869 1056 706 
Q 1206 406 1616 406 
Q 2203 406 2416 931 
Q 2531 1213 2531 1703 
L 2531 3347 
L 3094 3347 
L 3094 0 
L 2563 0 
L 2569 494 
Q 2459 303 2297 172 
Q 1975 -91 1516 -91 
Q 800 -91 541 388 
Q 400 644 400 1072 
L 400 3347 
L 975 3347 
z
M 1747 3428 
L 1747 3428 
z
" id="Helvetica-75" transform="scale(0.015625)"/>
      <path d="M 428 4591 
L 991 4591 
L 991 0 
L 428 0 
L 428 4591 
z
" id="Helvetica-6c" transform="scale(0.015625)"/>
      <path d="M 747 1050 
Q 772 769 888 619 
Q 1100 347 1625 347 
Q 1938 347 2175 483 
Q 2413 619 2413 903 
Q 2413 1119 2222 1231 
Q 2100 1300 1741 1391 
L 1294 1503 
Q 866 1609 663 1741 
Q 300 1969 300 2372 
Q 300 2847 642 3140 
Q 984 3434 1563 3434 
Q 2319 3434 2653 2991 
Q 2863 2709 2856 2384 
L 2325 2384 
Q 2309 2575 2191 2731 
Q 1997 2953 1519 2953 
Q 1200 2953 1036 2831 
Q 872 2709 872 2509 
Q 872 2291 1088 2159 
Q 1213 2081 1456 2022 
L 1828 1931 
Q 2434 1784 2641 1647 
Q 2969 1431 2969 969 
Q 2969 522 2630 197 
Q 2291 -128 1597 -128 
Q 850 -128 539 211 
Q 228 550 206 1050 
L 747 1050 
z
M 1578 3428 
L 1578 3428 
z
" id="Helvetica-73" transform="scale(0.015625)"/>
      <path d="M 428 3347 
L 963 3347 
L 963 2769 
Q 1028 2938 1284 3180 
Q 1541 3422 1875 3422 
Q 1891 3422 1928 3419 
Q 1966 3416 2056 3406 
L 2056 2813 
Q 2006 2822 1964 2825 
Q 1922 2828 1872 2828 
Q 1447 2828 1219 2554 
Q 991 2281 991 1925 
L 991 0 
L 428 0 
L 428 3347 
z
" id="Helvetica-72" transform="scale(0.015625)"/>
      <path d="M 369 4606 
L 916 4606 
L 916 2941 
Q 1100 3181 1356 3307 
Q 1613 3434 1913 3434 
Q 2538 3434 2927 3004 
Q 3316 2575 3316 1738 
Q 3316 944 2931 419 
Q 2547 -106 1866 -106 
Q 1484 -106 1222 78 
Q 1066 188 888 428 
L 888 0 
L 369 0 
L 369 4606 
z
M 1831 391 
Q 2288 391 2514 753 
Q 2741 1116 2741 1709 
Q 2741 2238 2514 2584 
Q 2288 2931 1847 2931 
Q 1463 2931 1173 2647 
Q 884 2363 884 1709 
Q 884 1238 1003 944 
Q 1225 391 1831 391 
z
" id="Helvetica-62" transform="scale(0.015625)"/>
      <path d="M 1741 363 
Q 2300 363 2508 786 
Q 2716 1209 2716 1728 
Q 2716 2197 2566 2491 
Q 2328 2953 1747 2953 
Q 1231 2953 997 2559 
Q 763 2166 763 1609 
Q 763 1075 997 719 
Q 1231 363 1741 363 
z
M 1763 3444 
Q 2409 3444 2856 3012 
Q 3303 2581 3303 1744 
Q 3303 934 2909 406 
Q 2516 -122 1688 -122 
Q 997 -122 590 345 
Q 184 813 184 1600 
Q 184 2444 612 2944 
Q 1041 3444 1763 3444 
z
M 1744 3428 
L 1744 3428 
z
" id="Helvetica-6f" transform="scale(0.015625)"/>
      <path d="M 413 3347 
L 947 3347 
L 947 2872 
Q 1184 3166 1450 3294 
Q 1716 3422 2041 3422 
Q 2753 3422 3003 2925 
Q 3141 2653 3141 2147 
L 3141 0 
L 2569 0 
L 2569 2109 
Q 2569 2416 2478 2603 
Q 2328 2916 1934 2916 
Q 1734 2916 1606 2875 
Q 1375 2806 1200 2600 
Q 1059 2434 1017 2257 
Q 975 2081 975 1753 
L 975 0 
L 413 0 
L 413 3347 
z
M 1734 3428 
L 1734 3428 
z
" id="Helvetica-6e" transform="scale(0.015625)"/>
     </defs>
     <use xlink:href="#Helvetica-4e"/>
     <use x="72.216797" xlink:href="#Helvetica-75"/>
     <use x="127.832031" xlink:href="#Helvetica-6c"/>
     <use x="150.048828" xlink:href="#Helvetica-6c"/>
     <use x="172.265625" xlink:href="#Helvetica-20"/>
     <use x="200.048828" xlink:href="#Helvetica-64"/>
     <use x="255.664062" xlink:href="#Helvetica-69"/>
     <use x="277.880859" xlink:href="#Helvetica-73"/>
     <use x="327.880859" xlink:href="#Helvetica-74"/>
     <use x="355.664062" xlink:href="#Helvetica-72"/>
     <use x="388.964844" xlink:href="#Helvetica-69"/>
     <use x="411.181641" xlink:href="#Helvetica-62"/>
     <use x="466.796875" xlink:href="#Helvetica-75"/>
     <use x="522.412109" xlink:href="#Helvetica-74"/>
     <use x="550.195312" xlink:href="#Helvetica-69"/>
     <use x="572.412109" xlink:href="#Helvetica-6f"/>
     <use x="628.027344" xlink:href="#Helvetica-6e"/>
    </g>
   </g>
   <g id="text_3">
    <!-- Significant edges -->
    <g style="fill:#0000ff;" transform="translate(202.5 148.536)scale(0.11 -0.11)">
     <defs>
      <path d="M 894 1481 
Q 916 1091 1078 847 
Q 1388 391 2169 391 
Q 2519 391 2806 491 
Q 3363 684 3363 1184 
Q 3363 1559 3128 1719 
Q 2891 1875 2384 1991 
L 1763 2131 
Q 1153 2269 900 2434 
Q 463 2722 463 3294 
Q 463 3913 891 4309 
Q 1319 4706 2103 4706 
Q 2825 4706 3329 4357 
Q 3834 4009 3834 3244 
L 3250 3244 
Q 3203 3613 3050 3809 
Q 2766 4169 2084 4169 
Q 1534 4169 1293 3937 
Q 1053 3706 1053 3400 
Q 1053 3063 1334 2906 
Q 1519 2806 2169 2656 
L 2813 2509 
Q 3278 2403 3531 2219 
Q 3969 1897 3969 1284 
Q 3969 522 3414 194 
Q 2859 -134 2125 -134 
Q 1269 -134 784 303 
Q 300 738 309 1481 
L 894 1481 
z
M 2150 4716 
L 2150 4716 
z
" id="Helvetica-53" transform="scale(0.015625)"/>
      <path d="M 553 3856 
Q 566 4206 675 4369 
Q 872 4656 1434 4656 
Q 1488 4656 1544 4653 
Q 1600 4650 1672 4644 
L 1672 4131 
Q 1584 4138 1545 4139 
Q 1506 4141 1472 4141 
Q 1216 4141 1166 4008 
Q 1116 3875 1116 3331 
L 1672 3331 
L 1672 2888 
L 1109 2888 
L 1109 0 
L 553 0 
L 553 2888 
L 88 2888 
L 88 3331 
L 553 3331 
L 553 3856 
z
" id="Helvetica-66" transform="scale(0.015625)"/>
      <path d="M 1703 3444 
Q 2269 3444 2623 3169 
Q 2978 2894 3050 2222 
L 2503 2222 
Q 2453 2531 2275 2736 
Q 2097 2941 1703 2941 
Q 1166 2941 934 2416 
Q 784 2075 784 1575 
Q 784 1072 996 728 
Q 1209 384 1666 384 
Q 2016 384 2220 598 
Q 2425 813 2503 1184 
L 3050 1184 
Q 2956 519 2581 211 
Q 2206 -97 1622 -97 
Q 966 -97 575 383 
Q 184 863 184 1581 
Q 184 2463 612 2953 
Q 1041 3444 1703 3444 
z
M 1616 3428 
L 1616 3428 
z
" id="Helvetica-63" transform="scale(0.015625)"/>
      <path d="M 844 891 
Q 844 647 1022 506 
Q 1200 366 1444 366 
Q 1741 366 2019 503 
Q 2488 731 2488 1250 
L 2488 1703 
Q 2384 1638 2221 1594 
Q 2059 1550 1903 1531 
L 1563 1488 
Q 1256 1447 1103 1359 
Q 844 1213 844 891 
z
M 2206 2028 
Q 2400 2053 2466 2191 
Q 2503 2266 2503 2406 
Q 2503 2694 2298 2823 
Q 2094 2953 1713 2953 
Q 1272 2953 1088 2716 
Q 984 2584 953 2325 
L 428 2325 
Q 444 2944 830 3186 
Q 1216 3428 1725 3428 
Q 2316 3428 2684 3203 
Q 3050 2978 3050 2503 
L 3050 575 
Q 3050 488 3086 434 
Q 3122 381 3238 381 
Q 3275 381 3322 386 
Q 3369 391 3422 400 
L 3422 -16 
Q 3291 -53 3222 -62 
Q 3153 -72 3034 -72 
Q 2744 -72 2613 134 
Q 2544 244 2516 444 
Q 2344 219 2022 53 
Q 1700 -113 1313 -113 
Q 847 -113 551 170 
Q 256 453 256 878 
Q 256 1344 547 1600 
Q 838 1856 1309 1916 
L 2206 2028 
z
M 1741 3428 
L 1741 3428 
z
" id="Helvetica-61" transform="scale(0.015625)"/>
     </defs>
     <use xlink:href="#Helvetica-53"/>
     <use x="66.699219" xlink:href="#Helvetica-69"/>
     <use x="88.916016" xlink:href="#Helvetica-67"/>
     <use x="144.53125" xlink:href="#Helvetica-6e"/>
     <use x="200.146484" xlink:href="#Helvetica-69"/>
     <use x="222.363281" xlink:href="#Helvetica-66"/>
     <use x="250.146484" xlink:href="#Helvetica-69"/>
     <use x="272.363281" xlink:href="#Helvetica-63"/>
     <use x="322.363281" xlink:href="#Helvetica-61"/>
     <use x="377.978516" xlink:href="#Helvetica-6e"/>
     <use x="433.59375" xlink:href="#Helvetica-74"/>
     <use x="461.376953" xlink:href="#Helvetica-20"/>
     <use x="489.160156" xlink:href="#Helvetica-65"/>
     <use x="544.775391" xlink:href="#Helvetica-64"/>
     <use x="600.390625" xlink:href="#Helvetica-67"/>
     <use x="656.005859" xlink:href="#Helvetica-65"/>
     <use x="711.621094" xlink:href="#Helvetica-73"/>
    </g>
   </g>
  </g>
  <g id="axes_2">
   <g id="patch_3">
    <path d="M 178.2 116.64 
L 286.2 116.64 
L 286.2 30.24 
L 178.2 30.24 
z
" style="fill:none;"/>
   </g>
   <g id="line2d_1">
    <path clip-path="url(#p01420c3b38)" d="M 201.518182 99.621818 
L 201.518182 99.621818 
" style="fill:none;stroke:#0000ff;stroke-linecap:square;stroke-opacity:0.1;"/>
   </g>
   <g id="line2d_2">
    <path clip-path="url(#p01420c3b38)" d="M 201.518182 99.621818 
L 219.927273 74.312727 
" style="fill:none;stroke:#0000ff;stroke-linecap:square;stroke-width:1.5;"/>
   </g>
   <g id="line2d_3">
    <path clip-path="url(#p01420c3b38)" d="M 201.518182 99.621818 
L 275.154545 82.167273 
" style="fill:none;stroke:#0000ff;stroke-linecap:square;stroke-width:1.5;"/>
   </g>
   <g id="line2d_4">
    <path clip-path="url(#p01420c3b38)" d="M 201.518182 99.621818 
L 226.063636 108.349091 
" style="fill:none;stroke:#0000ff;stroke-linecap:square;stroke-opacity:0.1;"/>
   </g>
   <g id="line2d_5">
    <path clip-path="url(#p01420c3b38)" d="M 201.518182 99.621818 
L 250.609091 47.258182 
" style="fill:none;stroke:#0000ff;stroke-linecap:square;stroke-opacity:0.1;"/>
   </g>
   <g id="line2d_6">
    <path clip-path="url(#p01420c3b38)" d="M 201.518182 99.621818 
L 189.245455 38.530909 
" style="fill:none;stroke:#0000ff;stroke-linecap:square;stroke-opacity:0.1;"/>
   </g>
   <g id="line2d_7">
    <path clip-path="url(#p01420c3b38)" d="M 219.927273 74.312727 
L 201.518182 99.621818 
" style="fill:none;stroke:#0000ff;stroke-linecap:square;stroke-opacity:0.1;"/>
   </g>
   <g id="line2d_8">
    <path clip-path="url(#p01420c3b38)" d="M 219.927273 74.312727 
L 219.927273 74.312727 
" style="fill:none;stroke:#0000ff;stroke-linecap:square;stroke-opacity:0.1;"/>
   </g>
   <g id="line2d_9">
    <path clip-path="url(#p01420c3b38)" d="M 219.927273 74.312727 
L 275.154545 82.167273 
" style="fill:none;stroke:#0000ff;stroke-linecap:square;stroke-width:1.5;"/>
   </g>
   <g id="line2d_10">
    <path clip-path="url(#p01420c3b38)" d="M 219.927273 74.312727 
L 226.063636 108.349091 
" style="fill:none;stroke:#0000ff;stroke-linecap:square;stroke-opacity:0.1;"/>
   </g>
   <g id="line2d_11">
    <path clip-path="url(#p01420c3b38)" d="M 219.927273 74.312727 
L 250.609091 47.258182 
" style="fill:none;stroke:#0000ff;stroke-linecap:square;stroke-opacity:0.1;"/>
   </g>
   <g id="line2d_12">
    <path clip-path="url(#p01420c3b38)" d="M 219.927273 74.312727 
L 189.245455 38.530909 
" style="fill:none;stroke:#0000ff;stroke-linecap:square;stroke-opacity:0.1;"/>
   </g>
   <g id="line2d_13">
    <path clip-path="url(#p01420c3b38)" d="M 275.154545 82.167273 
L 201.518182 99.621818 
" style="fill:none;stroke:#0000ff;stroke-linecap:square;stroke-opacity:0.1;"/>
   </g>
   <g id="line2d_14">
    <path clip-path="url(#p01420c3b38)" d="M 275.154545 82.167273 
L 219.927273 74.312727 
" style="fill:none;stroke:#0000ff;stroke-linecap:square;stroke-opacity:0.1;"/>
   </g>
   <g id="line2d_15">
    <path clip-path="url(#p01420c3b38)" d="M 275.154545 82.167273 
L 275.154545 82.167273 
" style="fill:none;stroke:#0000ff;stroke-linecap:square;stroke-opacity:0.1;"/>
   </g>
   <g id="line2d_16">
    <path clip-path="url(#p01420c3b38)" d="M 275.154545 82.167273 
L 226.063636 108.349091 
" style="fill:none;stroke:#0000ff;stroke-linecap:square;stroke-width:1.5;"/>
   </g>
   <g id="line2d_17">
    <path clip-path="url(#p01420c3b38)" d="M 275.154545 82.167273 
L 250.609091 47.258182 
" style="fill:none;stroke:#0000ff;stroke-linecap:square;stroke-opacity:0.1;"/>
   </g>
   <g id="line2d_18">
    <path clip-path="url(#p01420c3b38)" d="M 275.154545 82.167273 
L 189.245455 38.530909 
" style="fill:none;stroke:#0000ff;stroke-linecap:square;stroke-opacity:0.1;"/>
   </g>
   <g id="line2d_19">
    <path clip-path="url(#p01420c3b38)" d="M 226.063636 108.349091 
L 201.518182 99.621818 
" style="fill:none;stroke:#0000ff;stroke-linecap:square;stroke-opacity:0.1;"/>
   </g>
   <g id="line2d_20">
    <path clip-path="url(#p01420c3b38)" d="M 226.063636 108.349091 
L 219.927273 74.312727 
" style="fill:none;stroke:#0000ff;stroke-linecap:square;stroke-opacity:0.1;"/>
   </g>
   <g id="line2d_21">
    <path clip-path="url(#p01420c3b38)" d="M 226.063636 108.349091 
L 275.154545 82.167273 
" style="fill:none;stroke:#0000ff;stroke-linecap:square;stroke-opacity:0.1;"/>
   </g>
   <g id="line2d_22">
    <path clip-path="url(#p01420c3b38)" d="M 226.063636 108.349091 
L 226.063636 108.349091 
" style="fill:none;stroke:#0000ff;stroke-linecap:square;stroke-opacity:0.1;"/>
   </g>
   <g id="line2d_23">
    <path clip-path="url(#p01420c3b38)" d="M 226.063636 108.349091 
L 250.609091 47.258182 
" style="fill:none;stroke:#0000ff;stroke-linecap:square;stroke-width:1.5;"/>
   </g>
   <g id="line2d_24">
    <path clip-path="url(#p01420c3b38)" d="M 226.063636 108.349091 
L 189.245455 38.530909 
" style="fill:none;stroke:#0000ff;stroke-linecap:square;stroke-width:1.5;"/>
   </g>
   <g id="line2d_25">
    <path clip-path="url(#p01420c3b38)" d="M 250.609091 47.258182 
L 201.518182 99.621818 
" style="fill:none;stroke:#0000ff;stroke-linecap:square;stroke-opacity:0.1;"/>
   </g>
   <g id="line2d_26">
    <path clip-path="url(#p01420c3b38)" d="M 250.609091 47.258182 
L 219.927273 74.312727 
" style="fill:none;stroke:#0000ff;stroke-linecap:square;stroke-opacity:0.1;"/>
   </g>
   <g id="line2d_27">
    <path clip-path="url(#p01420c3b38)" d="M 250.609091 47.258182 
L 275.154545 82.167273 
" style="fill:none;stroke:#0000ff;stroke-linecap:square;stroke-opacity:0.1;"/>
   </g>
   <g id="line2d_28">
    <path clip-path="url(#p01420c3b38)" d="M 250.609091 47.258182 
L 226.063636 108.349091 
" style="fill:none;stroke:#0000ff;stroke-linecap:square;stroke-opacity:0.1;"/>
   </g>
   <g id="line2d_29">
    <path clip-path="url(#p01420c3b38)" d="M 250.609091 47.258182 
L 250.609091 47.258182 
" style="fill:none;stroke:#0000ff;stroke-linecap:square;stroke-opacity:0.1;"/>
   </g>
   <g id="line2d_30">
    <path clip-path="url(#p01420c3b38)" d="M 250.609091 47.258182 
L 189.245455 38.530909 
" style="fill:none;stroke:#0000ff;stroke-linecap:square;stroke-width:1.5;"/>
   </g>
   <g id="line2d_31">
    <path clip-path="url(#p01420c3b38)" d="M 189.245455 38.530909 
L 201.518182 99.621818 
" style="fill:none;stroke:#0000ff;stroke-linecap:square;stroke-opacity:0.1;"/>
   </g>
   <g id="line2d_32">
    <path clip-path="url(#p01420c3b38)" d="M 189.245455 38.530909 
L 219.927273 74.312727 
" style="fill:none;stroke:#0000ff;stroke-linecap:square;stroke-opacity:0.1;"/>
   </g>
   <g id="line2d_33">
    <path clip-path="url(#p01420c3b38)" d="M 189.245455 38.530909 
L 275.154545 82.167273 
" style="fill:none;stroke:#0000ff;stroke-linecap:square;stroke-opacity:0.1;"/>
   </g>
   <g id="line2d_34">
    <path clip-path="url(#p01420c3b38)" d="M 189.245455 38.530909 
L 226.063636 108.349091 
" style="fill:none;stroke:#0000ff;stroke-linecap:square;stroke-opacity:0.1;"/>
   </g>
   <g id="line2d_35">
    <path clip-path="url(#p01420c3b38)" d="M 189.245455 38.530909 
L 250.609091 47.258182 
" style="fill:none;stroke:#0000ff;stroke-linecap:square;stroke-opacity:0.1;"/>
   </g>
   <g id="line2d_36">
    <path clip-path="url(#p01420c3b38)" d="M 189.245455 38.530909 
L 189.245455 38.530909 
" style="fill:none;stroke:#0000ff;stroke-linecap:square;stroke-opacity:0.1;"/>
   </g>
   <g id="patch_4">
    <path clip-path="url(#p01420c3b38)" d="M 201.518182 103.985455 
C 203.145564 103.985455 204.706513 103.525674 205.857246 102.707375 
C 207.007979 101.889076 207.654545 100.779068 207.654545 99.621818 
C 207.654545 98.464568 207.007979 97.354561 205.857246 96.536261 
C 204.706513 95.717962 203.145564 95.258182 201.518182 95.258182 
C 199.890799 95.258182 198.329851 95.717962 197.179117 96.536261 
C 196.028384 97.354561 195.381818 98.464568 195.381818 99.621818 
C 195.381818 100.779068 196.028384 101.889076 197.179117 102.707375 
C 198.329851 103.525674 199.890799 103.985455 201.518182 103.985455 
z
" style="stroke:#000000;stroke-linejoin:miter;"/>
   </g>
   <g id="patch_5">
    <path clip-path="url(#p01420c3b38)" d="M 219.927273 78.676364 
C 221.554655 78.676364 223.115604 78.216583 224.266337 77.398284 
C 225.41707 76.579985 226.063636 75.469977 226.063636 74.312727 
C 226.063636 73.155477 225.41707 72.04547 224.266337 71.22717 
C 223.115604 70.408871 221.554655 69.949091 219.927273 69.949091 
C 218.29989 69.949091 216.738942 70.408871 215.588208 71.22717 
C 214.437475 72.04547 213.790909 73.155477 213.790909 74.312727 
C 213.790909 75.469977 214.437475 76.579985 215.588208 77.398284 
C 216.738942 78.216583 218.29989 78.676364 219.927273 78.676364 
z
" style="stroke:#000000;stroke-linejoin:miter;"/>
   </g>
   <g id="patch_6">
    <path clip-path="url(#p01420c3b38)" d="M 275.154545 86.530909 
C 276.781928 86.530909 278.342876 86.071129 279.49361 85.25283 
C 280.644343 84.43453 281.290909 83.324523 281.290909 82.167273 
C 281.290909 81.010023 280.644343 79.900015 279.49361 79.081716 
C 278.342876 78.263417 276.781928 77.803636 275.154545 77.803636 
C 273.527163 77.803636 271.966214 78.263417 270.815481 79.081716 
C 269.664748 79.900015 269.018182 81.010023 269.018182 82.167273 
C 269.018182 83.324523 269.664748 84.43453 270.815481 85.25283 
C 271.966214 86.071129 273.527163 86.530909 275.154545 86.530909 
z
" style="stroke:#000000;stroke-linejoin:miter;"/>
   </g>
   <g id="patch_7">
    <path clip-path="url(#p01420c3b38)" d="M 226.063636 112.712727 
C 227.691019 112.712727 229.251967 112.252947 230.402701 111.434648 
C 231.553434 110.616349 232.2 109.506341 232.2 108.349091 
C 232.2 107.191841 231.553434 106.081833 230.402701 105.263534 
C 229.251967 104.445235 227.691019 103.985455 226.063636 103.985455 
C 224.436254 103.985455 222.875305 104.445235 221.724572 105.263534 
C 220.573839 106.081833 219.927273 107.191841 219.927273 108.349091 
C 219.927273 109.506341 220.573839 110.616349 221.724572 111.434648 
C 222.875305 112.252947 224.436254 112.712727 226.063636 112.712727 
z
" style="stroke:#000000;stroke-linejoin:miter;"/>
   </g>
   <g id="patch_8">
    <path clip-path="url(#p01420c3b38)" d="M 250.609091 51.621818 
C 252.236474 51.621818 253.797422 51.162038 254.948155 50.343739 
C 256.098889 49.525439 256.745455 48.415432 256.745455 47.258182 
C 256.745455 46.100932 256.098889 44.990924 254.948155 44.172625 
C 253.797422 43.354326 252.236474 42.894545 250.609091 42.894545 
C 248.981708 42.894545 247.42076 43.354326 246.270027 44.172625 
C 245.119293 44.990924 244.472727 46.100932 244.472727 47.258182 
C 244.472727 48.415432 245.119293 49.525439 246.270027 50.343739 
C 247.42076 51.162038 248.981708 51.621818 250.609091 51.621818 
z
" style="stroke:#000000;stroke-linejoin:miter;"/>
   </g>
   <g id="patch_9">
    <path clip-path="url(#p01420c3b38)" d="M 189.245455 42.894545 
C 190.872837 42.894545 192.433786 42.434765 193.584519 41.616466 
C 194.735252 40.798167 195.381818 39.688159 195.381818 38.530909 
C 195.381818 37.373659 194.735252 36.263651 193.584519 35.445352 
C 192.433786 34.627053 190.872837 34.167273 189.245455 34.167273 
C 187.618072 34.167273 186.057124 34.627053 184.90639 35.445352 
C 183.755657 36.263651 183.109091 37.373659 183.109091 38.530909 
C 183.109091 39.688159 183.755657 40.798167 184.90639 41.616466 
C 186.057124 42.434765 187.618072 42.894545 189.245455 42.894545 
z
" style="stroke:#000000;stroke-linejoin:miter;"/>
   </g>
   <g id="matplotlib.axis_3"/>
   <g id="matplotlib.axis_4"/>
  </g>
 </g>
 <defs>
  <clipPath id="pbc598bd097">
   <rect height="217.44" width="279" x="7.2" y="7.2"/>
  </clipPath>
  <clipPath id="p01420c3b38">
   <rect height="86.4" width="108" x="178.2" y="30.24"/>
  </clipPath>
 </defs>
</svg>
