<?xml version="1.0" encoding="utf-8" standalone="no"?>
<!DOCTYPE svg PUBLIC "-//W3C//DTD SVG 1.1//EN"
  "http://www.w3.org/Graphics/SVG/1.1/DTD/svg11.dtd">
<svg height="247.195205pt" version="1.1" viewBox="0 0 349.2 247.195205" width="349.2pt" xmlns="http://www.w3.org/2000/svg" xmlns:xlink="http://www.w3.org/1999/xlink">
 <metadata>
  <rdf:RDF xmlns:cc="http://creativecommons.org/ns#" xmlns:dc="http://purl.org/dc/elements/1.1/" xmlns:rdf="http://www.w3.org/1999/02/22-rdf-syntax-ns#">
   <cc:Work>
    <dc:type rdf:resource="http://purl.org/dc/dcmitype/StillImage"/>
    <dc:date>2023-09-26T14:13:03.471572</dc:date>
    <dc:format>image/svg+xml</dc:format>
    <dc:creator>
     <cc:Agent>
      <dc:title>Matplotlib v3.4.3, https://matplotlib.org/</dc:title>
     </cc:Agent>
    </dc:creator>
   </cc:Work>
  </rdf:RDF>
 </metadata>
 <defs>
  <style type="text/css">*{stroke-linecap:butt;stroke-linejoin:round;}</style>
 </defs>
 <g id="figure_1">
  <g id="patch_1">
   <path d="M 0 247.195205 
L 349.2 247.195205 
L 349.2 0 
L 0 0 
z
" style="fill:none;"/>
  </g>
  <g id="axes_1">
   <g id="patch_2">
    <path d="M 7.2 239.995205 
L 342 239.995205 
L 342 22.555205 
L 7.2 22.555205 
z
" style="fill:none;"/>
   </g>
   <g id="matplotlib.axis_1"/>
   <g id="matplotlib.axis_2"/>
   <g id="line2d_1">
    <path clip-path="url(#p9356944145)" d="M 90.9 92.900603 
L 118.92094 93.010881 
L 120.511771 93.261445 
L 121.600233 93.647676 
L 122.52124 94.212228 
L 123.35852 94.998367 
L 124.167889 96.080108 
L 124.977259 97.542516 
L 125.870357 99.648343 
L 126.875092 102.633776 
L 128.214738 107.4014 
L 130.391664 115.169578 
L 131.228943 117.336342 
L 131.870857 118.436632 
L 132.373224 118.90138 
L 132.763955 118.986778 
L 133.154685 118.857734 
L 133.573324 118.468334 
L 134.075692 117.67327 
L 134.717606 116.186128 
L 135.526976 113.695441 
L 136.754985 109.097441 
L 139.294732 99.487069 
L 140.494832 95.866388 
L 141.611204 93.179916 
L 142.671757 91.186057 
L 143.676492 89.743391 
L 144.625408 88.749678 
L 145.490597 88.146802 
L 146.299967 87.840889 
L 147.276792 87.727933 
L 148.16989 87.990112 
L 149.230443 88.54973 
L 150.821274 89.684064 
L 153.137746 91.301073 
L 154.533211 91.995046 
L 155.928676 92.441946 
L 157.547416 92.719379 
L 159.835979 92.862841 
L 165.110837 92.900603 
L 174.6 92.900603 
L 174.6 92.900603 
" style="fill:none;stroke:#000000;stroke-linecap:square;stroke-width:2;"/>
   </g>
   <g id="line2d_2">
    <path clip-path="url(#p9356944145)" d="M 199.71 34.005229 
L 227.73094 34.115507 
L 229.321771 34.366072 
L 230.410233 34.752302 
L 231.33124 35.316854 
L 232.16852 36.102993 
L 232.977889 37.184734 
L 233.787259 38.647142 
L 234.680357 40.752969 
L 235.685092 43.738402 
L 237.024738 48.506026 
L 239.201664 56.274205 
L 240.038943 58.440968 
L 240.680857 59.541258 
L 241.183224 60.006006 
L 241.546045 60.111589 
L 241.685592 59.881105 
L 242.076322 59.669317 
L 242.522871 59.153161 
L 243.081057 58.121841 
L 243.77879 56.304936 
L 244.727706 53.128501 
L 248.57919 39.43421 
L 249.556015 37.115734 
L 250.449113 35.529893 
L 251.314301 34.418869 
L 252.207399 33.62726 
L 253.156315 33.084783 
L 254.244778 32.72713 
L 255.975155 32.442253 
L 258.710267 32.595099 
L 262.533841 33.061822 
L 267.920337 33.683818 
L 269.455348 33.793241 
L 269.594895 34.005229 
L 283.41 34.005229 
L 283.41 34.005229 
" style="fill:none;stroke:#e64b35;stroke-linecap:square;stroke-width:2;"/>
   </g>
   <g id="line2d_3">
    <path clip-path="url(#p9356944145)" d="M 199.71 92.900603 
L 227.73094 93.010881 
L 229.321771 93.261445 
L 230.410233 93.647676 
L 231.33124 94.212228 
L 232.16852 94.998367 
L 232.977889 96.080108 
L 233.787259 97.542516 
L 234.680357 99.648343 
L 235.685092 102.633776 
L 237.024738 107.4014 
L 239.201664 115.169578 
L 240.038943 117.336342 
L 240.680857 118.436632 
L 241.183224 118.90138 
L 241.573955 118.986778 
L 241.964685 118.857734 
L 242.383324 118.468334 
L 242.885692 117.67327 
L 243.527606 116.186128 
L 244.336976 113.695441 
L 245.564985 109.097441 
L 248.104732 99.487069 
L 249.304832 95.866388 
L 250.421204 93.179916 
L 251.481757 91.186057 
L 252.486492 89.743391 
L 253.435408 88.749678 
L 254.300597 88.146802 
L 255.109967 87.840889 
L 256.086792 87.727933 
L 256.97989 87.990112 
L 258.040443 88.54973 
L 259.631274 89.684064 
L 261.947746 91.301073 
L 263.343211 91.995046 
L 264.738676 92.441946 
L 266.357416 92.719379 
L 268.645979 92.862841 
L 273.920837 92.900603 
L 283.41 92.900603 
L 283.41 92.900603 
" style="fill:none;stroke:#4dbbd5;stroke-linecap:square;stroke-width:2;"/>
   </g>
   <g id="line2d_4">
    <path clip-path="url(#p9356944145)" d="M 199.71 151.795977 
L 236.494461 151.902345 
L 236.96892 152.141708 
L 237.331741 152.583511 
L 237.666652 153.381558 
L 238.001564 154.809273 
L 238.364385 157.456378 
L 238.755115 162.143018 
L 239.201664 170.52148 
L 239.75985 185.820455 
L 241.155315 226.884114 
L 241.462317 229.923461 
L 241.546045 230.111569 
L 241.601864 230.049228 
L 241.713501 229.608326 
L 241.908866 227.661688 
L 242.215869 221.860282 
L 242.718236 207.183088 
L 243.974155 169.107135 
L 244.504431 159.968431 
L 244.97889 155.339128 
L 245.397529 153.147852 
L 245.816169 152.004712 
L 246.262718 151.382794 
L 246.904632 150.90549 
L 248.774555 149.658749 
L 250.030473 148.481026 
L 254.105232 144.396376 
L 254.914602 144.044224 
L 255.640243 143.967556 
L 256.337976 144.114329 
L 257.091527 144.501403 
L 258.012534 145.243457 
L 259.324271 146.6236 
L 261.864018 149.322143 
L 263.092027 150.278755 
L 264.264218 150.918068 
L 265.520137 151.348244 
L 267.027239 151.618801 
L 269.204165 151.759055 
L 274.367386 151.795977 
L 283.41 151.795977 
L 283.41 151.795977 
" style="fill:none;stroke:#00a087;stroke-linecap:square;stroke-width:2;"/>
   </g>
   <g id="text_1">
    <!-- Observed -->
    <g transform="translate(107.64 53.63702)scale(0.1 -0.1)">
     <defs>
      <path d="M 2469 4716 
Q 3684 4716 4269 3934 
Q 4725 3325 4725 2375 
Q 4725 1347 4203 666 
Q 3591 -134 2456 -134 
Q 1397 -134 791 566 
Q 250 1241 250 2272 
Q 250 3203 713 3866 
Q 1306 4716 2469 4716 
z
M 2531 422 
Q 3353 422 3720 1011 
Q 4088 1600 4088 2366 
Q 4088 3175 3664 3669 
Q 3241 4163 2506 4163 
Q 1794 4163 1344 3673 
Q 894 3184 894 2231 
Q 894 1469 1280 945 
Q 1666 422 2531 422 
z
M 2488 4716 
L 2488 4716 
z
" id="Helvetica-4f" transform="scale(0.015625)"/>
      <path d="M 369 4606 
L 916 4606 
L 916 2941 
Q 1100 3181 1356 3307 
Q 1613 3434 1913 3434 
Q 2538 3434 2927 3004 
Q 3316 2575 3316 1738 
Q 3316 944 2931 419 
Q 2547 -106 1866 -106 
Q 1484 -106 1222 78 
Q 1066 188 888 428 
L 888 0 
L 369 0 
L 369 4606 
z
M 1831 391 
Q 2288 391 2514 753 
Q 2741 1116 2741 1709 
Q 2741 2238 2514 2584 
Q 2288 2931 1847 2931 
Q 1463 2931 1173 2647 
Q 884 2363 884 1709 
Q 884 1238 1003 944 
Q 1225 391 1831 391 
z
" id="Helvetica-62" transform="scale(0.015625)"/>
      <path d="M 747 1050 
Q 772 769 888 619 
Q 1100 347 1625 347 
Q 1938 347 2175 483 
Q 2413 619 2413 903 
Q 2413 1119 2222 1231 
Q 2100 1300 1741 1391 
L 1294 1503 
Q 866 1609 663 1741 
Q 300 1969 300 2372 
Q 300 2847 642 3140 
Q 984 3434 1563 3434 
Q 2319 3434 2653 2991 
Q 2863 2709 2856 2384 
L 2325 2384 
Q 2309 2575 2191 2731 
Q 1997 2953 1519 2953 
Q 1200 2953 1036 2831 
Q 872 2709 872 2509 
Q 872 2291 1088 2159 
Q 1213 2081 1456 2022 
L 1828 1931 
Q 2434 1784 2641 1647 
Q 2969 1431 2969 969 
Q 2969 522 2630 197 
Q 2291 -128 1597 -128 
Q 850 -128 539 211 
Q 228 550 206 1050 
L 747 1050 
z
M 1578 3428 
L 1578 3428 
z
" id="Helvetica-73" transform="scale(0.015625)"/>
      <path d="M 1806 3422 
Q 2163 3422 2497 3255 
Q 2831 3088 3006 2822 
Q 3175 2569 3231 2231 
Q 3281 2000 3281 1494 
L 828 1494 
Q 844 984 1069 676 
Q 1294 369 1766 369 
Q 2206 369 2469 659 
Q 2619 828 2681 1050 
L 3234 1050 
Q 3213 866 3089 639 
Q 2966 413 2813 269 
Q 2556 19 2178 -69 
Q 1975 -119 1719 -119 
Q 1094 -119 659 336 
Q 225 791 225 1609 
Q 225 2416 662 2919 
Q 1100 3422 1806 3422 
z
M 2703 1941 
Q 2669 2306 2544 2525 
Q 2313 2931 1772 2931 
Q 1384 2931 1121 2651 
Q 859 2372 844 1941 
L 2703 1941 
z
M 1753 3428 
L 1753 3428 
z
" id="Helvetica-65" transform="scale(0.015625)"/>
      <path d="M 428 3347 
L 963 3347 
L 963 2769 
Q 1028 2938 1284 3180 
Q 1541 3422 1875 3422 
Q 1891 3422 1928 3419 
Q 1966 3416 2056 3406 
L 2056 2813 
Q 2006 2822 1964 2825 
Q 1922 2828 1872 2828 
Q 1447 2828 1219 2554 
Q 991 2281 991 1925 
L 991 0 
L 428 0 
L 428 3347 
z
" id="Helvetica-72" transform="scale(0.015625)"/>
      <path d="M 688 3347 
L 1581 622 
L 2516 3347 
L 3131 3347 
L 1869 0 
L 1269 0 
L 34 3347 
L 688 3347 
z
" id="Helvetica-76" transform="scale(0.015625)"/>
      <path d="M 769 1634 
Q 769 1097 997 734 
Q 1225 372 1728 372 
Q 2119 372 2370 708 
Q 2622 1044 2622 1672 
Q 2622 2306 2362 2611 
Q 2103 2916 1722 2916 
Q 1297 2916 1033 2591 
Q 769 2266 769 1634 
z
M 1616 3406 
Q 2000 3406 2259 3244 
Q 2409 3150 2600 2916 
L 2600 4606 
L 3141 4606 
L 3141 0 
L 2634 0 
L 2634 466 
Q 2438 156 2169 18 
Q 1900 -119 1553 -119 
Q 994 -119 584 351 
Q 175 822 175 1603 
Q 175 2334 548 2870 
Q 922 3406 1616 3406 
z
" id="Helvetica-64" transform="scale(0.015625)"/>
     </defs>
     <use xlink:href="#Helvetica-4f"/>
     <use x="77.783203" xlink:href="#Helvetica-62"/>
     <use x="133.398438" xlink:href="#Helvetica-73"/>
     <use x="183.398438" xlink:href="#Helvetica-65"/>
     <use x="239.013672" xlink:href="#Helvetica-72"/>
     <use x="272.314453" xlink:href="#Helvetica-76"/>
     <use x="322.314453" xlink:href="#Helvetica-65"/>
     <use x="377.929688" xlink:href="#Helvetica-64"/>
    </g>
   </g>
   <g id="text_2">
    <!-- Templates -->
    <g transform="translate(216.45 14.373438)scale(0.1 -0.1)">
     <defs>
      <path d="M 3828 4591 
L 3828 4044 
L 2281 4044 
L 2281 0 
L 1650 0 
L 1650 4044 
L 103 4044 
L 103 4591 
L 3828 4591 
z
" id="Helvetica-54" transform="scale(0.015625)"/>
      <path d="M 413 3347 
L 969 3347 
L 969 2872 
Q 1169 3119 1331 3231 
Q 1609 3422 1963 3422 
Q 2363 3422 2606 3225 
Q 2744 3113 2856 2894 
Q 3044 3163 3297 3292 
Q 3550 3422 3866 3422 
Q 4541 3422 4784 2934 
Q 4916 2672 4916 2228 
L 4916 0 
L 4331 0 
L 4331 2325 
Q 4331 2659 4164 2784 
Q 3997 2909 3756 2909 
Q 3425 2909 3186 2687 
Q 2947 2466 2947 1947 
L 2947 0 
L 2375 0 
L 2375 2184 
Q 2375 2525 2294 2681 
Q 2166 2916 1816 2916 
Q 1497 2916 1236 2669 
Q 975 2422 975 1775 
L 975 0 
L 413 0 
L 413 3347 
z
" id="Helvetica-6d" transform="scale(0.015625)"/>
      <path d="M 1825 378 
Q 2219 378 2480 708 
Q 2741 1038 2741 1694 
Q 2741 2094 2625 2381 
Q 2406 2934 1825 2934 
Q 1241 2934 1025 2350 
Q 909 2038 909 1556 
Q 909 1169 1025 897 
Q 1244 378 1825 378 
z
M 369 3331 
L 916 3331 
L 916 2888 
Q 1084 3116 1284 3241 
Q 1569 3428 1953 3428 
Q 2522 3428 2919 2992 
Q 3316 2556 3316 1747 
Q 3316 653 2744 184 
Q 2381 -113 1900 -113 
Q 1522 -113 1266 53 
Q 1116 147 931 375 
L 931 -1334 
L 369 -1334 
L 369 3331 
z
" id="Helvetica-70" transform="scale(0.015625)"/>
      <path d="M 428 4591 
L 991 4591 
L 991 0 
L 428 0 
L 428 4591 
z
" id="Helvetica-6c" transform="scale(0.015625)"/>
      <path d="M 844 891 
Q 844 647 1022 506 
Q 1200 366 1444 366 
Q 1741 366 2019 503 
Q 2488 731 2488 1250 
L 2488 1703 
Q 2384 1638 2221 1594 
Q 2059 1550 1903 1531 
L 1563 1488 
Q 1256 1447 1103 1359 
Q 844 1213 844 891 
z
M 2206 2028 
Q 2400 2053 2466 2191 
Q 2503 2266 2503 2406 
Q 2503 2694 2298 2823 
Q 2094 2953 1713 2953 
Q 1272 2953 1088 2716 
Q 984 2584 953 2325 
L 428 2325 
Q 444 2944 830 3186 
Q 1216 3428 1725 3428 
Q 2316 3428 2684 3203 
Q 3050 2978 3050 2503 
L 3050 575 
Q 3050 488 3086 434 
Q 3122 381 3238 381 
Q 3275 381 3322 386 
Q 3369 391 3422 400 
L 3422 -16 
Q 3291 -53 3222 -62 
Q 3153 -72 3034 -72 
Q 2744 -72 2613 134 
Q 2544 244 2516 444 
Q 2344 219 2022 53 
Q 1700 -113 1313 -113 
Q 847 -113 551 170 
Q 256 453 256 878 
Q 256 1344 547 1600 
Q 838 1856 1309 1916 
L 2206 2028 
z
M 1741 3428 
L 1741 3428 
z
" id="Helvetica-61" transform="scale(0.015625)"/>
      <path d="M 525 4281 
L 1094 4281 
L 1094 3347 
L 1628 3347 
L 1628 2888 
L 1094 2888 
L 1094 703 
Q 1094 528 1213 469 
Q 1278 434 1431 434 
Q 1472 434 1519 436 
Q 1566 438 1628 444 
L 1628 0 
Q 1531 -28 1426 -40 
Q 1322 -53 1200 -53 
Q 806 -53 665 148 
Q 525 350 525 672 
L 525 2888 
L 72 2888 
L 72 3347 
L 525 3347 
L 525 4281 
z
" id="Helvetica-74" transform="scale(0.015625)"/>
     </defs>
     <use xlink:href="#Helvetica-54"/>
     <use x="61.083984" xlink:href="#Helvetica-65"/>
     <use x="116.699219" xlink:href="#Helvetica-6d"/>
     <use x="200" xlink:href="#Helvetica-70"/>
     <use x="255.615234" xlink:href="#Helvetica-6c"/>
     <use x="277.832031" xlink:href="#Helvetica-61"/>
     <use x="333.447266" xlink:href="#Helvetica-74"/>
     <use x="361.230469" xlink:href="#Helvetica-65"/>
     <use x="416.845703" xlink:href="#Helvetica-73"/>
    </g>
   </g>
  </g>
 </g>
 <defs>
  <clipPath id="p9356944145">
   <rect height="217.44" width="334.8" x="7.2" y="22.555205"/>
  </clipPath>
 </defs>
</svg>
